<?xml version="1.0" encoding="UTF-8" standalone="no"?>
<!-- Created with Inkscape (http://www.inkscape.org/) -->
<svg id="svg2" xmlns:rdf="http://www.w3.org/1999/02/22-rdf-syntax-ns#" xmlns="http://www.w3.org/2000/svg" height="133.08mm" width="149.56mm" version="1.1" xmlns:cc="http://creativecommons.org/ns#" xmlns:xlink="http://www.w3.org/1999/xlink" viewBox="0 0 529.95225 471.54293" xmlns:dc="http://purl.org/dc/elements/1.1/">
 <defs id="defs4">
  <marker id="Arrow1Lend" refY="0" refX="0" orient="auto" overflow="visible">
   <path id="path5072" d="m0 0 5-5-17.5 5 17.5 5-5-5z" fill-rule="evenodd" transform="matrix(-.8 0 0 -.8 -10 0)" stroke="#000" stroke-width="1pt"/>
  </marker>
  <marker id="Arrow1Lend-1" refY="0" refX="0" orient="auto" overflow="visible">
   <path id="path5072-5" d="m0 0 5-5-17.5 5 17.5 5-5-5z" fill-rule="evenodd" transform="matrix(-.8 0 0 -.8 -10 0)" stroke="#000" stroke-width="1pt"/>
  </marker>
  <marker id="Arrow1Lend-1-4" refY="0" refX="0" orient="auto" overflow="visible">
   <path id="path5072-5-5" d="m0 0 5-5-17.5 5 17.5 5-5-5z" fill-rule="evenodd" transform="matrix(-.8 0 0 -.8 -10 0)" stroke="#000" stroke-width="1pt"/>
  </marker>
 </defs>
 <metadata id="metadata7">
  <rdf:RDF>
   <cc:Work rdf:about="">
    <dc:format>image/svg+xml</dc:format>
    <dc:type rdf:resource="http://purl.org/dc/dcmitype/StillImage"/>
    <dc:title/>
   </cc:Work>
  </rdf:RDF>
 </metadata>
 <g id="layer1" transform="translate(-169.77 -35.378)">
  <g fill="#8383ff">
   <rect id="rect4136-1" opacity="0.695" stroke-opacity=".39645" transform="matrix(1 0 -.69511 .71890 0 0)" height="41.392" width="44.465" stroke="#000" y="423.97" x="711.89" stroke-width=".72971" fill="#8383ff"/>
   <use id="use4240-6" xlink:href="#rect4136-1" transform="translate(-44.347 48.868)" height="100%" width="100%" y="0" x="0"/>
   <use id="use4242-88" xlink:href="#rect4136-1" transform="translate(-74.193 79.736)" height="100%" width="100%" y="0" x="0"/>
   <use id="use4244-0" xlink:href="#rect4136-1" transform="translate(-104.04 110.6)" height="100%" width="100%" y="0" x="0"/>
   <use id="use4246-9" xlink:href="#rect4136-1" transform="translate(-133.89 141.47)" height="100%" width="100%" y="0" x="0"/>
   <use id="use4248-8" xlink:href="#rect4136-1" transform="translate(46.126 .0000031165)" height="100%" width="100%" y="0" x="0"/>
   <use id="use4250-5" xlink:href="#rect4136-1" transform="translate(1.7793 48.868)" height="100%" width="100%" y="0" x="0"/>
   <use id="use4252-1" xlink:href="#rect4136-1" transform="translate(-28.067 79.736)" height="100%" width="100%" y="0" x="0"/>
   <use id="use4254-08" xlink:href="#rect4136-1" transform="translate(-57.914 110.6)" height="100%" width="100%" y="0" x="0"/>
   <use id="use4256-3" xlink:href="#rect4136-1" transform="translate(-87.761 141.47)" height="100%" width="100%" y="0" x="0"/>
   <use id="use4258-2" xlink:href="#rect4136-1" transform="translate(92.252 .0000031165)" height="100%" width="100%" y="0" x="0"/>
   <use id="use4260-2" xlink:href="#rect4136-1" transform="translate(47.905 48.868)" height="100%" width="100%" y="0" x="0"/>
   <use id="use4262-01" xlink:href="#rect4136-1" transform="translate(18.059 79.736)" height="100%" width="100%" y="0" x="0"/>
   <use id="use4264-8" xlink:href="#rect4136-1" transform="translate(-11.788 110.6)" height="100%" width="100%" y="0" x="0"/>
   <use id="use4266-5" xlink:href="#rect4136-1" transform="translate(-41.635 141.47)" height="100%" width="100%" y="0" x="0"/>
   <use id="use4268-6" xlink:href="#rect4136-1" transform="translate(138.38 .0000031165)" height="100%" width="100%" y="0" x="0"/>
   <use id="use4270-2" xlink:href="#rect4136-1" transform="translate(94.031 48.868)" height="100%" width="100%" y="0" x="0"/>
   <use id="use4272-6" xlink:href="#rect4136-1" transform="translate(64.185 79.736)" height="100%" width="100%" y="0" x="0"/>
   <use id="use4274-7" xlink:href="#rect4136-1" transform="translate(34.338 110.6)" height="100%" width="100%" y="0" x="0"/>
   <use id="use4276-3" xlink:href="#rect4136-1" transform="translate(4.4913 141.47)" height="100%" width="100%" y="0" x="0"/>
   <use id="use4278-7" xlink:href="#rect4136-1" transform="translate(206.73 1.0102)" height="100%" width="100%" y="0" x="0"/>
   <use id="use4280-1" xlink:href="#rect4136-1" transform="translate(162.38 49.878)" height="100%" width="100%" y="0" x="0"/>
   <use id="use4282-2" xlink:href="#rect4136-1" transform="translate(132.53 80.746)" height="100%" width="100%" y="0" x="0"/>
   <use id="use4284-5" xlink:href="#rect4136-1" transform="translate(102.69 111.61)" height="100%" width="100%" y="0" x="0"/>
   <use id="use4286-6" xlink:href="#rect4136-1" transform="translate(72.841 142.48)" height="100%" width="100%" y="0" x="0"/>
  </g>
  <circle id="path4819-29-1" cx="606.95" cy="142.4" r="2.0203"/>
  <use id="use4839-6-9" xlink:href="#path4819-29-1" transform="translate(.0000019989 .0000050021)" height="100%" width="100%" y="0" x="0"/>
  <use id="use4841-8-4" xlink:href="#path4819-29-1" transform="translate(6.0609 .0000050021)" height="100%" width="100%" y="0" x="0"/>
  <use id="use4843-4-4" xlink:href="#path4819-29-1" transform="translate(12.122 .0000050021)" height="100%" width="100%" y="0" x="0"/>
 </g>
 <g id="layer2" transform="translate(-169.77 -35.378)">
  <g fill="#2e2eff">
   <rect id="rect4136-0" opacity="0.695" stroke-opacity=".39645" height="44.447" width="44.447" stroke="#000" y="50.054" x="416.82" stroke-width="0.756" fill="#2e2eff"/>
   <use id="use4240-1" xlink:href="#rect4136-0" transform="translate(2.5254 68.835)" height="100%" width="100%" y="0" x="0"/>
   <use id="use4242-8" xlink:href="#rect4136-0" transform="translate(2.5254 114.94)" height="100%" width="100%" y="0" x="0"/>
   <use id="use4244-1" xlink:href="#rect4136-0" transform="translate(2.5254 161.05)" height="100%" width="100%" y="0" x="0"/>
   <use id="use4246-3" xlink:href="#rect4136-0" transform="translate(2.5254 207.16)" height="100%" width="100%" y="0" x="0"/>
   <use id="use4248-1" xlink:href="#rect4136-0" transform="translate(46.107 .0000050021)" height="100%" width="100%" y="0" x="0"/>
   <use id="use4250-6" xlink:href="#rect4136-0" transform="translate(48.632 68.835)" height="100%" width="100%" y="0" x="0"/>
   <use id="use4252-5" xlink:href="#rect4136-0" transform="translate(48.632 114.94)" height="100%" width="100%" y="0" x="0"/>
   <use id="use4254-0" xlink:href="#rect4136-0" transform="translate(48.632 161.05)" height="100%" width="100%" y="0" x="0"/>
   <use id="use4256-7" xlink:href="#rect4136-0" transform="translate(48.632 207.16)" height="100%" width="100%" y="0" x="0"/>
   <use id="use4258-3" xlink:href="#rect4136-0" transform="translate(92.214 .0000050021)" height="100%" width="100%" y="0" x="0"/>
   <use id="use4260-0" xlink:href="#rect4136-0" transform="translate(94.739 68.835)" height="100%" width="100%" y="0" x="0"/>
   <use id="use4262-0" xlink:href="#rect4136-0" transform="translate(94.739 114.94)" height="100%" width="100%" y="0" x="0"/>
   <use id="use4264-2" xlink:href="#rect4136-0" transform="translate(94.739 161.05)" height="100%" width="100%" y="0" x="0"/>
   <use id="use4266-1" xlink:href="#rect4136-0" transform="translate(94.739 207.16)" height="100%" width="100%" y="0" x="0"/>
   <use id="use4268-0" xlink:href="#rect4136-0" transform="translate(138.32 .0000050021)" height="100%" width="100%" y="0" x="0"/>
   <use id="use4270-4" xlink:href="#rect4136-0" transform="translate(140.85 68.835)" height="100%" width="100%" y="0" x="0"/>
   <use id="use4272-2" xlink:href="#rect4136-0" transform="translate(140.85 114.94)" height="100%" width="100%" y="0" x="0"/>
   <use id="use4274-3" xlink:href="#rect4136-0" transform="translate(140.85 161.05)" height="100%" width="100%" y="0" x="0"/>
   <use id="use4276-6" xlink:href="#rect4136-0" transform="translate(140.85 207.16)" height="100%" width="100%" y="0" x="0"/>
   <use id="use4278-4" xlink:href="#rect4136-0" transform="translate(208.17 -1.0101)" height="100%" width="100%" y="0" x="0"/>
   <use id="use4280-8" xlink:href="#rect4136-0" transform="translate(209.18 69.845)" height="100%" width="100%" y="0" x="0"/>
   <use id="use4282-0" xlink:href="#rect4136-0" transform="translate(209.18 115.95)" height="100%" width="100%" y="0" x="0"/>
   <use id="use4284-7" xlink:href="#rect4136-0" transform="translate(209.18 162.06)" height="100%" width="100%" y="0" x="0"/>
   <use id="use4286-2" xlink:href="#rect4136-0" transform="translate(209.18 208.17)" height="100%" width="100%" y="0" x="0"/>
  </g>
  <text id="text4815" style="word-spacing:0px;letter-spacing:0px" xml:space="preserve" font-size="40px" y="463.94833" x="450.52805" font-family="sans-serif" line-height="125%" fill="#000000"><tspan id="tspan4817" x="450.52805" y="463.94833"/></text>
  <circle id="path4819" cx="458.1" cy="462.43" r="2.0203"/>
  <use id="use4839" xlink:href="#path4819" transform="translate(.0000012671 -.0000020329)" height="100%" width="100%" y="0" x="0"/>
  <use id="use4841" xlink:href="#path4819" transform="translate(6.0609 -.0000020329)" height="100%" width="100%" y="0" x="0"/>
  <use id="use4843" xlink:href="#path4819" transform="translate(12.122 -.0000020329)" height="100%" width="100%" y="0" x="0"/>
  <circle id="path4819-2" cx="-270.56" transform="rotate(-89.488)" cy="263.13" r="2.0203"/>
  <use id="use4839-1" xlink:href="#path4819-2" transform="translate(-.0000020657 .0000059021)" height="100%" width="100%" y="0" x="0"/>
  <use id="use4841-3" xlink:href="#path4819-2" transform="translate(.057174 -6.0606)" height="100%" width="100%" y="0" x="0"/>
  <use id="use4843-2" xlink:href="#path4819-2" transform="translate(.11435 -12.121)" height="100%" width="100%" y="0" x="0"/>
  <circle id="path4819-2-7" cx="-123.34" transform="rotate(-89.488)" cy="401.16" r="2.0203"/>
  <use id="use4839-1-4" xlink:href="#path4819-2-7" transform="translate(.0000059818 -.0000019864)" height="100%" width="100%" y="0" x="0"/>
  <use id="use4841-3-5" xlink:href="#path4819-2-7" transform="translate(.057186 -6.0606)" height="100%" width="100%" y="0" x="0"/>
  <use id="use4843-2-8" xlink:href="#path4819-2-7" transform="translate(.11436 -12.121)" height="100%" width="100%" y="0" x="0"/>
  <circle id="path4819-2-7-0" cx="-106.64" transform="rotate(-89.488)" cy="578.63" r="2.0203"/>
  <use id="use4839-1-4-7" xlink:href="#path4819-2-7-0" transform="translate(.0000090023 .0000049955)" height="100%" width="100%" y="0" x="0"/>
  <use id="use4841-3-5-7" xlink:href="#path4819-2-7-0" transform="translate(.057189 -6.0606)" height="100%" width="100%" y="0" x="0"/>
  <use id="use4843-2-8-8" xlink:href="#path4819-2-7-0" transform="translate(.11436 -12.121)" height="100%" width="100%" y="0" x="0"/>
  <circle id="path4819-29" cx="607.94" cy="283.52" r="2.0203"/>
  <use id="use4839-6" xlink:href="#path4819-29" height="100%" width="100%" y="0" x="0"/>
  <use id="use4841-8" xlink:href="#path4819-29" transform="translate(6.0609 1.0816e-8)" height="100%" width="100%" y="0" x="0"/>
  <use id="use4843-4" xlink:href="#path4819-29" transform="translate(12.122 1.0816e-8)" height="100%" width="100%" y="0" x="0"/>
  <circle id="path4819-2-7-0-4" cx="-107.01" transform="rotate(-89.488)" cy="646.83" r="2.0203"/>
  <use id="use4839-1-4-7-3" xlink:href="#path4819-2-7-0-4" transform="translate(.000014002 .0000029955)" height="100%" width="100%" y="0" x="0"/>
  <use id="use4841-3-5-7-9" xlink:href="#path4819-2-7-0-4" transform="translate(.057194 -6.0606)" height="100%" width="100%" y="0" x="0"/>
  <use id="use4843-2-8-8-6" xlink:href="#path4819-2-7-0-4" transform="translate(.11436 -12.121)" height="100%" width="100%" y="0" x="0"/>
  <circle id="path4819-29-1-6" cx="606.45" cy="71.182" r="2.0203"/>
  <use id="use4839-6-9-2" xlink:href="#path4819-29-1-6" transform="translate(.0000059989 .0000050021)" height="100%" width="100%" y="0" x="0"/>
  <use id="use4841-8-4-7" xlink:href="#path4819-29-1-6" transform="translate(6.0609 .0000050021)" height="100%" width="100%" y="0" x="0"/>
  <use id="use4843-4-4-4" xlink:href="#path4819-29-1-6" transform="translate(12.122 .0000050021)" height="100%" width="100%" y="0" x="0"/>
  <g stroke="#000" fill="none">
   <path id="path5063" marker-end="url(#Arrow1Lend)" d="m243.45 468.49-4.04-231.83" stroke-width=".99910px"/>
   <path id="path5063-8" marker-end="url(#Arrow1Lend-1)" d="m250.92 481.02 248.04 2.908" stroke-width="1.0257px"/>
   <path id="path5063-8-6" marker-end="url(#Arrow1Lend-1-4)" d="m510.68 484.09 160.85-168.35" stroke-width=".96657px"/>
  </g>
  <circle id="path4819-29-1-0" cx="548.44" cy="366.86" r="2.0203"/>
  <use id="use4839-6-9-5" xlink:href="#path4819-29-1-0" transform="translate(-.0000020245 1.116e-7)" height="100%" width="100%" y="0" x="0"/>
  <use id="use4841-8-4-8" xlink:href="#path4819-29-1-0" transform="translate(6.0609 1.116e-7)" height="100%" width="100%" y="0" x="0"/>
  <use id="use4843-4-4-3" xlink:href="#path4819-29-1-0" transform="translate(12.122 1.116e-7)" height="100%" width="100%" y="0" x="0"/>
  <circle id="path4819-29-1-0-4" cx="23.716" transform="rotate(-46.229)" cy="528.87" r="2.0203"/>
  <use id="use4839-6-9-5-1" xlink:href="#path4819-29-1-0-4" transform="translate(-.0000015082 -.0000013408)" height="100%" width="100%" y="0" x="0"/>
  <use id="use4841-8-4-8-8" xlink:href="#path4819-29-1-0-4" transform="translate(4.1928 -4.3766)" height="100%" width="100%" y="0" x="0"/>
  <use id="use4843-4-4-3-5" xlink:href="#path4819-29-1-0-4" transform="translate(8.3857 -8.7533)" height="100%" width="100%" y="0" x="0"/>
  <circle id="path4819-29-1-0-4-6" cx="117.11" transform="rotate(-46.229)" cy="626.36" r="2.0203"/>
  <use id="use4839-6-9-5-1-1" xlink:href="#path4819-29-1-0-4-6" transform="translate(5.2764e-8 .0000019773)" height="100%" width="100%" y="0" x="0"/>
  <use id="use4841-8-4-8-8-2" xlink:href="#path4819-29-1-0-4-6" transform="translate(4.1928 -4.3766)" height="100%" width="100%" y="0" x="0"/>
  <use id="use4843-4-4-3-5-1" xlink:href="#path4819-29-1-0-4-6" transform="translate(8.3857 -8.7532)" height="100%" width="100%" y="0" x="0"/>
  <circle id="path4819-29-1-0-4-64" cx="167.95" transform="rotate(-46.229)" cy="679.43" r="2.0203"/>
  <use id="use4839-6-9-5-1-4" xlink:href="#path4819-29-1-0-4-64" transform="translate(-.0000044013 .0000022992)" height="100%" width="100%" y="0" x="0"/>
  <use id="use4841-8-4-8-8-5" xlink:href="#path4819-29-1-0-4-64" transform="translate(4.1928 -4.3766)" height="100%" width="100%" y="0" x="0"/>
  <use id="use4843-4-4-3-5-7" xlink:href="#path4819-29-1-0-4-64" transform="translate(8.3857 -8.7532)" height="100%" width="100%" y="0" x="0"/>
  <circle id="path4819-2-7-06" cx="-172.56" transform="rotate(-89.488)" cy="357.09" r="2.0203"/>
  <use id="use4839-1-4-2" xlink:href="#path4819-2-7-06" transform="translate(-.0000010338 -.0000069686)" height="100%" width="100%" y="0" x="0"/>
  <use id="use4841-3-5-0" xlink:href="#path4819-2-7-06" transform="translate(.057179 -6.0606)" height="100%" width="100%" y="0" x="0"/>
  <use id="use4843-2-8-2" xlink:href="#path4819-2-7-06" transform="translate(.11435 -12.121)" height="100%" width="100%" y="0" x="0"/>
  <circle id="path4819-2-7-4" cx="-109.3" transform="rotate(-89.488)" cy="437.99" r="2.0203"/>
  <use id="use4839-1-4-4" xlink:href="#path4819-2-7-4" transform="translate(-.0000010987 -.0000030995)" height="100%" width="100%" y="0" x="0"/>
  <use id="use4841-3-5-1" xlink:href="#path4819-2-7-4" transform="translate(.057179 -6.0606)" height="100%" width="100%" y="0" x="0"/>
  <use id="use4843-2-8-27" xlink:href="#path4819-2-7-4" transform="translate(.11435 -12.121)" height="100%" width="100%" y="0" x="0"/>
  <circle id="path4819-29-0" cx="590.94" cy="320.86" r="2.0203"/>
  <use id="use4839-6-1" xlink:href="#path4819-29-0" transform="translate(0 .0000079982)" height="100%" width="100%" y="0" x="0"/>
  <use id="use4841-8-9" xlink:href="#path4819-29-0" transform="translate(6.0609 .0000079982)" height="100%" width="100%" y="0" x="0"/>
  <use id="use4843-4-6" xlink:href="#path4819-29-0" transform="translate(12.122 .0000079982)" height="100%" width="100%" y="0" x="0"/>
  <circle id="path4819-29-1-6-1" cx="164.31" transform="rotate(-47.865)" cy="353.57" r="2.0203"/>
  <use id="use4839-6-9-2-1" xlink:href="#path4819-29-1-6-1" transform="translate(.000010374 -.0000039960)" height="100%" width="100%" y="0" x="0"/>
  <use id="use4841-8-4-7-8" xlink:href="#path4819-29-1-6-1" transform="translate(4.0662 -4.4946)" height="100%" width="100%" y="0" x="0"/>
  <use id="use4843-4-4-4-3" xlink:href="#path4819-29-1-6-1" transform="translate(8.1323 -8.9891)" height="100%" width="100%" y="0" x="0"/>
 </g>
 <g id="layer3" transform="translate(-169.77 -35.378)">
  <g fill="#000086">
   <rect id="rect4136" opacity="0.695" stroke-opacity=".39645" transform="matrix(.70074 -.71342 0 1 0 0)" height="44.466" width="42.268" stroke="#000" y="474.53" x="351.88" stroke-width=".73740" fill="#000086"/>
   <use id="use4240" xlink:href="#rect4136" transform="translate(2.5254 68.856)" height="100%" width="100%" y="0" x="0"/>
   <use id="use4242" xlink:href="#rect4136" transform="translate(2.5254 114.98)" height="100%" width="100%" y="0" x="0"/>
   <use id="use4244" xlink:href="#rect4136" transform="translate(2.5254 161.11)" height="100%" width="100%" y="0" x="0"/>
   <use id="use4246" xlink:href="#rect4136" transform="translate(2.5254 207.24)" height="100%" width="100%" y="0" x="0"/>
   <use id="use4248" xlink:href="#rect4136" transform="translate(30.725 -31.281)" height="100%" width="100%" y="0" x="0"/>
   <use id="use4250" xlink:href="#rect4136" transform="translate(33.25 37.575)" height="100%" width="100%" y="0" x="0"/>
   <use id="use4252" xlink:href="#rect4136" transform="translate(33.25 83.702)" height="100%" width="100%" y="0" x="0"/>
   <use id="use4254" xlink:href="#rect4136" transform="translate(33.25 129.83)" height="100%" width="100%" y="0" x="0"/>
   <use id="use4256" xlink:href="#rect4136" transform="translate(33.25 175.96)" height="100%" width="100%" y="0" x="0"/>
   <use id="use4258" xlink:href="#rect4136" transform="translate(61.449 -62.561)" height="100%" width="100%" y="0" x="0"/>
   <use id="use4260" xlink:href="#rect4136" transform="translate(63.975 6.2942)" height="100%" width="100%" y="0" x="0"/>
   <use id="use4262" xlink:href="#rect4136" transform="translate(63.975 52.421)" height="100%" width="100%" y="0" x="0"/>
   <use id="use4264" xlink:href="#rect4136" transform="translate(63.975 98.549)" height="100%" width="100%" y="0" x="0"/>
   <use id="use4266" xlink:href="#rect4136" transform="translate(63.975 144.68)" height="100%" width="100%" y="0" x="0"/>
   <use id="use4268" xlink:href="#rect4136" transform="translate(92.174 -93.842)" height="100%" width="100%" y="0" x="0"/>
   <use id="use4270" xlink:href="#rect4136" transform="translate(94.699 -24.987)" height="100%" width="100%" y="0" x="0"/>
   <use id="use4272" xlink:href="#rect4136" transform="translate(94.699 21.141)" height="100%" width="100%" y="0" x="0"/>
   <use id="use4274" xlink:href="#rect4136" transform="translate(94.699 67.268)" height="100%" width="100%" y="0" x="0"/>
   <use id="use4276" xlink:href="#rect4136" transform="translate(94.699 113.4)" height="100%" width="100%" y="0" x="0"/>
   <use id="use4278" xlink:href="#rect4136" transform="translate(137.4 -143.12)" height="100%" width="100%" y="0" x="0"/>
   <use id="use4280" xlink:href="#rect4136" transform="translate(139.92 -74.267)" height="100%" width="100%" y="0" x="0"/>
   <use id="use4282" xlink:href="#rect4136" transform="translate(139.92 -28.14)" height="100%" width="100%" y="0" x="0"/>
   <use id="use4284" xlink:href="#rect4136" transform="translate(139.92 17.987)" height="100%" width="100%" y="0" x="0"/>
   <use id="use4286" xlink:href="#rect4136" transform="translate(139.92 64.114)" height="100%" width="100%" y="0" x="0"/>
  </g>
  <ellipse id="path4641-9-6" rx="12.143" ry="11.786" cy="304.53" cx="676.65"/>
  <circle id="path4819-29-1-6-1-2" cx="110.69" transform="rotate(-47.865)" cy="405.47" r="2.0203"/>
  <use id="use4839-6-9-2-1-8" xlink:href="#path4819-29-1-6-1-2" transform="translate(.000011408 -.0000054632)" height="100%" width="100%" y="0" x="0"/>
  <use id="use4841-8-4-7-8-6" xlink:href="#path4819-29-1-6-1-2" transform="translate(4.0662 -4.4946)" height="100%" width="100%" y="0" x="0"/>
  <use id="use4843-4-4-4-3-7" xlink:href="#path4819-29-1-6-1-2" transform="translate(8.1323 -8.9891)" height="100%" width="100%" y="0" x="0"/>
  <circle id="path4819-29-1-6-1-2-2" cx="10.583" transform="rotate(-47.865)" cy="495.08" r="2.0203"/>
  <use id="use4839-6-9-2-1-8-3" xlink:href="#path4819-29-1-6-1-2-2" transform="translate(.000011663 -.000012227)" height="100%" width="100%" y="0" x="0"/>
  <use id="use4841-8-4-7-8-6-6" xlink:href="#path4819-29-1-6-1-2-2" transform="translate(4.0662 -4.4946)" height="100%" width="100%" y="0" x="0"/>
  <use id="use4843-4-4-4-3-7-5" xlink:href="#path4819-29-1-6-1-2-2" transform="translate(8.1323 -8.9891)" height="100%" width="100%" y="0" x="0"/>
  <g font-size="10px" font-family="sans-serif" fill="#000000">
   <text id="text7646" style="word-spacing:0px;letter-spacing:0px" xml:space="preserve" y="52.513214" x="385.3732" line-height="125%"><tspan id="tspan7648" x="385.3732" y="52.513214">2<tspan id="tspan7650" style="baseline-shift:super" font-size="65%">16</tspan>-1</tspan></text>
   <text id="text7646-7" style="word-spacing:0px;letter-spacing:0px" xml:space="preserve" y="82.376411" x="357.88675" line-height="125%"><tspan id="tspan7691" x="357.88675" y="82.376411">2<tspan id="tspan7650-6" style="baseline-shift:super" font-size="65%">16</tspan>-2</tspan></text>
   <text id="text7139-9" style="word-spacing:0px;letter-spacing:0px" xml:space="preserve" y="46.261185" x="457.70844" line-height="125%"><tspan id="tspan7141-4" x="457.70844" y="46.261185">1</tspan></text>
   <text id="text7646-7-5" style="word-spacing:0px;letter-spacing:0px" xml:space="preserve" y="44.192642" x="613.65186" line-height="125%"><tspan id="tspan7691-7" x="613.65186" y="44.192642">2<tspan id="tspan7650-6-1" style="baseline-shift:super" font-size="65%">16</tspan>-2</tspan></text>
   <text id="text7646-3" style="word-spacing:0px;letter-spacing:0px" xml:space="preserve" y="45.606857" x="669.72083" line-height="125%"><tspan id="tspan7648-5" x="669.72083" y="45.606857">2<tspan id="tspan7650-5" style="baseline-shift:super" font-size="65%">16</tspan>-1</tspan></text>
   <text id="text7646-7-2" style="word-spacing:0px;letter-spacing:0px" xml:space="preserve" y="96.518547" x="672.34174" line-height="125%"><tspan id="tspan7691-2" x="672.34174" y="96.518547">2<tspan id="tspan7650-6-8" style="baseline-shift:super" font-size="65%">16</tspan>-2</tspan></text>
  </g>
 </g>
 <g id="layer4" transform="translate(-169.77 -35.378)">
  <ellipse id="path4641" rx="12.143" ry="11.786" cy="478.9" cx="245.58"/>
  <g font-size="40px" font-family="sans-serif" fill="#000000">
   <text id="text4809" style="word-spacing:0px;letter-spacing:0px" xml:space="preserve" y="482.13104" x="203.22963" line-height="125%"><tspan id="tspan4811" style="text-anchor:middle;text-align:center" font-size="20px" y="482.13104" x="203.22963">offset</tspan><tspan id="tspan4813" style="text-anchor:middle;text-align:center" font-size="12.5px" y="499.37567" x="203.22963">(x,y,z)</tspan></text>
   <flowRoot id="flowRoot6885" xml:space="preserve" style="word-spacing:0px;letter-spacing:0px" line-height="125%"><flowRegion id="flowRegion6887"><rect id="rect6889" y="298.79" width="83.843" x="141.93" height="41.921"/></flowRegion><flowPara id="flowPara6891">s</flowPara></flowRoot>
   <text id="text6893" style="word-spacing:0px;letter-spacing:0px" xml:space="preserve" y="350.4072" x="169.40257" line-height="125%"><tspan id="tspan6895" font-size="20px" y="350.4072" x="169.40257">scale.y</tspan></text>
   <text id="text6893-4" style="word-spacing:0px;letter-spacing:0px" xml:space="preserve" y="411.98367" x="594.7309" line-height="125%"><tspan id="tspan6895-3" font-size="20px" y="411.98367" x="594.7309">scale.x</tspan></text>
   <text id="text6893-9" style="word-spacing:0px;letter-spacing:0px" xml:space="preserve" y="502.89743" x="351.28412" line-height="125%"><tspan id="tspan6895-5" font-size="20px" y="502.89743" x="351.28412">scale.z</tspan></text>
  </g>
  <ellipse id="path4641-9" rx="12.143" ry="11.786" cy="223.53" cx="239.41"/>
  <ellipse id="path4641-9-0" rx="12.143" ry="11.786" cy="484.66" cx="511.14"/>
  <g font-size="10px" font-family="sans-serif" fill="#000000">
   <text id="text7139" style="word-spacing:0px;letter-spacing:0px" xml:space="preserve" y="189.27643" x="266.84317" line-height="125%"><tspan id="tspan7141" x="266.84317" y="189.27643">1</tspan></text>
   <text id="text7143" style="word-spacing:0px;letter-spacing:0px" xml:space="preserve" y="161.60486" x="295.92896" line-height="125%"><tspan id="tspan7145" x="295.92896" y="161.60486">2</tspan></text>
   <text id="text7147" style="word-spacing:0px;letter-spacing:0px" xml:space="preserve" y="130.89775" x="326.84314" line-height="125%"><tspan id="tspan7149" x="326.84314" y="130.89775">3</tspan></text>
   <text id="text7151" style="word-spacing:0px;letter-spacing:0px" xml:space="preserve" y="207.53377" x="234.3076" line-height="125%"><tspan id="tspan7153" x="234.3076" y="207.53377">0</tspan></text>
   <text id="text7147-2" style="word-spacing:0px;letter-spacing:0px" xml:space="preserve" y="103.52463" x="355.29272" line-height="125%"><tspan id="tspan7149-4" x="355.29272" y="103.52463">4</tspan></text>
   <text id="text7151-9" style="word-spacing:0px;letter-spacing:0px" xml:space="preserve" y="46.953636" x="417.54495" line-height="125%"><tspan id="tspan7153-2" x="417.54495" y="46.953636">0</tspan></text>
   <text id="text7143-3" style="word-spacing:0px;letter-spacing:0px" xml:space="preserve" y="44.203335" x="505.16269" line-height="125%"><tspan id="tspan7145-1" x="505.16269" y="44.203335">2</tspan></text>
   <text id="text7147-8" style="word-spacing:0px;letter-spacing:0px" xml:space="preserve" y="44.834759" x="549.74707" line-height="125%"><tspan id="tspan7149-0" x="549.74707" y="44.834759">3</tspan></text>
   <text id="text7147-2-8" style="word-spacing:0px;letter-spacing:0px" xml:space="preserve" y="43.420547" x="595.08734" line-height="125%"><tspan id="tspan7149-4-5" x="595.08734" y="43.420547">4</tspan></text>
   <text id="text7151-9-3" style="word-spacing:0px;letter-spacing:0px" xml:space="preserve" y="307.87604" x="694.02368" line-height="125%"><tspan id="tspan7153-2-3" x="694.02368" y="307.87604">0</tspan></text>
   <text id="text7139-8" style="word-spacing:0px;letter-spacing:0px" xml:space="preserve" y="261.22165" x="676.9115" line-height="125%"><tspan id="tspan7141-6" x="676.9115" y="261.22165">1</tspan></text>
   <text id="text7143-2" style="word-spacing:0px;letter-spacing:0px" xml:space="preserve" y="216.03027" x="676.98969" line-height="125%"><tspan id="tspan7145-7" x="676.98969" y="216.03027">2</tspan></text>
   <text id="text7147-1" style="word-spacing:0px;letter-spacing:0px" xml:space="preserve" y="168.57845" x="677.7334" line-height="125%"><tspan id="tspan7149-5" x="677.7334" y="168.57845">3</tspan></text>
   <text id="text7147-2-88" style="word-spacing:0px;letter-spacing:0px" xml:space="preserve" y="126.15204" x="677.11176" line-height="125%"><tspan id="tspan7149-4-7" x="677.11176" y="126.15204">4</tspan></text>
  </g>
 </g>
</svg>
