<svg version="1.1" viewBox="0.0 0.0 960.0 720.0" fill="none" stroke="none" stroke-linecap="square" stroke-miterlimit="10" xmlns:xlink="http://www.w3.org/1999/xlink" xmlns="http://www.w3.org/2000/svg"><clipPath id="p.0"><path d="m0 0l960.0 0l0 720.0l-960.0 0l0 -720.0z" clip-rule="nonzero"/></clipPath><g clip-path="url(#p.0)"><path fill="#000000" fill-opacity="0.0" d="m0 0l960.0 0l0 720.0l-960.0 0z" fill-rule="evenodd"/><path fill="#cccccc" d="m234.51181 88.15748l192.0 0l0 192.0l-192.0 0z" fill-rule="evenodd"/><path stroke="#000000" stroke-width="1.0" stroke-linejoin="round" stroke-linecap="butt" d="m234.51181 88.15748l192.0 0l0 192.0l-192.0 0z" fill-rule="evenodd"/><path fill="#000000" d="m334.69574 185.42123q0 2.953125 -1.015625 4.40625q-1.015625 1.4375 -3.15625 1.4375q-2.125 0 -3.15625 -1.40625q-1.015625 -1.40625 -1.046875 -4.203125l0 -2.25q0 -2.9375 1.0 -4.359375q1.015625 -1.421875 3.1875 -1.421875q2.140625 0 3.140625 1.375q1.015625 1.375 1.046875 4.234375l0 2.1875zm-1.6875 -2.3125q0 -2.140625 -0.609375 -3.109375q-0.59375 -0.984375 -1.890625 -0.984375q-1.296875 0 -1.890625 0.984375q-0.59375 0.96875 -0.609375 2.984375l0 2.703125q0 2.140625 0.625 3.171875q0.625 1.03125 1.890625 1.03125q1.25 0 1.84375 -0.96875q0.609375 -0.96875 0.640625 -3.046875l0 -2.765625z" fill-rule="nonzero"/><path fill="#4a86e8" d="m528.01575 88.15748l96.0 0l0 96.00001l-96.0 0z" fill-rule="evenodd"/><path stroke="#000000" stroke-width="1.0" stroke-linejoin="round" stroke-linecap="butt" d="m528.01575 88.15748l96.0 0l0 96.00001l-96.0 0z" fill-rule="evenodd"/><path fill="#000000" d="m577.4184 143.07748l-1.6875 0l0 -11.234375l-3.40625 1.25l0 -1.53125l4.828125 -1.8125l0.265625 0l0 13.328125z" fill-rule="nonzero"/><path fill="#cc0000" d="m624.01575 88.15748l96.0 0l0 96.00001l-96.0 0z" fill-rule="evenodd"/><path stroke="#000000" stroke-width="1.0" stroke-linejoin="round" stroke-linecap="butt" d="m624.01575 88.15748l96.0 0l0 96.00001l-96.0 0z" fill-rule="evenodd"/><path fill="#000000" d="m670.32465 135.62436l1.265625 0q1.203125 -0.015625 1.875 -0.625q0.6875 -0.609375 0.6875 -1.65625q0 -2.328125 -2.3125 -2.328125q-1.09375 0 -1.75 0.625q-0.65625 0.625 -0.65625 1.65625l-1.6875 0q0 -1.578125 1.15625 -2.625q1.15625 -1.046875 2.9375 -1.046875q1.875 0 2.9375 1.0q1.0625 1.0 1.0625 2.765625q0 0.859375 -0.5625 1.671875q-0.5625 0.8125 -1.515625 1.203125q1.09375 0.359375 1.6875 1.15625q0.59375 0.796875 0.59375 1.953125q0 1.796875 -1.171875 2.84375q-1.15625 1.046875 -3.03125 1.046875q-1.859375 0 -3.03125 -1.015625q-1.171875 -1.015625 -1.171875 -2.671875l1.6875 0q0 1.046875 0.6875 1.6875q0.6875 0.625 1.828125 0.625q1.21875 0 1.859375 -0.640625q0.65625 -0.640625 0.65625 -1.828125q0 -1.15625 -0.71875 -1.78125q-0.703125 -0.625 -2.046875 -0.640625l-1.265625 0l0 -1.375z" fill-rule="nonzero"/><path fill="#ffff00" d="m528.01575 184.15749l96.0 0l0 95.999985l-96.0 0z" fill-rule="evenodd"/><path stroke="#000000" stroke-width="1.0" stroke-linejoin="round" stroke-linecap="butt" d="m528.01575 184.15749l96.0 0l0 95.999985l-96.0 0z" fill-rule="evenodd"/><path fill="#000000" d="m580.19965 233.42123q0 2.953125 -1.015625 4.40625q-1.015625 1.4375 -3.15625 1.4375q-2.125 0 -3.15625 -1.40625q-1.015625 -1.40625 -1.046875 -4.203125l0 -2.25q0 -2.9375 1.0 -4.359375q1.015625 -1.421875 3.1875 -1.421875q2.140625 0 3.140625 1.375q1.015625 1.375 1.046875 4.234375l0 2.1875zm-1.6875 -2.3125q0 -2.140625 -0.609375 -3.109375q-0.59375 -0.984375 -1.890625 -0.984375q-1.296875 0 -1.890625 0.984375q-0.59375 0.96875 -0.609375 2.984375l0 2.703125q0 2.140625 0.625 3.171875q0.625 1.03125 1.890625 1.03125q1.25 0 1.84375 -0.96875q0.609375 -0.96875 0.640625 -3.046875l0 -2.765625z" fill-rule="nonzero"/><path fill="#6aa84f" d="m624.01575 184.15749l96.0 0l0 95.999985l-96.0 0z" fill-rule="evenodd"/><path stroke="#000000" stroke-width="1.0" stroke-linejoin="round" stroke-linecap="butt" d="m624.01575 184.15749l96.0 0l0 95.999985l-96.0 0z" fill-rule="evenodd"/><path fill="#000000" d="m676.57465 239.07748l-8.6875 0l0 -1.21875l4.578125 -5.09375q1.03125 -1.15625 1.40625 -1.875q0.390625 -0.734375 0.390625 -1.5q0 -1.046875 -0.625 -1.703125q-0.625 -0.671875 -1.671875 -0.671875q-1.265625 0 -1.96875 0.71875q-0.6875 0.71875 -0.6875 1.984375l-1.6875 0q0 -1.828125 1.171875 -2.953125q1.1875 -1.140625 3.171875 -1.140625q1.84375 0 2.921875 0.984375q1.078125 0.96875 1.078125 2.578125q0 1.953125 -2.5 4.65625l-3.546875 3.859375l6.65625 0l0 1.375z" fill-rule="nonzero"/><path fill="#cccccc" d="m432.0 402.4529l0 0c0 -4.4183655 3.581787 -8.000153 8.000153 -8.000153l79.999664 0c2.1218262 0 4.1566772 0.842865 5.6569824 2.3432007c1.5003052 1.5003052 2.3432007 3.5351868 2.3432007 5.656952l0 31.999695c0 4.4183655 -3.581787 8.000153 -8.000183 8.000153l-79.999664 0c-4.4183655 0 -8.000153 -3.581787 -8.000153 -8.000153z" fill-rule="evenodd"/><path stroke="#000000" stroke-width="1.0" stroke-linejoin="round" stroke-linecap="butt" d="m432.0 402.4529l0 0c0 -4.4183655 3.581787 -8.000153 8.000153 -8.000153l79.999664 0c2.1218262 0 4.1566772 0.842865 5.6569824 2.3432007c1.5003052 1.5003052 2.3432007 3.5351868 2.3432007 5.656952l0 31.999695c0 4.4183655 -3.581787 8.000153 -8.000183 8.000153l-79.999664 0c-4.4183655 0 -8.000153 -3.581787 -8.000153 -8.000153z" fill-rule="evenodd"/><path fill="#000000" d="m484.18393 419.7165q0 2.953125 -1.015625 4.40625q-1.015625 1.4375 -3.15625 1.4375q-2.125 0 -3.15625 -1.40625q-1.015625 -1.40625 -1.046875 -4.203125l0 -2.25q0 -2.9375 1.0 -4.359375q1.015625 -1.421875 3.1875 -1.421875q2.140625 0 3.140625 1.375q1.015625 1.375 1.046875 4.234375l0 2.1875zm-1.6875 -2.3125q0 -2.140625 -0.609375 -3.109375q-0.59375 -0.984375 -1.890625 -0.984375q-1.296875 0 -1.890625 0.984375q-0.59375 0.96875 -0.609375 2.984375l0 2.703125q0 2.140625 0.625 3.171875q0.625 1.03125 1.890625 1.03125q1.25 0 1.84375 -0.96875q0.609375 -0.96875 0.640625 -3.046875l0 -2.765625z" fill-rule="nonzero"/><path fill="#ffff00" d="m268.45145 537.6918l0 0c0 -4.418396 3.581787 -8.000183 8.000153 -8.000183l79.999695 0c2.1217651 0 4.1566467 0.8428955 5.656952 2.3432007c1.5003357 1.5003052 2.3432007 3.5352173 2.3432007 5.6569824l0 31.999695c0 4.418335 -3.581787 8.000122 -8.000153 8.000122l-79.999695 0c-4.4183655 0 -8.000153 -3.581787 -8.000153 -8.000122z" fill-rule="evenodd"/><path stroke="#000000" stroke-width="1.0" stroke-linejoin="round" stroke-linecap="butt" d="m268.45145 537.6918l0 0c0 -4.418396 3.581787 -8.000183 8.000153 -8.000183l79.999695 0c2.1217651 0 4.1566467 0.8428955 5.656952 2.3432007c1.5003357 1.5003052 2.3432007 3.5352173 2.3432007 5.6569824l0 31.999695c0 4.418335 -3.581787 8.000122 -8.000153 8.000122l-79.999695 0c-4.4183655 0 -8.000153 -3.581787 -8.000153 -8.000122z" fill-rule="evenodd"/><path fill="#000000" d="m320.63535 554.9553q0 2.953125 -1.015625 4.40625q-1.015625 1.4375 -3.15625 1.4375q-2.125 0 -3.15625 -1.40625q-1.015625 -1.40625 -1.046875 -4.203125l0 -2.25q0 -2.9375 1.0 -4.359375q1.015625 -1.421875 3.1875 -1.421875q2.140625 0 3.140625 1.375q1.015625 1.375 1.046875 4.234375l0 2.1875zm-1.6875 -2.3125q0 -2.140625 -0.609375 -3.109375q-0.59375 -0.984375 -1.890625 -0.984375q-1.296875 0 -1.890625 0.984375q-0.59375 0.96875 -0.609375 2.984375l0 2.703125q0 2.140625 0.625 3.171875q0.625 1.03125 1.890625 1.03125q1.25 0 1.84375 -0.96875q0.609375 -0.96875 0.640625 -3.046875l0 -2.765625z" fill-rule="nonzero"/><path fill="#4a86e8" d="m377.48294 537.6918l0 0c0 -4.418396 3.581787 -8.000183 8.000153 -8.000183l79.999695 0c2.1217651 0 4.1566467 0.8428955 5.656952 2.3432007c1.5003357 1.5003052 2.3432007 3.5352173 2.3432007 5.6569824l0 31.999695c0 4.418335 -3.581787 8.000122 -8.000153 8.000122l-79.999695 0c-4.4183655 0 -8.000153 -3.581787 -8.000153 -8.000122z" fill-rule="evenodd"/><path stroke="#000000" stroke-width="1.0" stroke-linejoin="round" stroke-linecap="butt" d="m377.48294 537.6918l0 0c0 -4.418396 3.581787 -8.000183 8.000153 -8.000183l79.999695 0c2.1217651 0 4.1566467 0.8428955 5.656952 2.3432007c1.5003357 1.5003052 2.3432007 3.5352173 2.3432007 5.6569824l0 31.999695c0 4.418335 -3.581787 8.000122 -8.000153 8.000122l-79.999695 0c-4.4183655 0 -8.000153 -3.581787 -8.000153 -8.000122z" fill-rule="evenodd"/><path fill="#000000" d="m426.8856 560.6116l-1.6875 0l0 -11.234375l-3.40625 1.25l0 -1.53125l4.828125 -1.8125l0.265625 0l0 13.328125z" fill-rule="nonzero"/><path fill="#6aa84f" d="m486.51443 537.7994l0 0c0 -4.418396 3.581787 -8.000183 8.000153 -8.000183l79.999695 0c2.1217651 0 4.156616 0.8428955 5.6569824 2.3432007c1.5003052 1.5003052 2.3432007 3.5352173 2.3432007 5.6569824l0 31.999695c0 4.418335 -3.5818481 8.000122 -8.000183 8.000122l-79.999695 0c-4.4183655 0 -8.000153 -3.581787 -8.000153 -8.000122z" fill-rule="evenodd"/><path stroke="#000000" stroke-width="1.0" stroke-linejoin="round" stroke-linecap="butt" d="m486.51443 537.7994l0 0c0 -4.418396 3.581787 -8.000183 8.000153 -8.000183l79.999695 0c2.1217651 0 4.156616 0.8428955 5.6569824 2.3432007c1.5003052 1.5003052 2.3432007 3.5352173 2.3432007 5.6569824l0 31.999695c0 4.418335 -3.5818481 8.000122 -8.000183 8.000122l-79.999695 0c-4.4183655 0 -8.000153 -3.581787 -8.000153 -8.000122z" fill-rule="evenodd"/><path fill="#000000" d="m539.07336 560.71924l-8.6875 0l0 -1.21875l4.578125 -5.09375q1.03125 -1.15625 1.40625 -1.875q0.390625 -0.734375 0.390625 -1.5q0 -1.046875 -0.625 -1.703125q-0.625 -0.671875 -1.671875 -0.671875q-1.265625 0 -1.96875 0.71875q-0.6875 0.71875 -0.6875 1.984375l-1.6875 0q0 -1.828125 1.171875 -2.953125q1.1875 -1.140625 3.171875 -1.140625q1.84375 0 2.921875 0.984375q1.078125 0.96875 1.078125 2.578125q0 1.953125 -2.5 4.65625l-3.546875 3.859375l6.65625 0l0 1.375z" fill-rule="nonzero"/><path fill="#cc0000" d="m595.54596 537.6918l0 0c0 -4.418396 3.581787 -8.000183 8.000122 -8.000183l79.999695 0c2.1217651 0 4.156616 0.8428955 5.6569824 2.3432007c1.5003052 1.5003052 2.3432007 3.5352173 2.3432007 5.6569824l0 31.999695c0 4.418335 -3.5818481 8.000122 -8.000183 8.000122l-79.999695 0c-4.418335 0 -8.000122 -3.581787 -8.000122 -8.000122z" fill-rule="evenodd"/><path stroke="#000000" stroke-width="1.0" stroke-linejoin="round" stroke-linecap="butt" d="m595.54596 537.6918l0 0c0 -4.418396 3.581787 -8.000183 8.000122 -8.000183l79.999695 0c2.1217651 0 4.156616 0.8428955 5.6569824 2.3432007c1.5003052 1.5003052 2.3432007 3.5352173 2.3432007 5.6569824l0 31.999695c0 4.418335 -3.5818481 8.000122 -8.000183 8.000122l-79.999695 0c-4.418335 0 -8.000122 -3.581787 -8.000122 -8.000122z" fill-rule="evenodd"/><path fill="#000000" d="m641.85486 553.15845l1.265625 0q1.203125 -0.015625 1.875 -0.625q0.6875 -0.609375 0.6875 -1.65625q0 -2.328125 -2.3125 -2.328125q-1.09375 0 -1.75 0.625q-0.65625 0.625 -0.65625 1.65625l-1.6875 0q0 -1.578125 1.15625 -2.625q1.15625 -1.046875 2.9375 -1.046875q1.875 0 2.9375 1.0q1.0625 1.0 1.0625 2.765625q0 0.859375 -0.5625 1.671875q-0.5625 0.8125 -1.515625 1.203125q1.09375 0.359375 1.6875 1.15625q0.59375 0.796875 0.59375 1.953125q0 1.796875 -1.171875 2.84375q-1.15625 1.046875 -3.03125 1.046875q-1.859375 0 -3.03125 -1.015625q-1.171875 -1.015625 -1.171875 -2.671875l1.6875 0q0 1.046875 0.6875 1.6875q0.6875 0.625 1.828125 0.625q1.21875 0 1.859375 -0.640625q0.65625 -0.640625 0.65625 -1.828125q0 -1.15625 -0.71875 -1.78125q-0.703125 -0.625 -2.046875 -0.640625l-1.265625 0l0 -1.375z" fill-rule="nonzero"/><path fill="#000000" fill-opacity="0.0" d="m480.0 442.45276l-163.55905 87.24408" fill-rule="evenodd"/><path stroke="#000000" stroke-width="1.0" stroke-linejoin="round" stroke-linecap="butt" d="m480.0 442.45276l-163.55905 87.24408" fill-rule="evenodd"/><path fill="#000000" fill-opacity="0.0" d="m480.0 442.45276l-54.519684 87.24408" fill-rule="evenodd"/><path stroke="#000000" stroke-width="1.0" stroke-linejoin="round" stroke-linecap="butt" d="m480.0 442.45276l-54.519684 87.24408" fill-rule="evenodd"/><path fill="#000000" fill-opacity="0.0" d="m480.0 442.45276l54.519714 87.33856" fill-rule="evenodd"/><path stroke="#000000" stroke-width="1.0" stroke-linejoin="round" stroke-linecap="butt" d="m480.0 442.45276l54.519714 87.33856" fill-rule="evenodd"/><path fill="#000000" fill-opacity="0.0" d="m480.0 442.45276l163.55908 87.24408" fill-rule="evenodd"/><path stroke="#000000" stroke-width="1.0" stroke-linejoin="round" stroke-linecap="butt" d="m480.0 442.45276l163.55908 87.24408" fill-rule="evenodd"/><path fill="#cfe2f3" d="m241.34383 114.9462l0 0c0 -9.497559 7.699295 -17.196854 17.196854 -17.196854l0 0c4.5608826 0 8.934967 1.8118057 12.160004 5.0368423c3.2250366 3.2250366 5.0368347 7.599121 5.0368347 12.160011l0 0c0 9.497559 -7.69928 17.196854 -17.196838 17.196854l0 0c-9.497559 0 -17.196854 -7.699295 -17.196854 -17.196854z" fill-rule="evenodd"/><path stroke="#000000" stroke-width="1.0" stroke-linejoin="round" stroke-linecap="butt" d="m241.34383 114.9462l0 0c0 -9.497559 7.699295 -17.196854 17.196854 -17.196854l0 0c4.5608826 0 8.934967 1.8118057 12.160004 5.0368423c3.2250366 3.2250366 5.0368347 7.599121 5.0368347 12.160011l0 0c0 9.497559 -7.69928 17.196854 -17.196838 17.196854l0 0c-9.497559 0 -17.196854 -7.699295 -17.196854 -17.196854z" fill-rule="evenodd"/><path fill="#cfe2f3" d="m363.73752 260.03018l0 0c0 -5.8185577 4.7168884 -10.535431 10.535461 -10.535431l0 0c2.794159 0 5.473877 1.1099854 7.4496765 3.0857544c1.975769 1.9757843 3.0857544 4.6555176 3.0857544 7.4496765l0 0c0 5.818573 -4.7168884 10.535431 -10.535431 10.535431l0 0c-5.818573 0 -10.535461 -4.716858 -10.535461 -10.535431z" fill-rule="evenodd"/><path stroke="#000000" stroke-width="1.0" stroke-linejoin="round" stroke-linecap="butt" d="m363.73752 260.03018l0 0c0 -5.8185577 4.7168884 -10.535431 10.535461 -10.535431l0 0c2.794159 0 5.473877 1.1099854 7.4496765 3.0857544c1.975769 1.9757843 3.0857544 4.6555176 3.0857544 7.4496765l0 0c0 5.818573 -4.7168884 10.535431 -10.535431 10.535431l0 0c-5.818573 0 -10.535461 -4.716858 -10.535461 -10.535431z" fill-rule="evenodd"/><path fill="#cfe2f3" d="m391.14435 208.73622l0 0c0 -7.879837 6.3878784 -14.267715 14.267731 -14.267715l0 0c3.784027 0 7.413086 1.5032043 10.088806 4.1789093c2.6756897 2.6757202 4.178894 6.304779 4.178894 10.088806l0 0c0 7.879837 -6.3878784 14.267715 -14.2677 14.267715l0 0c-7.8798523 0 -14.267731 -6.3878784 -14.267731 -14.267715z" fill-rule="evenodd"/><path stroke="#000000" stroke-width="1.0" stroke-linejoin="round" stroke-linecap="butt" d="m391.14435 208.73622l0 0c0 -7.879837 6.3878784 -14.267715 14.267731 -14.267715l0 0c3.784027 0 7.413086 1.5032043 10.088806 4.1789093c2.6756897 2.6757202 4.178894 6.304779 4.178894 10.088806l0 0c0 7.879837 -6.3878784 14.267715 -14.2677 14.267715l0 0c-7.8798523 0 -14.267731 -6.3878784 -14.267731 -14.267715z" fill-rule="evenodd"/><path fill="#cfe2f3" d="m534.8478 114.944885l0 0c0 -9.497559 7.69928 -17.196854 17.196838 -17.196854l0 0c4.560913 0 8.934998 1.8118057 12.160034 5.0368423c3.2250366 3.2250366 5.036804 7.599121 5.036804 12.160011l0 0c0 9.497559 -7.69928 17.196854 -17.196838 17.196854l0 0c-9.497559 0 -17.196838 -7.699295 -17.196838 -17.196854z" fill-rule="evenodd"/><path stroke="#000000" stroke-width="1.0" stroke-linejoin="round" stroke-linecap="butt" d="m534.8478 114.944885l0 0c0 -9.497559 7.69928 -17.196854 17.196838 -17.196854l0 0c4.560913 0 8.934998 1.8118057 12.160034 5.0368423c3.2250366 3.2250366 5.036804 7.599121 5.036804 12.160011l0 0c0 9.497559 -7.69928 17.196854 -17.196838 17.196854l0 0c-9.497559 0 -17.196838 -7.699295 -17.196838 -17.196854z" fill-rule="evenodd"/><path fill="#cfe2f3" d="m657.24146 260.02887l0 0c0 -5.8185577 4.716919 -10.535431 10.535461 -10.535431l0 0c2.7941284 0 5.473877 1.1099854 7.449646 3.0857544c1.975769 1.9757843 3.0857544 4.6555176 3.0857544 7.4496765l0 0c0 5.818573 -4.716858 10.535431 -10.5354 10.535431l0 0c-5.8185425 0 -10.535461 -4.716858 -10.535461 -10.535431z" fill-rule="evenodd"/><path stroke="#000000" stroke-width="1.0" stroke-linejoin="round" stroke-linecap="butt" d="m657.24146 260.02887l0 0c0 -5.8185577 4.716919 -10.535431 10.535461 -10.535431l0 0c2.7941284 0 5.473877 1.1099854 7.449646 3.0857544c1.975769 1.9757843 3.0857544 4.6555176 3.0857544 7.4496765l0 0c0 5.818573 -4.716858 10.535431 -10.5354 10.535431l0 0c-5.8185425 0 -10.535461 -4.716858 -10.535461 -10.535431z" fill-rule="evenodd"/><path fill="#cfe2f3" d="m684.6483 208.73491l0 0c0 -7.879837 6.3878784 -14.267715 14.2677 -14.267715l0 0c3.7840576 0 7.413086 1.5032043 10.088806 4.1789093c2.6757202 2.6757202 4.178894 6.304779 4.178894 10.088806l0 0c0 7.879837 -6.3878784 14.267715 -14.2677 14.267715l0 0c-7.879822 0 -14.2677 -6.3878784 -14.2677 -14.267715z" fill-rule="evenodd"/><path stroke="#000000" stroke-width="1.0" stroke-linejoin="round" stroke-linecap="butt" d="m684.6483 208.73491l0 0c0 -7.879837 6.3878784 -14.267715 14.2677 -14.267715l0 0c3.7840576 0 7.413086 1.5032043 10.088806 4.1789093c2.6757202 2.6757202 4.178894 6.304779 4.178894 10.088806l0 0c0 7.879837 -6.3878784 14.267715 -14.2677 14.267715l0 0c-7.879822 0 -14.2677 -6.3878784 -14.2677 -14.267715z" fill-rule="evenodd"/><path fill="#000000" fill-opacity="0.0" d="m310.96063 33.53281l96.0 0l0 42.204723l-96.0 0z" fill-rule="evenodd"/><path fill="#000000" d="m331.73282 55.695797l-5.578125 0l0 5.859375l-1.734375 0l0 -13.265625l8.203125 0l0 1.4375l-6.46875 0l0 4.546875l5.578125 0l0 1.421875zm6.6205444 6.046875q-2.0 0 -3.265625 -1.3125q-1.25 -1.328125 -1.25 -3.53125l0 -0.3125q0 -1.46875 0.5625 -2.609375q0.5625 -1.15625 1.5625 -1.796875q1.015625 -0.65625 2.1875 -0.65625q1.921875 0 2.984375 1.265625q1.0625 1.265625 1.0625 3.625l0 0.6875l-6.671875 0q0.03125 1.46875 0.84375 2.375q0.828125 0.890625 2.078125 0.890625q0.890625 0 1.515625 -0.359375q0.625 -0.375 1.078125 -0.96875l1.03125 0.796875q-1.234375 1.90625 -3.71875 1.90625zm-0.203125 -8.84375q-1.015625 0 -1.71875 0.75q-0.6875 0.734375 -0.84375 2.078125l4.9375 0l0 -0.125q-0.078125 -1.28125 -0.703125 -1.984375q-0.609375 -0.71875 -1.671875 -0.71875zm12.086945 8.65625q-0.140625 -0.296875 -0.234375 -1.03125q-1.171875 1.21875 -2.8125 1.21875q-1.453125 0 -2.390625 -0.828125q-0.921875 -0.828125 -0.921875 -2.09375q0 -1.53125 1.15625 -2.375q1.171875 -0.859375 3.296875 -0.859375l1.640625 0l0 -0.78125q0 -0.890625 -0.53125 -1.40625q-0.515625 -0.53125 -1.546875 -0.53125q-0.90625 0 -1.515625 0.46875q-0.609375 0.453125 -0.609375 1.09375l-1.703125 0q0 -0.734375 0.515625 -1.421875q0.53125 -0.6875 1.421875 -1.078125q0.90625 -0.40625 1.984375 -0.40625q1.703125 0 2.671875 0.859375q0.96875 0.84375 1.0 2.328125l0 4.53125q0 1.359375 0.34375 2.171875l0 0.140625l-1.765625 0zm-2.796875 -1.28125q0.796875 0 1.5 -0.40625q0.71875 -0.421875 1.03125 -1.078125l0 -2.015625l-1.3125 0q-3.109375 0 -3.109375 1.8125q0 0.796875 0.53125 1.25q0.53125 0.4375 1.359375 0.4375zm9.14798 -10.96875l0 2.390625l1.84375 0l0 1.3125l-1.84375 0l0 6.109375q0 0.59375 0.234375 0.890625q0.25 0.296875 0.84375 0.296875q0.296875 0 0.8125 -0.109375l0 1.359375q-0.671875 0.1875 -1.296875 0.1875q-1.125 0 -1.703125 -0.6875q-0.578125 -0.6875 -0.578125 -1.9375l0 -6.109375l-1.796875 0l0 -1.3125l1.796875 0l0 -2.390625l1.6875 0zm9.891113 11.28125q-0.984375 1.15625 -2.890625 1.15625q-1.578125 0 -2.40625 -0.921875q-0.8125 -0.921875 -0.828125 -2.703125l0 -6.421875l1.6875 0l0 6.375q0 2.234375 1.828125 2.234375q1.921875 0 2.5625 -1.4375l0 -7.171875l1.6875 0l0 9.859375l-1.609375 0l-0.03125 -0.96875zm8.972137 -7.375q-0.390625 -0.0625 -0.84375 -0.0625q-1.65625 0 -2.25 1.40625l0 7.0l-1.671875 0l0 -9.859375l1.640625 0l0.015625 1.140625q0.828125 -1.3125 2.359375 -1.3125q0.484375 0 0.75 0.125l0 1.5625zm5.4522095 8.53125q-2.0 0 -3.265625 -1.3125q-1.25 -1.328125 -1.25 -3.53125l0 -0.3125q0 -1.46875 0.5625 -2.609375q0.5625 -1.15625 1.5625 -1.796875q1.015625 -0.65625 2.1875 -0.65625q1.921875 0 2.984375 1.265625q1.0625 1.265625 1.0625 3.625l0 0.6875l-6.671875 0q0.03125 1.46875 0.84375 2.375q0.828125 0.890625 2.078125 0.890625q0.890625 0 1.515625 -0.359375q0.625 -0.375 1.078125 -0.96875l1.03125 0.796875q-1.234375 1.90625 -3.71875 1.90625zm-0.203125 -8.84375q-1.015625 0 -1.71875 0.75q-0.6875 0.734375 -0.84375 2.078125l4.9375 0l0 -0.125q-0.078125 -1.28125 -0.703125 -1.984375q-0.609375 -0.71875 -1.671875 -0.71875zm11.743164 6.046875q0 -0.6875 -0.515625 -1.0625q-0.515625 -0.375 -1.796875 -0.640625q-1.28125 -0.28125 -2.03125 -0.65625q-0.75 -0.390625 -1.109375 -0.921875q-0.359375 -0.53125 -0.359375 -1.265625q0 -1.203125 1.015625 -2.03125q1.03125 -0.84375 2.625 -0.84375q1.671875 0 2.71875 0.859375q1.046875 0.859375 1.046875 2.21875l-1.6875 0q0 -0.703125 -0.59375 -1.203125q-0.59375 -0.5 -1.484375 -0.5q-0.921875 0 -1.4375 0.40625q-0.515625 0.390625 -0.515625 1.046875q0 0.609375 0.484375 0.921875q0.484375 0.3125 1.734375 0.59375q1.265625 0.28125 2.046875 0.671875q0.78125 0.390625 1.15625 0.9375q0.390625 0.546875 0.390625 1.34375q0 1.328125 -1.0625 2.125q-1.046875 0.796875 -2.734375 0.796875q-1.1875 0 -2.109375 -0.421875q-0.90625 -0.421875 -1.421875 -1.171875q-0.515625 -0.75 -0.515625 -1.625l1.6875 0q0.046875 0.84375 0.671875 1.34375q0.640625 0.5 1.6875 0.5q0.953125 0 1.53125 -0.390625q0.578125 -0.390625 0.578125 -1.03125z" fill-rule="nonzero"/><path fill="#000000" fill-opacity="0.0" d="m258.67715 98.666664c4.1285706 0 1.7217102 -11.007874 8.257141 -22.015747c6.535431 -11.007874 22.013153 -22.015747 44.026337 -22.015747" fill-rule="evenodd"/><path stroke="#000000" stroke-width="1.0" stroke-linejoin="round" stroke-linecap="butt" d="m258.67715 98.666664c4.1285706 0 1.7217102 -11.007874 8.257141 -22.015747c3.2677307 -5.503937 8.770996 -11.007874 16.209015 -15.135826c3.7190247 -2.0639763 7.921692 -3.7839546 12.570465 -4.9879417c2.3243713 -0.60199356 4.760254 -1.0749893 7.3029785 -1.3974838c1.2713318 -0.16124725 2.569397 -0.28487015 3.8935852 -0.36818314c0.16549683 -0.010414124 0.33145142 -0.020198822 0.49777222 -0.029346466l0.12661743 -0.006465912" fill-rule="evenodd"/><path fill="#000000" stroke="#000000" stroke-width="1.0" stroke-linecap="butt" d="m307.53473 54.72567l-1.0944824 1.1538887l3.0589905 -1.2057838l-3.1183777 -1.0425987z" fill-rule="evenodd"/><path fill="#000000" fill-opacity="0.0" d="m576.01575 88.15748c0 -16.755905 90.031494 -33.51181 180.06299 -33.51181" fill-rule="evenodd"/><path stroke="#000000" stroke-width="1.0" stroke-linejoin="round" stroke-linecap="butt" d="m576.01575 88.15748c0 -8.377953 22.507874 -16.755905 56.269714 -23.039368c16.88086 -3.1417313 36.575256 -5.759842 57.67639 -7.5925217c10.550598 -0.91633606 21.45282 -1.6363182 32.530945 -2.1272125c5.5390015 -0.24544907 11.122009 -0.43362427 16.72699 -0.56044006c2.8025513 -0.0634079 5.6105347 -0.1114769 8.421204 -0.14369202c1.4054565 -0.016105652 2.8114624 -0.028247833 4.2178345 -0.03636551l0.7928467 -0.0034370422" fill-rule="evenodd"/><path fill="#000000" stroke="#000000" stroke-width="1.0" stroke-linecap="butt" d="m752.6517 54.65444l-1.1217041 1.1274567l3.086853 -1.1324883l-3.0925903 -1.1166725z" fill-rule="evenodd"/><path fill="#000000" fill-opacity="0.0" d="m756.07086 37.43832l147.65356 0l0 34.393703l-147.65356 0z" fill-rule="evenodd"/><path fill="#000000" d="m779.36334 58.08642l-5.546875 0l-1.25 3.46875l-1.8125 0l5.0625 -13.265625l1.53125 0l5.078125 13.265625l-1.796875 0l-1.265625 -3.46875zm-5.03125 -1.4375l4.515625 0l-2.265625 -6.203125l-2.25 6.203125zm12.417725 2.625l2.4375 -7.578125l1.71875 0l-3.53125 9.859375l-1.28125 0l-3.578125 -9.859375l1.71875 0l2.515625 7.578125zm11.728027 2.28125q-0.140625 -0.296875 -0.234375 -1.03125q-1.171875 1.21875 -2.8125 1.21875q-1.453125 0 -2.390625 -0.828125q-0.921875 -0.828125 -0.921875 -2.09375q0 -1.53125 1.15625 -2.375q1.171875 -0.859375 3.296875 -0.859375l1.640625 0l0 -0.78125q0 -0.890625 -0.53125 -1.40625q-0.515625 -0.53125 -1.546875 -0.53125q-0.90625 0 -1.515625 0.46875q-0.609375 0.453125 -0.609375 1.09375l-1.703125 0q0 -0.734375 0.515625 -1.421875q0.53125 -0.6875 1.421875 -1.078125q0.90625 -0.40625 1.984375 -0.40625q1.703125 0 2.671875 0.859375q0.96875 0.84375 1.0 2.328125l0 4.53125q0 1.359375 0.34375 2.171875l0 0.140625l-1.765625 0zm-2.796875 -1.28125q0.796875 0 1.5 -0.40625q0.71875 -0.421875 1.03125 -1.078125l0 -2.015625l-1.3125 0q-3.109375 0 -3.109375 1.8125q0 0.796875 0.53125 1.25q0.53125 0.4375 1.359375 0.4375zm8.694824 1.28125l-1.6875 0l0 -9.859375l1.6875 0l0 9.859375zm-1.828125 -12.46875q0 -0.40625 0.25 -0.6875q0.25 -0.296875 0.734375 -0.296875q0.5 0 0.75 0.296875q0.265625 0.28125 0.265625 0.6875q0 0.40625 -0.265625 0.6875q-0.25 0.265625 -0.75 0.265625q-0.484375 0 -0.734375 -0.265625q-0.25 -0.28125 -0.25 -0.6875zm6.35553 12.46875l-1.6875 0l0 -14.0l1.6875 0l0 14.0zm8.777466 0q-0.140625 -0.296875 -0.234375 -1.03125q-1.171875 1.21875 -2.8125 1.21875q-1.453125 0 -2.390625 -0.828125q-0.921875 -0.828125 -0.921875 -2.09375q0 -1.53125 1.15625 -2.375q1.171875 -0.859375 3.296875 -0.859375l1.640625 0l0 -0.78125q0 -0.890625 -0.53125 -1.40625q-0.515625 -0.53125 -1.546875 -0.53125q-0.90625 0 -1.515625 0.46875q-0.609375 0.453125 -0.609375 1.09375l-1.703125 0q0 -0.734375 0.515625 -1.421875q0.53125 -0.6875 1.421875 -1.078125q0.90625 -0.40625 1.984375 -0.40625q1.703125 0 2.671875 0.859375q0.96875 0.84375 1.0 2.328125l0 4.53125q0 1.359375 0.34375 2.171875l0 0.140625l-1.765625 0zm-2.796875 -1.28125q0.796875 0 1.5 -0.40625q0.71875 -0.421875 1.03125 -1.078125l0 -2.015625l-1.3125 0q-3.109375 0 -3.109375 1.8125q0 0.796875 0.53125 1.25q0.53125 0.4375 1.359375 0.4375zm15.210449 -3.53125q0 2.25 -1.046875 3.625q-1.03125 1.375 -2.78125 1.375q-1.875 0 -2.890625 -1.328125l-0.078125 1.140625l-1.546875 0l0 -14.0l1.671875 0l0 5.234375q1.03125 -1.265625 2.8125 -1.265625q1.796875 0 2.828125 1.359375q1.03125 1.34375 1.03125 3.703125l0 0.15625zm-1.6875 -0.203125q0 -1.71875 -0.671875 -2.65625q-0.65625 -0.9375 -1.90625 -0.9375q-1.671875 0 -2.40625 1.546875l0 4.265625q0.78125 1.546875 2.421875 1.546875q1.21875 0 1.890625 -0.9375q0.671875 -0.9375 0.671875 -2.828125zm5.638672 5.015625l-1.6875 0l0 -14.0l1.6875 0l0 14.0zm6.777466 0.1875q-2.0 0 -3.265625 -1.3125q-1.25 -1.328125 -1.25 -3.53125l0 -0.3125q0 -1.46875 0.5625 -2.609375q0.5625 -1.15625 1.5625 -1.796875q1.015625 -0.65625 2.1875 -0.65625q1.921875 0 2.984375 1.265625q1.0625 1.265625 1.0625 3.625l0 0.6875l-6.671875 0q0.03125 1.46875 0.84375 2.375q0.828125 0.890625 2.078125 0.890625q0.890625 0 1.515625 -0.359375q0.625 -0.375 1.078125 -0.96875l1.03125 0.796875q-1.234375 1.90625 -3.71875 1.90625zm-0.203125 -8.84375q-1.015625 0 -1.71875 0.75q-0.6875 0.734375 -0.84375 2.078125l4.9375 0l0 -0.125q-0.078125 -1.28125 -0.703125 -1.984375q-0.609375 -0.71875 -1.671875 -0.71875zm19.68457 -3.171875l-4.265625 0l0 11.828125l-1.734375 0l0 -11.828125l-4.25 0l0 -1.4375l10.25 0l0 1.4375zm3.538086 11.828125l-1.6875 0l0 -9.859375l1.6875 0l0 9.859375zm-1.828125 -12.46875q0 -0.40625 0.25 -0.6875q0.25 -0.296875 0.734375 -0.296875q0.5 0 0.75 0.296875q0.265625 0.28125 0.265625 0.6875q0 0.40625 -0.265625 0.6875q-0.25 0.265625 -0.75 0.265625q-0.484375 0 -0.734375 -0.265625q-0.25 -0.28125 -0.25 -0.6875zm6.35553 12.46875l-1.6875 0l0 -14.0l1.6875 0l0 14.0zm6.777405 0.1875q-2.0 0 -3.265625 -1.3125q-1.25 -1.328125 -1.25 -3.53125l0 -0.3125q0 -1.46875 0.5625 -2.609375q0.5625 -1.15625 1.5625 -1.796875q1.015625 -0.65625 2.1875 -0.65625q1.921875 0 2.984375 1.265625q1.0625 1.265625 1.0625 3.625l0 0.6875l-6.671875 0q0.03125 1.46875 0.84375 2.375q0.828125 0.890625 2.078125 0.890625q0.890625 0 1.515625 -0.359375q0.625 -0.375 1.078125 -0.96875l1.03125 0.796875q-1.234375 1.90625 -3.71875 1.90625zm-0.203125 -8.84375q-1.015625 0 -1.71875 0.75q-0.6875 0.734375 -0.84375 2.078125l4.9375 0l0 -0.125q-0.078125 -1.28125 -0.703125 -1.984375q-0.609375 -0.71875 -1.671875 -0.71875zm11.743225 6.046875q0 -0.6875 -0.515625 -1.0625q-0.515625 -0.375 -1.796875 -0.640625q-1.28125 -0.28125 -2.03125 -0.65625q-0.75 -0.390625 -1.109375 -0.921875q-0.359375 -0.53125 -0.359375 -1.265625q0 -1.203125 1.015625 -2.03125q1.03125 -0.84375 2.625 -0.84375q1.671875 0 2.71875 0.859375q1.046875 0.859375 1.046875 2.21875l-1.6875 0q0 -0.703125 -0.59375 -1.203125q-0.59375 -0.5 -1.484375 -0.5q-0.921875 0 -1.4375 0.40625q-0.515625 0.390625 -0.515625 1.046875q0 0.609375 0.484375 0.921875q0.484375 0.3125 1.734375 0.59375q1.265625 0.28125 2.046875 0.671875q0.78125 0.390625 1.15625 0.9375q0.390625 0.546875 0.390625 1.34375q0 1.328125 -1.0625 2.125q-1.046875 0.796875 -2.734375 0.796875q-1.1875 0 -2.109375 -0.421875q-0.90625 -0.421875 -1.421875 -1.171875q-0.515625 -0.75 -0.515625 -1.625l1.6875 0q0.046875 0.84375 0.671875 1.34375q0.640625 0.5 1.6875 0.5q0.953125 0 1.53125 -0.390625q0.578125 -0.390625 0.578125 -1.03125z" fill-rule="nonzero"/><path fill="#000000" fill-opacity="0.0" d="m720.01575 232.15749c54.944885 0 109.88977 -80.157486 109.88977 -160.31497" fill-rule="evenodd"/><path stroke="#000000" stroke-width="1.0" stroke-linejoin="round" stroke-linecap="butt" d="m720.01575 232.15749c27.472412 0 54.944885 -20.039383 75.549194 -50.098434c10.302185 -15.029526 18.88733 -32.56398 24.896912 -51.350876c3.0048218 -9.393463 5.3657227 -19.100029 6.975403 -28.963158c0.8048706 -4.9315643 1.421936 -9.902275 1.8377686 -14.89254c0.20788574 -2.49514 0.36553955 -4.995163 0.4711914 -7.4976425c0.052856445 -1.251236 0.09259033 -2.5030823 0.119262695 -3.7552414l0.006164551 -0.33015442" fill-rule="evenodd"/><path fill="#000000" stroke="#000000" stroke-width="1.0" stroke-linecap="butt" d="m829.87164 75.26944l1.1134033 1.1356506l-1.0939941 -3.1007385l-1.1550903 3.0784988z" fill-rule="evenodd"/><path fill="#000000" fill-opacity="0.0" d="m264.937 292.5748l131.1496 0l0 28.53543l-131.1496 0z" fill-rule="evenodd"/><path fill="#000000" d="m304.6948 312.325l6.28125 0l0 1.4375l-8.03125 0l0 -13.265625l1.75 0l0 11.828125zm12.101166 1.625q-2.0 0 -3.265625 -1.3125q-1.25 -1.328125 -1.25 -3.53125l0 -0.3125q0 -1.46875 0.5625 -2.609375q0.5625 -1.15625 1.5625 -1.796875q1.015625 -0.65625 2.1875 -0.65625q1.921875 0 2.984375 1.265625q1.0625 1.265625 1.0625 3.625l0 0.6875l-6.671875 0q0.03125 1.46875 0.84375 2.375q0.828125 0.890625 2.078125 0.890625q0.890625 0 1.515625 -0.359375q0.625 -0.375 1.078125 -0.96875l1.03125 0.796875q-1.234375 1.90625 -3.71875 1.90625zm-0.203125 -8.84375q-1.015625 0 -1.71875 0.75q-0.6875 0.734375 -0.84375 2.078125l4.9375 0l0 -0.125q-0.078125 -1.28125 -0.703125 -1.984375q-0.609375 -0.71875 -1.671875 -0.71875zm9.14032 6.375l2.4375 -7.578125l1.71875 0l-3.53125 9.859375l-1.28125 0l-3.578125 -9.859375l1.71875 0l2.515625 7.578125zm9.746246 2.46875q-2.0 0 -3.265625 -1.3125q-1.25 -1.328125 -1.25 -3.53125l0 -0.3125q0 -1.46875 0.5625 -2.609375q0.5625 -1.15625 1.5625 -1.796875q1.015625 -0.65625 2.1875 -0.65625q1.921875 0 2.984375 1.265625q1.0625 1.265625 1.0625 3.625l0 0.6875l-6.671875 0q0.03125 1.46875 0.84375 2.375q0.828125 0.890625 2.078125 0.890625q0.890625 0 1.515625 -0.359375q0.625 -0.375 1.078125 -0.96875l1.03125 0.796875q-1.234375 1.90625 -3.71875 1.90625zm-0.203125 -8.84375q-1.015625 0 -1.71875 0.75q-0.6875 0.734375 -0.84375 2.078125l4.9375 0l0 -0.125q-0.078125 -1.28125 -0.703125 -1.984375q-0.609375 -0.71875 -1.671875 -0.71875zm7.8369446 8.65625l-1.6875 0l0 -14.0l1.6875 0l0 14.0zm15.458435 -5.65625q0 2.953125 -1.015625 4.40625q-1.015625 1.4375 -3.15625 1.4375q-2.125 0 -3.15625 -1.40625q-1.015625 -1.40625 -1.046875 -4.203125l0 -2.25q0 -2.9375 1.0 -4.359375q1.015625 -1.421875 3.1875 -1.421875q2.140625 0 3.140625 1.375q1.015625 1.375 1.046875 4.234375l0 2.1875zm-1.6875 -2.3125q0 -2.140625 -0.609375 -3.109375q-0.59375 -0.984375 -1.890625 -0.984375q-1.296875 0 -1.890625 0.984375q-0.59375 0.96875 -0.609375 2.984375l0 2.703125q0 2.140625 0.625 3.171875q0.625 1.03125 1.890625 1.03125q1.25 0 1.84375 -0.96875q0.609375 -0.96875 0.640625 -3.046875l0 -2.765625z" fill-rule="nonzero"/><path fill="#000000" fill-opacity="0.0" d="m558.4409 294.38452l131.14966 0l0 28.53543l-131.14966 0z" fill-rule="evenodd"/><path fill="#000000" d="m598.1987 314.13474l6.28125 0l0 1.4375l-8.03125 0l0 -13.265625l1.75 0l0 11.828125zm12.101196 1.625q-2.0 0 -3.265625 -1.3125q-1.25 -1.328125 -1.25 -3.53125l0 -0.3125q0 -1.46875 0.5625 -2.609375q0.5625 -1.15625 1.5625 -1.796875q1.015625 -0.65625 2.1875 -0.65625q1.921875 0 2.984375 1.265625q1.0625 1.265625 1.0625 3.625l0 0.6875l-6.671875 0q0.03125 1.46875 0.84375 2.375q0.828125 0.890625 2.078125 0.890625q0.890625 0 1.515625 -0.359375q0.625 -0.375 1.078125 -0.96875l1.03125 0.796875q-1.234375 1.90625 -3.71875 1.90625zm-0.203125 -8.84375q-1.015625 0 -1.71875 0.75q-0.6875 0.734375 -0.84375 2.078125l4.9375 0l0 -0.125q-0.078125 -1.28125 -0.703125 -1.984375q-0.609375 -0.71875 -1.671875 -0.71875zm9.14032 6.375l2.4375 -7.578125l1.718689 0l-3.531189 9.859375l-1.28125 0l-3.578125 -9.859375l1.71875 0l2.515625 7.578125zm9.746216 2.46875q-2.0 0 -3.265625 -1.3125q-1.25 -1.328125 -1.25 -3.53125l0 -0.3125q0 -1.46875 0.5625 -2.609375q0.5625 -1.15625 1.5625 -1.796875q1.015625 -0.65625 2.1875 -0.65625q1.921875 0 2.984375 1.265625q1.0625 1.265625 1.0625 3.625l0 0.6875l-6.671875 0q0.03125 1.46875 0.84375 2.375q0.828125 0.890625 2.078125 0.890625q0.890625 0 1.515625 -0.359375q0.625 -0.375 1.078125 -0.96875l1.03125 0.796875q-1.234375 1.90625 -3.71875 1.90625zm-0.203125 -8.84375q-1.015625 0 -1.71875 0.75q-0.6875 0.734375 -0.84375 2.078125l4.9375 0l0 -0.125q-0.078125 -1.28125 -0.703125 -1.984375q-0.609375 -0.71875 -1.671875 -0.71875zm7.836914 8.65625l-1.6875 0l0 -14.0l1.6875 0l0 14.0zm12.677185 0l-1.6875 0l0 -11.234375l-3.40625 1.25l0 -1.53125l4.828125 -1.8125l0.265625 0l0 13.328125z" fill-rule="nonzero"/><path fill="#000000" fill-opacity="0.0" d="m406.17584 340.70602l147.65356 0l0 41.19687l-147.65356 0z" fill-rule="evenodd"/><path fill="#000000" d="m445.96747 362.23508q-2.90625 -0.828125 -4.21875 -2.03125q-1.3125 -1.21875 -1.3125 -3.0q0 -2.015625 1.609375 -3.328125q1.609375 -1.328125 4.1875 -1.328125q1.75 0 3.125 0.6875q1.390625 0.671875 2.140625 1.875q0.75 1.1875 0.75 2.609375l-2.25 0q0 -1.546875 -0.984375 -2.4375q-0.984375 -0.890625 -2.78125 -0.890625q-1.671875 0 -2.609375 0.734375q-0.921875 0.734375 -0.921875 2.03125q0 1.046875 0.875 1.765625q0.890625 0.71875 3.015625 1.328125q2.140625 0.59375 3.328125 1.3125q1.203125 0.71875 1.78125 1.6875q0.59375 0.953125 0.59375 2.25q0 2.078125 -1.625 3.328125q-1.609375 1.25 -4.328125 1.25q-1.75 0 -3.28125 -0.671875q-1.515625 -0.671875 -2.34375 -1.84375q-0.828125 -1.171875 -0.828125 -2.671875l2.265625 0q0 1.546875 1.140625 2.453125q1.140625 0.890625 3.046875 0.890625q1.78125 0 2.734375 -0.71875q0.953125 -0.734375 0.953125 -1.984375q0 -1.25 -0.890625 -1.9375q-0.875 -0.6875 -3.171875 -1.359375zm16.691406 6.359375q-1.265625 1.484375 -3.71875 1.484375q-2.015625 0 -3.078125 -1.171875q-1.0625 -1.1875 -1.078125 -3.5l0 -8.25l2.171875 0l0 8.203125q0 2.875 2.34375 2.875q2.484375 0 3.296875 -1.84375l0 -9.234375l2.171875 0l0 12.6875l-2.0625 0l-0.046875 -1.25zm16.136719 -4.953125q0 2.90625 -1.34375 4.671875q-1.328125 1.765625 -3.578125 1.765625q-2.40625 0 -3.71875 -1.703125l-0.09375 1.46875l-2.0 0l0 -18.0l2.171875 0l0 6.71875q1.3125 -1.640625 3.609375 -1.640625q2.3125 0 3.625 1.75q1.328125 1.75 1.328125 4.78125l0 0.1875zm-2.171875 -0.25q0 -2.203125 -0.859375 -3.40625q-0.84375 -1.21875 -2.453125 -1.21875q-2.140625 0 -3.078125 2.0l0 5.484375q1.0 1.984375 3.109375 1.984375q1.546875 0 2.40625 -1.203125q0.875 -1.203125 0.875 -3.640625zm7.8398438 -9.296875l0 3.0625l2.375 0l0 1.6875l-2.375 0l0 7.859375q0 0.765625 0.3125 1.140625q0.328125 0.375 1.09375 0.375q0.375 0 1.03125 -0.140625l0 1.765625q-0.859375 0.234375 -1.671875 0.234375q-1.453125 0 -2.1875 -0.875q-0.734375 -0.890625 -0.734375 -2.5l0 -7.859375l-2.3125 0l0 -1.6875l2.3125 0l0 -3.0625l2.15625 0zm11.027344 5.015625q-0.484375 -0.078125 -1.0625 -0.078125q-2.125 0 -2.890625 1.8125l0 9.0l-2.171875 0l0 -12.6875l2.109375 0l0.03125 1.46875q1.078125 -1.703125 3.03125 -1.703125q0.625 0 0.953125 0.171875l0 2.015625zm7.0390625 10.96875q-2.578125 0 -4.203125 -1.6875q-1.609375 -1.703125 -1.609375 -4.53125l0 -0.40625q0 -1.890625 0.71875 -3.359375q0.71875 -1.484375 2.015625 -2.328125q1.296875 -0.84375 2.8125 -0.84375q2.46875 0 3.828125 1.640625q1.375 1.625 1.375 4.65625l0 0.90625l-8.578125 0q0.046875 1.875 1.09375 3.03125q1.046875 1.15625 2.65625 1.15625q1.15625 0 1.953125 -0.46875q0.796875 -0.46875 1.390625 -1.25l1.328125 1.03125q-1.59375 2.453125 -4.78125 2.453125zm-0.265625 -11.375q-1.3125 0 -2.203125 0.96875q-0.890625 0.953125 -1.109375 2.671875l6.359375 0l0 -0.171875q-0.09375 -1.640625 -0.890625 -2.546875q-0.796875 -0.921875 -2.15625 -0.921875zm12.980469 11.375q-2.578125 0 -4.203125 -1.6875q-1.609375 -1.703125 -1.609375 -4.53125l0 -0.40625q0 -1.890625 0.71875 -3.359375q0.71875 -1.484375 2.015625 -2.328125q1.296875 -0.84375 2.8125 -0.84375q2.46875 0 3.828125 1.640625q1.375 1.625 1.375 4.65625l0 0.90625l-8.578125 0q0.046875 1.875 1.09375 3.03125q1.046875 1.15625 2.65625 1.15625q1.15625 0 1.953125 -0.46875q0.796875 -0.46875 1.390625 -1.25l1.328125 1.03125q-1.59375 2.453125 -4.78125 2.453125zm-0.265625 -11.375q-1.3125 0 -2.203125 0.96875q-0.890625 0.953125 -1.109375 2.671875l6.359375 0l0 -0.171875q-0.09375 -1.640625 -0.890625 -2.546875q-0.796875 -0.921875 -2.15625 -0.921875z" fill-rule="nonzero"/><path shape-rendering="crispEdges" fill="#cccccc" d="m379.31104 657.3202l40.275574 0l0 41.1969l-40.275574 0l0 -41.1969z" fill-rule="nonzero"/><path shape-rendering="crispEdges" fill="#ffff00" d="m419.5866 657.3202l40.275604 0l0 41.1969l-40.275604 0l0 -41.1969z" fill-rule="nonzero"/><path shape-rendering="crispEdges" fill="#4a86e8" d="m459.8622 657.3202l40.275574 0l0 41.1969l-40.275574 0l0 -41.1969z" fill-rule="nonzero"/><path shape-rendering="crispEdges" fill="#6aa84f" d="m500.1378 657.3202l40.275604 0l0 41.1969l-40.275604 0l0 -41.1969z" fill-rule="nonzero"/><path shape-rendering="crispEdges" fill="#cc0000" d="m540.4134 657.3202l40.275574 0l0 41.1969l-40.275574 0l0 -41.1969z" fill-rule="nonzero"/><path stroke="#9e9e9e" stroke-width="1.0" stroke-linecap="butt" d="m379.31104 656.82153l0 42.194214" fill-rule="nonzero"/><path stroke="#9e9e9e" stroke-width="1.0" stroke-linecap="butt" d="m419.5866 656.82153l0 42.194214" fill-rule="nonzero"/><path stroke="#9e9e9e" stroke-width="1.0" stroke-linecap="butt" d="m459.8622 656.82153l0 42.194214" fill-rule="nonzero"/><path stroke="#9e9e9e" stroke-width="1.0" stroke-linecap="butt" d="m500.1378 656.82153l0 42.194214" fill-rule="nonzero"/><path stroke="#9e9e9e" stroke-width="1.0" stroke-linecap="butt" d="m540.4134 656.82153l0 42.194214" fill-rule="nonzero"/><path stroke="#9e9e9e" stroke-width="1.0" stroke-linecap="butt" d="m580.68896 656.82153l0 42.194214" fill-rule="nonzero"/><path stroke="#9e9e9e" stroke-width="1.0" stroke-linecap="butt" d="m378.81235 657.3202l202.37534 0" fill-rule="nonzero"/><path stroke="#9e9e9e" stroke-width="1.0" stroke-linecap="butt" d="m378.81235 698.5171l202.37534 0" fill-rule="nonzero"/><path fill="#000000" d="m401.21408 684.8386l-1.640625 0l0 -10.453125q-0.59375 0.5625 -1.5625 1.140625q-0.953125 0.5625 -1.71875 0.84375l0 -1.59375q1.375 -0.640625 2.40625 -1.5625q1.03125 -0.921875 1.453125 -1.78125l1.0625 0l0 13.40625z" fill-rule="nonzero"/><path fill="#000000" d="m435.3178 678.2449q0 -2.359375 0.484375 -3.796875q0.484375 -1.453125 1.4375 -2.234375q0.96875 -0.78125 2.421875 -0.78125q1.078125 0 1.890625 0.4375q0.8125 0.421875 1.328125 1.25q0.53125 0.8125 0.828125 1.984375q0.3125 1.15625 0.3125 3.140625q0 2.359375 -0.484375 3.8125q-0.484375 1.4375 -1.453125 2.234375q-0.953125 0.78125 -2.421875 0.78125q-1.921875 0 -3.03125 -1.390625q-1.3125 -1.671875 -1.3125 -5.4375zm1.671875 0q0 3.296875 0.765625 4.390625q0.78125 1.078125 1.90625 1.078125q1.140625 0 1.90625 -1.09375q0.765625 -1.09375 0.765625 -4.375q0 -3.296875 -0.765625 -4.375q-0.765625 -1.078125 -1.921875 -1.078125q-1.125 0 -1.796875 0.953125q-0.859375 1.21875 -0.859375 4.5z" fill-rule="nonzero"/><path fill="#000000" d="m481.76526 684.8386l-1.640625 0l0 -10.453125q-0.59375 0.5625 -1.5625 1.140625q-0.953125 0.5625 -1.71875 0.84375l0 -1.59375q1.375 -0.640625 2.40625 -1.5625q1.03125 -0.921875 1.453125 -1.78125l1.0625 0l0 13.40625z" fill-rule="nonzero"/><path fill="#000000" d="m522.04083 684.8386l-1.640625 0l0 -10.453125q-0.59375 0.5625 -1.5625 1.140625q-0.953125 0.5625 -1.71875 0.84375l0 -1.59375q1.375 -0.640625 2.40625 -1.5625q1.03125 -0.921875 1.453125 -1.78125l1.0625 0l0 13.40625z" fill-rule="nonzero"/><path fill="#000000" d="m556.1446 678.2449q0 -2.359375 0.484375 -3.796875q0.484375 -1.453125 1.4375 -2.234375q0.96875 -0.78125 2.421875 -0.78125q1.078125 0 1.890625 0.4375q0.8125 0.421875 1.328125 1.25q0.53125 0.8125 0.828125 1.984375q0.3125 1.15625 0.3125 3.140625q0 2.359375 -0.484375 3.8125q-0.484375 1.4375 -1.453125 2.234375q-0.953125 0.78125 -2.421875 0.78125q-1.921875 0 -3.03125 -1.390625q-1.3125 -1.671875 -1.3125 -5.4375zm1.671875 0q0 3.296875 0.765625 4.390625q0.78125 1.078125 1.90625 1.078125q1.140625 0 1.90625 -1.09375q0.765625 -1.09375 0.765625 -4.375q0 -3.296875 -0.765625 -4.375q-0.765625 -1.078125 -1.921875 -1.078125q-1.125 0 -1.796875 0.953125q-0.859375 1.21875 -0.859375 4.5z" fill-rule="nonzero"/><path fill="#000000" fill-opacity="0.0" d="m402.59973 607.3648l154.80316 0l0 41.1969l-154.80316 0z" fill-rule="evenodd"/><path fill="#000000" d="m434.20248 632.0501l-7.15625 0l-1.59375 4.453125l-2.328125 0l6.515625 -17.0625l1.96875 0l6.53125 17.0625l-2.3125 0l-1.625 -4.453125zm-6.46875 -1.859375l5.796875 0l-2.90625 -7.96875l-2.890625 7.96875zm15.9609375 3.375l3.140625 -9.75l2.21875 0l-4.546875 12.6875l-1.65625 0l-4.59375 -12.6875l2.21875 0l3.21875 9.75zm15.089844 2.9375q-0.1875 -0.375 -0.296875 -1.34375q-1.515625 1.578125 -3.609375 1.578125q-1.875 0 -3.078125 -1.0625q-1.203125 -1.0625 -1.203125 -2.6875q0 -1.984375 1.5 -3.078125q1.515625 -1.09375 4.234375 -1.09375l2.109375 0l0 -1.0q0 -1.140625 -0.6875 -1.8125q-0.671875 -0.671875 -1.984375 -0.671875q-1.171875 0 -1.953125 0.59375q-0.78125 0.578125 -0.78125 1.40625l-2.1875 0q0 -0.9375 0.671875 -1.828125q0.6875 -0.890625 1.828125 -1.40625q1.15625 -0.515625 2.546875 -0.515625q2.1875 0 3.421875 1.109375q1.25 1.09375 1.296875 3.015625l0 5.828125q0 1.75 0.453125 2.78125l0 0.1875l-2.28125 0zm-3.59375 -1.65625q1.015625 0 1.921875 -0.515625q0.921875 -0.53125 1.328125 -1.375l0 -2.609375l-1.6875 0q-3.984375 0 -3.984375 2.328125q0 1.03125 0.671875 1.609375q0.6875 0.5625 1.75 0.5625zm11.1796875 1.65625l-2.171875 0l0 -12.6875l2.171875 0l0 12.6875zm-2.34375 -16.046875q0 -0.53125 0.3125 -0.890625q0.328125 -0.359375 0.953125 -0.359375q0.640625 0 0.96875 0.359375q0.328125 0.359375 0.328125 0.890625q0 0.53125 -0.328125 0.890625q-0.328125 0.34375 -0.96875 0.34375q-0.625 0 -0.953125 -0.34375q-0.3125 -0.359375 -0.3125 -0.890625zm8.167969 16.046875l-2.171875 0l0 -18.0l2.171875 0l0 18.0zm11.292969 0q-0.1875 -0.375 -0.296875 -1.34375q-1.515625 1.578125 -3.609375 1.578125q-1.875 0 -3.078125 -1.0625q-1.203125 -1.0625 -1.203125 -2.6875q0 -1.984375 1.5 -3.078125q1.515625 -1.09375 4.234375 -1.09375l2.109375 0l0 -1.0q0 -1.140625 -0.6875 -1.8125q-0.671875 -0.671875 -1.984375 -0.671875q-1.171875 0 -1.953125 0.59375q-0.78125 0.578125 -0.78125 1.40625l-2.1875 0q0 -0.9375 0.671875 -1.828125q0.6875 -0.890625 1.828125 -1.40625q1.15625 -0.515625 2.546875 -0.515625q2.1875 0 3.421875 1.109375q1.25 1.09375 1.296875 3.015625l0 5.828125q0 1.75 0.453125 2.78125l0 0.1875l-2.28125 0zm-3.59375 -1.65625q1.015625 0 1.921875 -0.515625q0.921875 -0.53125 1.328125 -1.375l0 -2.609375l-1.6875 0q-3.984375 0 -3.984375 2.328125q0 1.03125 0.671875 1.609375q0.6875 0.5625 1.75 0.5625zm19.554688 -4.546875q0 2.90625 -1.34375 4.671875q-1.328125 1.765625 -3.578125 1.765625q-2.40625 0 -3.71875 -1.703125l-0.09375 1.46875l-2.0 0l0 -18.0l2.171875 0l0 6.71875q1.3125 -1.640625 3.609375 -1.640625q2.3125 0 3.625 1.75q1.328125 1.75 1.328125 4.78125l0 0.1875zm-2.171875 -0.25q0 -2.203125 -0.859375 -3.40625q-0.84375 -1.21875 -2.453125 -1.21875q-2.140625 0 -3.078125 2.0l0 5.484375q1.0 1.984375 3.109375 1.984375q1.546875 0 2.40625 -1.203125q0.875 -1.203125 0.875 -3.640625zm7.2617188 6.453125l-2.171875 0l0 -12.6875l2.171875 0l0 12.6875zm-2.34375 -16.046875q0 -0.53125 0.3125 -0.890625q0.328125 -0.359375 0.953125 -0.359375q0.640625 0 0.96875 0.359375q0.328125 0.359375 0.328125 0.890625q0 0.53125 -0.328125 0.890625q-0.328125 0.34375 -0.96875 0.34375q-0.625 0 -0.953125 -0.34375q-0.3125 -0.359375 -0.3125 -0.890625zm8.167969 16.046875l-2.171875 0l0 -18.0l2.171875 0l0 18.0zm5.824188 0l-2.171875 0l0 -12.6875l2.171875 0l0 12.6875zm-2.34375 -16.046875q0 -0.53125 0.3125 -0.890625q0.328125 -0.359375 0.953125 -0.359375q0.640625 0 0.96875 0.359375q0.328125 0.359375 0.328125 0.890625q0 0.53125 -0.328125 0.890625q-0.328125 0.34375 -0.96875 0.34375q-0.625 0 -0.953125 -0.34375q-0.3125 -0.359375 -0.3125 -0.890625zm8.746094 0.296875l0 3.0625l2.375 0l0 1.6875l-2.375 0l0 7.859375q0 0.765625 0.3125 1.140625q0.328125 0.375 1.09375 0.375q0.375 0 1.03125 -0.140625l0 1.765625q-0.859375 0.234375 -1.671875 0.234375q-1.453125 0 -2.1875 -0.875q-0.734375 -0.890625 -0.734375 -2.5l0 -7.859375l-2.3125 0l0 -1.6875l2.3125 0l0 -3.0625l2.15625 0zm9.058655 12.578125l2.953125 -9.515625l2.3125 0l-5.09375 14.640625q-1.1875 3.171875 -3.765686 3.171875l-0.40625 -0.03125l-0.8125 -0.15625l0 -1.765625l0.59375 0.046875q1.09375 0 1.703125 -0.453125q0.625 -0.4375 1.015625 -1.609375l0.48443604 -1.296875l-4.515686 -12.546875l2.359375 0l3.171936 9.515625z" fill-rule="nonzero"/><path fill="#000000" fill-opacity="0.0" d="m406.17322 13.447507l147.65356 0l0 41.19685l-147.65356 0z" fill-rule="evenodd"/><path fill="#000000" d="m472.66406 40.351555q-0.859375 1.234375 -2.421875 1.859375q-1.546875 0.609375 -3.609375 0.609375q-2.09375 0 -3.71875 -0.96875q-1.609375 -0.984375 -2.5 -2.78125q-0.875 -1.8125 -0.890625 -4.203125l0 -1.484375q0 -3.859375 1.796875 -5.96875q1.796875 -2.125 5.046875 -2.125q2.671875 0 4.296875 1.375q1.640625 1.359375 2.0 3.859375l-2.25 0q-0.625 -3.390625 -4.03125 -3.390625q-2.265625 0 -3.4375 1.59375q-1.15625 1.59375 -1.171875 4.59375l0 1.40625q0 2.859375 1.3125 4.5625q1.3125 1.6875 3.5625 1.6875q1.265625 0 2.203125 -0.28125q0.953125 -0.28125 1.578125 -0.953125l0 -3.828125l-3.953125 0l0 -1.828125l6.1875 0l0 6.265625zm9.535156 -8.5q-0.484375 -0.078125 -1.0625 -0.078125q-2.125 0 -2.890625 1.8125l0 9.0l-2.171875 0l0 -12.6875l2.109375 0l0.03125 1.46875q1.078125 -1.703125 3.03125 -1.703125q0.625 0 0.953125 0.171875l0 2.015625zm4.3554688 10.734375l-2.171875 0l0 -12.6875l2.171875 0l0 12.6875zm-2.34375 -16.046875q0 -0.53125 0.3125 -0.890625q0.328125 -0.359375 0.953125 -0.359375q0.640625 0 0.96875 0.359375q0.328125 0.359375 0.328125 0.890625q0 0.53125 -0.328125 0.890625q-0.328125 0.34375 -0.96875 0.34375q-0.625 0 -0.953125 -0.34375q-0.3125 -0.359375 -0.3125 -0.890625zm5.2773438 9.59375q0 -2.90625 1.375 -4.6875q1.390625 -1.78125 3.640625 -1.78125q2.21875 0 3.515625 1.53125l0 -6.609375l2.171875 0l0 18.0l-1.984375 0l-0.109375 -1.359375q-1.296875 1.59375 -3.625 1.59375q-2.203125 0 -3.59375 -1.796875q-1.390625 -1.8125 -1.390625 -4.71875l0 -0.171875zm2.171875 0.25q0 2.15625 0.890625 3.375q0.890625 1.21875 2.46875 1.21875q2.0625 0 3.0 -1.84375l0 -5.828125q-0.96875 -1.796875 -2.984375 -1.796875q-1.59375 0 -2.484375 1.234375q-0.890625 1.234375 -0.890625 3.640625z" fill-rule="nonzero"/></g></svg>