<?xml version="1.0" encoding="UTF-8" standalone="no"?>
<!DOCTYPE svg PUBLIC "-//W3C//DTD SVG 1.1//EN"
 "http://www.w3.org/Graphics/SVG/1.1/DTD/svg11.dtd">
<!-- Generated by graphviz version 2.40.1 (20161225.0304)
 -->
<!-- Title: %0 Pages: 1 -->
<svg width="1883pt" height="928pt"
 viewBox="0.00 0.00 1883.00 928.40" xmlns="http://www.w3.org/2000/svg" xmlns:xlink="http://www.w3.org/1999/xlink">
<g id="graph0" class="graph" transform="scale(1 1) rotate(0) translate(4 924.4)">
<title>%0</title>
<polygon fill="#ffffff" stroke="transparent" points="-4,4 -4,-924.4 1879,-924.4 1879,4 -4,4"/>
<g id="clust2" class="cluster">
<title>cluster_L3</title>
<polygon fill="none" stroke="#000000" points="616.5,-708 616.5,-912.4 1152.5,-912.4 1152.5,-708 616.5,-708"/>
<text text-anchor="middle" x="1123.3138" y="-716.2" font-family="Times,serif" font-size="14.00" fill="#000000">Level 3</text>
</g>
<g id="clust3" class="cluster">
<title>cluster_L2</title>
<polygon fill="none" stroke="#000000" points="624.5,-740.8 624.5,-904.4 972.5,-904.4 972.5,-740.8 624.5,-740.8"/>
<text text-anchor="middle" x="943.3138" y="-749" font-family="Times,serif" font-size="14.00" fill="#000000">Level 2</text>
</g>
<g id="clust4" class="cluster">
<title>cluster_L1</title>
<polygon fill="none" stroke="#000000" points="632.5,-773.6 632.5,-896.4 792.5,-896.4 792.5,-773.6 632.5,-773.6"/>
<text text-anchor="middle" x="763.3138" y="-781.8" font-family="Times,serif" font-size="14.00" fill="#000000">Level 1</text>
</g>
<!-- L10 -->
<!-- B0 -->
<g id="node2" class="node">
<title>B0</title>
<polygon fill="none" stroke="#000000" points="640.5,-806.9 640.5,-842.9 694.5,-842.9 694.5,-806.9 640.5,-806.9"/>
<text text-anchor="middle" x="667.5" y="-819.5" font-family="Times,serif" font-size="18.00" fill="#000000">0</text>
</g>
<!-- L10&#45;&gt;B0 -->
<!-- B1 -->
<g id="node3" class="node">
<title>B1</title>
<polygon fill="none" stroke="#000000" points="730.5,-806.9 730.5,-842.9 784.5,-842.9 784.5,-806.9 730.5,-806.9"/>
<text text-anchor="middle" x="757.5" y="-819.5" font-family="Times,serif" font-size="18.00" fill="#000000">1</text>
</g>
<!-- L10&#45;&gt;B1 -->
<!-- L1 -->
<g id="node10" class="node">
<title>L1</title>
<text text-anchor="start" x="40.5" y="-431.1" font-family="Times,serif" font-size="18.00" fill="#000000">1</text>
<polygon fill="none" stroke="#000000" points="89.5,-308.5 89.5,-564.5 345.5,-564.5 345.5,-308.5 89.5,-308.5"/>
<text text-anchor="start" x="208.5" y="-431.1" font-family="Times,serif" font-size="18.00" fill="#000000">10</text>
<polygon fill="none" stroke="#000000" points="345.5,-308.5 345.5,-564.5 601.5,-564.5 601.5,-308.5 345.5,-308.5"/>
<text text-anchor="start" x="464.5" y="-431.1" font-family="Times,serif" font-size="18.00" fill="#000000">11</text>
<text text-anchor="start" x="40.5" y="-175.1" font-family="Times,serif" font-size="18.00" fill="#000000">0</text>
<polygon fill="none" stroke="#000000" points="89.5,-52.5 89.5,-308.5 345.5,-308.5 345.5,-52.5 89.5,-52.5"/>
<text text-anchor="start" x="208.5" y="-175.1" font-family="Times,serif" font-size="18.00" fill="#000000">00</text>
<polygon fill="none" stroke="#00ff00" stroke-width="8" points="349.5,-56.5 349.5,-304.5 597.5,-304.5 597.5,-56.5 349.5,-56.5"/>
<text text-anchor="start" x="464.5" y="-175.1" font-family="Times,serif" font-size="18.00" fill="#000000">01</text>
<text text-anchor="start" x="16.2558" y="-20.3" font-family="Times,serif" font-size="18.00" fill="#000000">Y↑,X→</text>
<text text-anchor="start" x="213" y="-20.3" font-family="Times,serif" font-size="18.00" fill="#000000">0</text>
<text text-anchor="start" x="469" y="-20.3" font-family="Times,serif" font-size="18.00" fill="#000000">1</text>
</g>
<!-- B1&#45;&gt;L1 -->
<g id="edge9" class="edge">
<title>B1&#45;&gt;L1</title>
<path fill="none" stroke="#000000" d="M714.2803,-773.6038C673.9921,-725.7869 610.4581,-650.3802 545.1555,-572.8745"/>
<polygon fill="#000000" stroke="#000000" points="547.7301,-570.4982 538.6101,-565.106 542.3769,-575.0086 547.7301,-570.4982"/>
</g>
<!-- L20 -->
<!-- B2 -->
<g id="node5" class="node">
<title>B2</title>
<polygon fill="none" stroke="#000000" points="820.5,-806.9 820.5,-842.9 874.5,-842.9 874.5,-806.9 820.5,-806.9"/>
<text text-anchor="middle" x="847.5" y="-819.5" font-family="Times,serif" font-size="18.00" fill="#000000">0</text>
</g>
<!-- L20&#45;&gt;B2 -->
<!-- B3 -->
<g id="node6" class="node">
<title>B3</title>
<polygon fill="none" stroke="#000000" points="910.5,-806.9 910.5,-842.9 964.5,-842.9 964.5,-806.9 910.5,-806.9"/>
<text text-anchor="middle" x="937.5" y="-819.5" font-family="Times,serif" font-size="18.00" fill="#000000">0</text>
</g>
<!-- L20&#45;&gt;B3 -->
<!-- L2 -->
<g id="node11" class="node">
<title>L2</title>
<text text-anchor="start" x="677.5" y="-495.1" font-family="Times,serif" font-size="18.00" fill="#000000">3</text>
<polygon fill="none" stroke="#000000" points="726.5,-436.5 726.5,-564.5 854.5,-564.5 854.5,-436.5 726.5,-436.5"/>
<text text-anchor="start" x="772.5" y="-495.1" font-family="Times,serif" font-size="18.00" fill="#000000">1010</text>
<polygon fill="none" stroke="#000000" points="854.5,-436.5 854.5,-564.5 982.5,-564.5 982.5,-436.5 854.5,-436.5"/>
<text text-anchor="start" x="900.5" y="-495.1" font-family="Times,serif" font-size="18.00" fill="#000000">1011</text>
<polygon fill="none" stroke="#000000" points="982.5,-436.5 982.5,-564.5 1110.5,-564.5 1110.5,-436.5 982.5,-436.5"/>
<text text-anchor="start" x="1028.5" y="-495.1" font-family="Times,serif" font-size="18.00" fill="#000000">1110</text>
<polygon fill="none" stroke="#000000" points="1110.5,-436.5 1110.5,-564.5 1238.5,-564.5 1238.5,-436.5 1110.5,-436.5"/>
<text text-anchor="start" x="1156.5" y="-495.1" font-family="Times,serif" font-size="18.00" fill="#000000">1111</text>
<text text-anchor="start" x="677.5" y="-367.1" font-family="Times,serif" font-size="18.00" fill="#000000">2</text>
<polygon fill="none" stroke="#000000" points="726.5,-308.5 726.5,-436.5 854.5,-436.5 854.5,-308.5 726.5,-308.5"/>
<text text-anchor="start" x="772.5" y="-367.1" font-family="Times,serif" font-size="18.00" fill="#000000">1000</text>
<polygon fill="none" stroke="#000000" points="854.5,-308.5 854.5,-436.5 982.5,-436.5 982.5,-308.5 854.5,-308.5"/>
<text text-anchor="start" x="900.5" y="-367.1" font-family="Times,serif" font-size="18.00" fill="#000000">1001</text>
<polygon fill="none" stroke="#000000" points="982.5,-308.5 982.5,-436.5 1110.5,-436.5 1110.5,-308.5 982.5,-308.5"/>
<text text-anchor="start" x="1028.5" y="-367.1" font-family="Times,serif" font-size="18.00" fill="#000000">1100</text>
<polygon fill="none" stroke="#000000" points="1110.5,-308.5 1110.5,-436.5 1238.5,-436.5 1238.5,-308.5 1110.5,-308.5"/>
<text text-anchor="start" x="1156.5" y="-367.1" font-family="Times,serif" font-size="18.00" fill="#000000">1101</text>
<text text-anchor="start" x="677.5" y="-239.1" font-family="Times,serif" font-size="18.00" fill="#000000">1</text>
<polygon fill="none" stroke="#000000" points="726.5,-180.5 726.5,-308.5 854.5,-308.5 854.5,-180.5 726.5,-180.5"/>
<text text-anchor="start" x="772.5" y="-239.1" font-family="Times,serif" font-size="18.00" fill="#000000">0010</text>
<polygon fill="none" stroke="#000000" points="854.5,-180.5 854.5,-308.5 982.5,-308.5 982.5,-180.5 854.5,-180.5"/>
<text text-anchor="start" x="900.5" y="-239.1" font-family="Times,serif" font-size="18.00" fill="#000000">0011</text>
<polygon fill="none" stroke="#000000" points="982.5,-180.5 982.5,-308.5 1110.5,-308.5 1110.5,-180.5 982.5,-180.5"/>
<text text-anchor="start" x="1028.5" y="-239.1" font-family="Times,serif" font-size="18.00" fill="#000000">0110</text>
<polygon fill="none" stroke="#000000" points="1110.5,-180.5 1110.5,-308.5 1238.5,-308.5 1238.5,-180.5 1110.5,-180.5"/>
<text text-anchor="start" x="1156.5" y="-239.1" font-family="Times,serif" font-size="18.00" fill="#000000">0111</text>
<text text-anchor="start" x="677.5" y="-111.1" font-family="Times,serif" font-size="18.00" fill="#000000">0</text>
<polygon fill="none" stroke="#000000" points="726.5,-52.5 726.5,-180.5 854.5,-180.5 854.5,-52.5 726.5,-52.5"/>
<text text-anchor="start" x="772.5" y="-111.1" font-family="Times,serif" font-size="18.00" fill="#000000">0000</text>
<polygon fill="none" stroke="#000000" points="854.5,-52.5 854.5,-180.5 982.5,-180.5 982.5,-52.5 854.5,-52.5"/>
<text text-anchor="start" x="900.5" y="-111.1" font-family="Times,serif" font-size="18.00" fill="#000000">0001</text>
<polygon fill="none" stroke="#00ff00" stroke-width="4" points="984.5,-54.5 984.5,-178.5 1108.5,-178.5 1108.5,-54.5 984.5,-54.5"/>
<text text-anchor="start" x="1028.5" y="-111.1" font-family="Times,serif" font-size="18.00" fill="#000000">0100</text>
<polygon fill="none" stroke="#000000" points="1110.5,-52.5 1110.5,-180.5 1238.5,-180.5 1238.5,-52.5 1110.5,-52.5"/>
<text text-anchor="start" x="1156.5" y="-111.1" font-family="Times,serif" font-size="18.00" fill="#000000">0101</text>
<text text-anchor="start" x="653.2558" y="-20.3" font-family="Times,serif" font-size="18.00" fill="#000000">Y↑,X→</text>
<text text-anchor="start" x="786" y="-20.3" font-family="Times,serif" font-size="18.00" fill="#000000">0</text>
<text text-anchor="start" x="914" y="-20.3" font-family="Times,serif" font-size="18.00" fill="#000000">1</text>
<text text-anchor="start" x="1042" y="-20.3" font-family="Times,serif" font-size="18.00" fill="#000000">2</text>
<text text-anchor="start" x="1170" y="-20.3" font-family="Times,serif" font-size="18.00" fill="#000000">3</text>
</g>
<!-- B3&#45;&gt;L2 -->
<g id="edge10" class="edge">
<title>B3&#45;&gt;L2</title>
<path fill="none" stroke="#000000" d="M937.5,-740.8029C937.5,-695.2614 937.5,-635.9873 937.5,-575.2623"/>
<polygon fill="#000000" stroke="#000000" points="941.0001,-575.1059 937.5,-565.106 934.0001,-575.106 941.0001,-575.1059"/>
</g>
<!-- L30 -->
<!-- B4 -->
<g id="node8" class="node">
<title>B4</title>
<polygon fill="none" stroke="#000000" points="1000.5,-806.9 1000.5,-842.9 1054.5,-842.9 1054.5,-806.9 1000.5,-806.9"/>
<text text-anchor="middle" x="1027.5" y="-819.5" font-family="Times,serif" font-size="18.00" fill="#000000">1</text>
</g>
<!-- L30&#45;&gt;B4 -->
<!-- B5 -->
<g id="node9" class="node">
<title>B5</title>
<polygon fill="none" stroke="#000000" points="1090.5,-806.9 1090.5,-842.9 1144.5,-842.9 1144.5,-806.9 1090.5,-806.9"/>
<text text-anchor="middle" x="1117.5" y="-819.5" font-family="Times,serif" font-size="18.00" fill="#000000">1</text>
</g>
<!-- L30&#45;&gt;B5 -->
<!-- L3 -->
<g id="node12" class="node">
<title>L3</title>
<text text-anchor="start" x="1314.5" y="-527.1" font-family="Times,serif" font-size="18.00" fill="#000000">7</text>
<polygon fill="none" stroke="#000000" points="1363.5,-500.5 1363.5,-564.5 1427.5,-564.5 1427.5,-500.5 1363.5,-500.5"/>
<text text-anchor="start" x="1368.5" y="-527.1" font-family="Times,serif" font-size="18.00" fill="#000000">101010</text>
<polygon fill="none" stroke="#000000" points="1427.5,-500.5 1427.5,-564.5 1491.5,-564.5 1491.5,-500.5 1427.5,-500.5"/>
<text text-anchor="start" x="1432.5" y="-527.1" font-family="Times,serif" font-size="18.00" fill="#000000">101011</text>
<polygon fill="none" stroke="#000000" points="1491.5,-500.5 1491.5,-564.5 1555.5,-564.5 1555.5,-500.5 1491.5,-500.5"/>
<text text-anchor="start" x="1496.5" y="-527.1" font-family="Times,serif" font-size="18.00" fill="#000000">101110</text>
<polygon fill="none" stroke="#000000" points="1555.5,-500.5 1555.5,-564.5 1619.5,-564.5 1619.5,-500.5 1555.5,-500.5"/>
<text text-anchor="start" x="1560.5" y="-527.1" font-family="Times,serif" font-size="18.00" fill="#000000">101111</text>
<polygon fill="none" stroke="#000000" points="1619.5,-500.5 1619.5,-564.5 1683.5,-564.5 1683.5,-500.5 1619.5,-500.5"/>
<text text-anchor="start" x="1624.5" y="-527.1" font-family="Times,serif" font-size="18.00" fill="#000000">111010</text>
<polygon fill="none" stroke="#000000" points="1683.5,-500.5 1683.5,-564.5 1747.5,-564.5 1747.5,-500.5 1683.5,-500.5"/>
<text text-anchor="start" x="1688.5" y="-527.1" font-family="Times,serif" font-size="18.00" fill="#000000">111011</text>
<polygon fill="none" stroke="#000000" points="1747.5,-500.5 1747.5,-564.5 1811.5,-564.5 1811.5,-500.5 1747.5,-500.5"/>
<text text-anchor="start" x="1752.5" y="-527.1" font-family="Times,serif" font-size="18.00" fill="#000000">111110</text>
<polygon fill="none" stroke="#000000" points="1811.5,-500.5 1811.5,-564.5 1875.5,-564.5 1875.5,-500.5 1811.5,-500.5"/>
<text text-anchor="start" x="1816.5" y="-527.1" font-family="Times,serif" font-size="18.00" fill="#000000">111111</text>
<text text-anchor="start" x="1314.5" y="-463.1" font-family="Times,serif" font-size="18.00" fill="#000000">6</text>
<polygon fill="none" stroke="#000000" points="1363.5,-436.5 1363.5,-500.5 1427.5,-500.5 1427.5,-436.5 1363.5,-436.5"/>
<text text-anchor="start" x="1368.5" y="-463.1" font-family="Times,serif" font-size="18.00" fill="#000000">101000</text>
<polygon fill="none" stroke="#000000" points="1427.5,-436.5 1427.5,-500.5 1491.5,-500.5 1491.5,-436.5 1427.5,-436.5"/>
<text text-anchor="start" x="1432.5" y="-463.1" font-family="Times,serif" font-size="18.00" fill="#000000">101001</text>
<polygon fill="none" stroke="#000000" points="1491.5,-436.5 1491.5,-500.5 1555.5,-500.5 1555.5,-436.5 1491.5,-436.5"/>
<text text-anchor="start" x="1496.5" y="-463.1" font-family="Times,serif" font-size="18.00" fill="#000000">101100</text>
<polygon fill="none" stroke="#000000" points="1555.5,-436.5 1555.5,-500.5 1619.5,-500.5 1619.5,-436.5 1555.5,-436.5"/>
<text text-anchor="start" x="1560.5" y="-463.1" font-family="Times,serif" font-size="18.00" fill="#000000">101101</text>
<polygon fill="none" stroke="#000000" points="1619.5,-436.5 1619.5,-500.5 1683.5,-500.5 1683.5,-436.5 1619.5,-436.5"/>
<text text-anchor="start" x="1624.5" y="-463.1" font-family="Times,serif" font-size="18.00" fill="#000000">111000</text>
<polygon fill="none" stroke="#000000" points="1683.5,-436.5 1683.5,-500.5 1747.5,-500.5 1747.5,-436.5 1683.5,-436.5"/>
<text text-anchor="start" x="1688.5" y="-463.1" font-family="Times,serif" font-size="18.00" fill="#000000">111001</text>
<polygon fill="none" stroke="#000000" points="1747.5,-436.5 1747.5,-500.5 1811.5,-500.5 1811.5,-436.5 1747.5,-436.5"/>
<text text-anchor="start" x="1752.5" y="-463.1" font-family="Times,serif" font-size="18.00" fill="#000000">111100</text>
<polygon fill="none" stroke="#000000" points="1811.5,-436.5 1811.5,-500.5 1875.5,-500.5 1875.5,-436.5 1811.5,-436.5"/>
<text text-anchor="start" x="1816.5" y="-463.1" font-family="Times,serif" font-size="18.00" fill="#000000">111101</text>
<text text-anchor="start" x="1314.5" y="-399.1" font-family="Times,serif" font-size="18.00" fill="#000000">5</text>
<polygon fill="none" stroke="#000000" points="1363.5,-372.5 1363.5,-436.5 1427.5,-436.5 1427.5,-372.5 1363.5,-372.5"/>
<text text-anchor="start" x="1368.5" y="-399.1" font-family="Times,serif" font-size="18.00" fill="#000000">100010</text>
<polygon fill="none" stroke="#000000" points="1427.5,-372.5 1427.5,-436.5 1491.5,-436.5 1491.5,-372.5 1427.5,-372.5"/>
<text text-anchor="start" x="1432.5" y="-399.1" font-family="Times,serif" font-size="18.00" fill="#000000">100011</text>
<polygon fill="none" stroke="#000000" points="1491.5,-372.5 1491.5,-436.5 1555.5,-436.5 1555.5,-372.5 1491.5,-372.5"/>
<text text-anchor="start" x="1496.5" y="-399.1" font-family="Times,serif" font-size="18.00" fill="#000000">100110</text>
<polygon fill="none" stroke="#000000" points="1555.5,-372.5 1555.5,-436.5 1619.5,-436.5 1619.5,-372.5 1555.5,-372.5"/>
<text text-anchor="start" x="1560.5" y="-399.1" font-family="Times,serif" font-size="18.00" fill="#000000">100111</text>
<polygon fill="none" stroke="#000000" points="1619.5,-372.5 1619.5,-436.5 1683.5,-436.5 1683.5,-372.5 1619.5,-372.5"/>
<text text-anchor="start" x="1624.5" y="-399.1" font-family="Times,serif" font-size="18.00" fill="#000000">110010</text>
<polygon fill="none" stroke="#000000" points="1683.5,-372.5 1683.5,-436.5 1747.5,-436.5 1747.5,-372.5 1683.5,-372.5"/>
<text text-anchor="start" x="1688.5" y="-399.1" font-family="Times,serif" font-size="18.00" fill="#000000">110011</text>
<polygon fill="none" stroke="#000000" points="1747.5,-372.5 1747.5,-436.5 1811.5,-436.5 1811.5,-372.5 1747.5,-372.5"/>
<text text-anchor="start" x="1752.5" y="-399.1" font-family="Times,serif" font-size="18.00" fill="#000000">110110</text>
<polygon fill="none" stroke="#000000" points="1811.5,-372.5 1811.5,-436.5 1875.5,-436.5 1875.5,-372.5 1811.5,-372.5"/>
<text text-anchor="start" x="1816.5" y="-399.1" font-family="Times,serif" font-size="18.00" fill="#000000">110111</text>
<text text-anchor="start" x="1314.5" y="-335.1" font-family="Times,serif" font-size="18.00" fill="#000000">4</text>
<polygon fill="none" stroke="#000000" points="1363.5,-308.5 1363.5,-372.5 1427.5,-372.5 1427.5,-308.5 1363.5,-308.5"/>
<text text-anchor="start" x="1368.5" y="-335.1" font-family="Times,serif" font-size="18.00" fill="#000000">100000</text>
<polygon fill="none" stroke="#000000" points="1427.5,-308.5 1427.5,-372.5 1491.5,-372.5 1491.5,-308.5 1427.5,-308.5"/>
<text text-anchor="start" x="1432.5" y="-335.1" font-family="Times,serif" font-size="18.00" fill="#000000">100001</text>
<polygon fill="none" stroke="#000000" points="1491.5,-308.5 1491.5,-372.5 1555.5,-372.5 1555.5,-308.5 1491.5,-308.5"/>
<text text-anchor="start" x="1496.5" y="-335.1" font-family="Times,serif" font-size="18.00" fill="#000000">100100</text>
<polygon fill="none" stroke="#000000" points="1555.5,-308.5 1555.5,-372.5 1619.5,-372.5 1619.5,-308.5 1555.5,-308.5"/>
<text text-anchor="start" x="1560.5" y="-335.1" font-family="Times,serif" font-size="18.00" fill="#000000">100101</text>
<polygon fill="none" stroke="#000000" points="1619.5,-308.5 1619.5,-372.5 1683.5,-372.5 1683.5,-308.5 1619.5,-308.5"/>
<text text-anchor="start" x="1624.5" y="-335.1" font-family="Times,serif" font-size="18.00" fill="#000000">110000</text>
<polygon fill="none" stroke="#000000" points="1683.5,-308.5 1683.5,-372.5 1747.5,-372.5 1747.5,-308.5 1683.5,-308.5"/>
<text text-anchor="start" x="1688.5" y="-335.1" font-family="Times,serif" font-size="18.00" fill="#000000">110001</text>
<polygon fill="none" stroke="#000000" points="1747.5,-308.5 1747.5,-372.5 1811.5,-372.5 1811.5,-308.5 1747.5,-308.5"/>
<text text-anchor="start" x="1752.5" y="-335.1" font-family="Times,serif" font-size="18.00" fill="#000000">110100</text>
<polygon fill="none" stroke="#000000" points="1811.5,-308.5 1811.5,-372.5 1875.5,-372.5 1875.5,-308.5 1811.5,-308.5"/>
<text text-anchor="start" x="1816.5" y="-335.1" font-family="Times,serif" font-size="18.00" fill="#000000">110101</text>
<text text-anchor="start" x="1314.5" y="-271.1" font-family="Times,serif" font-size="18.00" fill="#000000">3</text>
<polygon fill="none" stroke="#000000" points="1363.5,-244.5 1363.5,-308.5 1427.5,-308.5 1427.5,-244.5 1363.5,-244.5"/>
<text text-anchor="start" x="1368.5" y="-271.1" font-family="Times,serif" font-size="18.00" fill="#000000">001010</text>
<polygon fill="none" stroke="#000000" points="1427.5,-244.5 1427.5,-308.5 1491.5,-308.5 1491.5,-244.5 1427.5,-244.5"/>
<text text-anchor="start" x="1432.5" y="-271.1" font-family="Times,serif" font-size="18.00" fill="#000000">001011</text>
<polygon fill="none" stroke="#000000" points="1491.5,-244.5 1491.5,-308.5 1555.5,-308.5 1555.5,-244.5 1491.5,-244.5"/>
<text text-anchor="start" x="1496.5" y="-271.1" font-family="Times,serif" font-size="18.00" fill="#000000">001110</text>
<polygon fill="none" stroke="#000000" points="1555.5,-244.5 1555.5,-308.5 1619.5,-308.5 1619.5,-244.5 1555.5,-244.5"/>
<text text-anchor="start" x="1560.5" y="-271.1" font-family="Times,serif" font-size="18.00" fill="#000000">001111</text>
<polygon fill="none" stroke="#000000" points="1619.5,-244.5 1619.5,-308.5 1683.5,-308.5 1683.5,-244.5 1619.5,-244.5"/>
<text text-anchor="start" x="1624.5" y="-271.1" font-family="Times,serif" font-size="18.00" fill="#000000">011010</text>
<polygon fill="none" stroke="#000000" points="1683.5,-244.5 1683.5,-308.5 1747.5,-308.5 1747.5,-244.5 1683.5,-244.5"/>
<text text-anchor="start" x="1688.5" y="-271.1" font-family="Times,serif" font-size="18.00" fill="#000000">011011</text>
<polygon fill="none" stroke="#000000" points="1747.5,-244.5 1747.5,-308.5 1811.5,-308.5 1811.5,-244.5 1747.5,-244.5"/>
<text text-anchor="start" x="1752.5" y="-271.1" font-family="Times,serif" font-size="18.00" fill="#000000">011110</text>
<polygon fill="none" stroke="#000000" points="1811.5,-244.5 1811.5,-308.5 1875.5,-308.5 1875.5,-244.5 1811.5,-244.5"/>
<text text-anchor="start" x="1816.5" y="-271.1" font-family="Times,serif" font-size="18.00" fill="#000000">011111</text>
<text text-anchor="start" x="1314.5" y="-207.1" font-family="Times,serif" font-size="18.00" fill="#000000">2</text>
<polygon fill="none" stroke="#000000" points="1363.5,-180.5 1363.5,-244.5 1427.5,-244.5 1427.5,-180.5 1363.5,-180.5"/>
<text text-anchor="start" x="1368.5" y="-207.1" font-family="Times,serif" font-size="18.00" fill="#000000">001000</text>
<polygon fill="none" stroke="#000000" points="1427.5,-180.5 1427.5,-244.5 1491.5,-244.5 1491.5,-180.5 1427.5,-180.5"/>
<text text-anchor="start" x="1432.5" y="-207.1" font-family="Times,serif" font-size="18.00" fill="#000000">001001</text>
<polygon fill="none" stroke="#000000" points="1491.5,-180.5 1491.5,-244.5 1555.5,-244.5 1555.5,-180.5 1491.5,-180.5"/>
<text text-anchor="start" x="1496.5" y="-207.1" font-family="Times,serif" font-size="18.00" fill="#000000">001100</text>
<polygon fill="none" stroke="#000000" points="1555.5,-180.5 1555.5,-244.5 1619.5,-244.5 1619.5,-180.5 1555.5,-180.5"/>
<text text-anchor="start" x="1560.5" y="-207.1" font-family="Times,serif" font-size="18.00" fill="#000000">001101</text>
<polygon fill="none" stroke="#000000" points="1619.5,-180.5 1619.5,-244.5 1683.5,-244.5 1683.5,-180.5 1619.5,-180.5"/>
<text text-anchor="start" x="1624.5" y="-207.1" font-family="Times,serif" font-size="18.00" fill="#000000">011000</text>
<polygon fill="none" stroke="#000000" points="1683.5,-180.5 1683.5,-244.5 1747.5,-244.5 1747.5,-180.5 1683.5,-180.5"/>
<text text-anchor="start" x="1688.5" y="-207.1" font-family="Times,serif" font-size="18.00" fill="#000000">011001</text>
<polygon fill="none" stroke="#000000" points="1747.5,-180.5 1747.5,-244.5 1811.5,-244.5 1811.5,-180.5 1747.5,-180.5"/>
<text text-anchor="start" x="1752.5" y="-207.1" font-family="Times,serif" font-size="18.00" fill="#000000">011100</text>
<polygon fill="none" stroke="#000000" points="1811.5,-180.5 1811.5,-244.5 1875.5,-244.5 1875.5,-180.5 1811.5,-180.5"/>
<text text-anchor="start" x="1816.5" y="-207.1" font-family="Times,serif" font-size="18.00" fill="#000000">011101</text>
<text text-anchor="start" x="1314.5" y="-143.1" font-family="Times,serif" font-size="18.00" fill="#000000">1</text>
<polygon fill="none" stroke="#000000" points="1363.5,-116.5 1363.5,-180.5 1427.5,-180.5 1427.5,-116.5 1363.5,-116.5"/>
<text text-anchor="start" x="1368.5" y="-143.1" font-family="Times,serif" font-size="18.00" fill="#000000">000010</text>
<polygon fill="none" stroke="#000000" points="1427.5,-116.5 1427.5,-180.5 1491.5,-180.5 1491.5,-116.5 1427.5,-116.5"/>
<text text-anchor="start" x="1432.5" y="-143.1" font-family="Times,serif" font-size="18.00" fill="#000000">000011</text>
<polygon fill="none" stroke="#000000" points="1491.5,-116.5 1491.5,-180.5 1555.5,-180.5 1555.5,-116.5 1491.5,-116.5"/>
<text text-anchor="start" x="1496.5" y="-143.1" font-family="Times,serif" font-size="18.00" fill="#000000">000110</text>
<polygon fill="none" stroke="#000000" points="1555.5,-116.5 1555.5,-180.5 1619.5,-180.5 1619.5,-116.5 1555.5,-116.5"/>
<text text-anchor="start" x="1560.5" y="-143.1" font-family="Times,serif" font-size="18.00" fill="#000000">000111</text>
<polygon fill="none" stroke="#000000" points="1619.5,-116.5 1619.5,-180.5 1683.5,-180.5 1683.5,-116.5 1619.5,-116.5"/>
<text text-anchor="start" x="1624.5" y="-143.1" font-family="Times,serif" font-size="18.00" fill="#000000">010010</text>
<polygon fill="#00ff00" stroke="transparent" points="1683.5,-116.5 1683.5,-180.5 1747.5,-180.5 1747.5,-116.5 1683.5,-116.5"/>
<polygon fill="none" stroke="#000000" points="1683.5,-116.5 1683.5,-180.5 1747.5,-180.5 1747.5,-116.5 1683.5,-116.5"/>
<text text-anchor="start" x="1688.5" y="-143.1" font-family="Times,serif" font-size="18.00" fill="#000000">010011</text>
<polygon fill="none" stroke="#000000" points="1747.5,-116.5 1747.5,-180.5 1811.5,-180.5 1811.5,-116.5 1747.5,-116.5"/>
<text text-anchor="start" x="1752.5" y="-143.1" font-family="Times,serif" font-size="18.00" fill="#000000">010110</text>
<polygon fill="none" stroke="#000000" points="1811.5,-116.5 1811.5,-180.5 1875.5,-180.5 1875.5,-116.5 1811.5,-116.5"/>
<text text-anchor="start" x="1816.5" y="-143.1" font-family="Times,serif" font-size="18.00" fill="#000000">010111</text>
<text text-anchor="start" x="1314.5" y="-79.1" font-family="Times,serif" font-size="18.00" fill="#000000">0</text>
<polygon fill="none" stroke="#000000" points="1363.5,-52.5 1363.5,-116.5 1427.5,-116.5 1427.5,-52.5 1363.5,-52.5"/>
<text text-anchor="start" x="1373" y="-79.1" font-family="Times,serif" font-size="18.00" fill="#000000">00000</text>
<polygon fill="none" stroke="#000000" points="1427.5,-52.5 1427.5,-116.5 1491.5,-116.5 1491.5,-52.5 1427.5,-52.5"/>
<text text-anchor="start" x="1432.5" y="-79.1" font-family="Times,serif" font-size="18.00" fill="#000000">000001</text>
<polygon fill="none" stroke="#000000" points="1491.5,-52.5 1491.5,-116.5 1555.5,-116.5 1555.5,-52.5 1491.5,-52.5"/>
<text text-anchor="start" x="1496.5" y="-79.1" font-family="Times,serif" font-size="18.00" fill="#000000">000100</text>
<polygon fill="none" stroke="#000000" points="1555.5,-52.5 1555.5,-116.5 1619.5,-116.5 1619.5,-52.5 1555.5,-52.5"/>
<text text-anchor="start" x="1560.5" y="-79.1" font-family="Times,serif" font-size="18.00" fill="#000000">000101</text>
<polygon fill="none" stroke="#000000" points="1619.5,-52.5 1619.5,-116.5 1683.5,-116.5 1683.5,-52.5 1619.5,-52.5"/>
<text text-anchor="start" x="1624.5" y="-79.1" font-family="Times,serif" font-size="18.00" fill="#000000">010000</text>
<polygon fill="none" stroke="#000000" points="1683.5,-52.5 1683.5,-116.5 1747.5,-116.5 1747.5,-52.5 1683.5,-52.5"/>
<text text-anchor="start" x="1688.5" y="-79.1" font-family="Times,serif" font-size="18.00" fill="#000000">010001</text>
<polygon fill="none" stroke="#000000" points="1747.5,-52.5 1747.5,-116.5 1811.5,-116.5 1811.5,-52.5 1747.5,-52.5"/>
<text text-anchor="start" x="1752.5" y="-79.1" font-family="Times,serif" font-size="18.00" fill="#000000">010100</text>
<polygon fill="none" stroke="#000000" points="1811.5,-52.5 1811.5,-116.5 1875.5,-116.5 1875.5,-52.5 1811.5,-52.5"/>
<text text-anchor="start" x="1816.5" y="-79.1" font-family="Times,serif" font-size="18.00" fill="#000000">010101</text>
<text text-anchor="start" x="1290.2558" y="-20.3" font-family="Times,serif" font-size="18.00" fill="#000000">Y↑,X→</text>
<text text-anchor="start" x="1391" y="-20.3" font-family="Times,serif" font-size="18.00" fill="#000000">0</text>
<text text-anchor="start" x="1455" y="-20.3" font-family="Times,serif" font-size="18.00" fill="#000000">1</text>
<text text-anchor="start" x="1519" y="-20.3" font-family="Times,serif" font-size="18.00" fill="#000000">2</text>
<text text-anchor="start" x="1583" y="-20.3" font-family="Times,serif" font-size="18.00" fill="#000000">3</text>
<text text-anchor="start" x="1647" y="-20.3" font-family="Times,serif" font-size="18.00" fill="#000000">4</text>
<text text-anchor="start" x="1711" y="-20.3" font-family="Times,serif" font-size="18.00" fill="#000000">5</text>
<text text-anchor="start" x="1775" y="-20.3" font-family="Times,serif" font-size="18.00" fill="#000000">6</text>
<text text-anchor="start" x="1839" y="-20.3" font-family="Times,serif" font-size="18.00" fill="#000000">7</text>
</g>
<!-- B5&#45;&gt;L3 -->
<g id="edge11" class="edge">
<title>B5&#45;&gt;L3</title>
<path fill="none" stroke="#000000" d="M1152.4999,-783.3597C1191.9977,-736.4809 1259.9069,-655.8815 1329.8445,-572.8745"/>
<polygon fill="#000000" stroke="#000000" points="1332.6231,-575.0086 1336.3899,-565.106 1327.2699,-570.4982 1332.6231,-575.0086"/>
</g>
<!-- L1&#45;&gt;L2 -->
<!-- L2&#45;&gt;L3 -->
</g>
</svg>
