<?xml version="1.0" encoding="UTF-8" standalone="no"?>
<!DOCTYPE svg PUBLIC "-//W3C//DTD SVG 1.1//EN"
 "http://www.w3.org/Graphics/SVG/1.1/DTD/svg11.dtd">
<!-- Generated by graphviz version 2.40.1 (20161225.0304)
 -->
<!-- Title: %0 Pages: 1 -->
<svg width="1844pt" height="923pt"
 viewBox="0.00 0.00 1844.00 923.40" xmlns="http://www.w3.org/2000/svg" xmlns:xlink="http://www.w3.org/1999/xlink">
<g id="graph0" class="graph" transform="scale(1 1) rotate(0) translate(4 919.4)">
<title>%0</title>
<polygon fill="#ffffff" stroke="transparent" points="-4,4 -4,-919.4 1840,-919.4 1840,4 -4,4"/>
<g id="clust2" class="cluster">
<title>cluster_L3</title>
<polygon fill="none" stroke="#000000" points="597,-703 597,-907.4 1133,-907.4 1133,-703 597,-703"/>
<text text-anchor="middle" x="1103.8138" y="-711.2" font-family="Times,serif" font-size="14.00" fill="#000000">Level 3</text>
</g>
<g id="clust3" class="cluster">
<title>cluster_L2</title>
<polygon fill="none" stroke="#000000" points="605,-735.8 605,-899.4 953,-899.4 953,-735.8 605,-735.8"/>
<text text-anchor="middle" x="923.8138" y="-744" font-family="Times,serif" font-size="14.00" fill="#000000">Level 2</text>
</g>
<g id="clust4" class="cluster">
<title>cluster_L1</title>
<polygon fill="none" stroke="#000000" points="613,-768.6 613,-891.4 773,-891.4 773,-768.6 613,-768.6"/>
<text text-anchor="middle" x="743.8138" y="-776.8" font-family="Times,serif" font-size="14.00" fill="#000000">Level 1</text>
</g>
<!-- L10 -->
<!-- B0 -->
<g id="node2" class="node">
<title>B0</title>
<polygon fill="none" stroke="#000000" points="621,-801.9 621,-837.9 675,-837.9 675,-801.9 621,-801.9"/>
<text text-anchor="middle" x="648" y="-815.7" font-family="Times,serif" font-size="14.00" fill="#000000">0</text>
</g>
<!-- L10&#45;&gt;B0 -->
<!-- B1 -->
<g id="node3" class="node">
<title>B1</title>
<polygon fill="none" stroke="#000000" points="711,-801.9 711,-837.9 765,-837.9 765,-801.9 711,-801.9"/>
<text text-anchor="middle" x="738" y="-815.7" font-family="Times,serif" font-size="14.00" fill="#000000">1</text>
</g>
<!-- L10&#45;&gt;B1 -->
<!-- L1 -->
<g id="node10" class="node">
<title>L1</title>
<text text-anchor="start" x="34.5" y="-427.8" font-family="Times,serif" font-size="14.00" fill="#000000">1</text>
<polygon fill="none" stroke="#000000" points="76,-304 76,-560 332,-560 332,-304 76,-304"/>
<text text-anchor="start" x="197" y="-427.8" font-family="Times,serif" font-size="14.00" fill="#000000">10</text>
<polygon fill="none" stroke="#000000" points="332,-304 332,-560 588,-560 588,-304 332,-304"/>
<text text-anchor="start" x="453" y="-427.8" font-family="Times,serif" font-size="14.00" fill="#000000">11</text>
<text text-anchor="start" x="34.5" y="-171.8" font-family="Times,serif" font-size="14.00" fill="#000000">0</text>
<polygon fill="none" stroke="#000000" points="76,-48 76,-304 332,-304 332,-48 76,-48"/>
<text text-anchor="start" x="197" y="-171.8" font-family="Times,serif" font-size="14.00" fill="#000000">00</text>
<polygon fill="none" stroke="#00ff00" stroke-width="8" points="336,-52 336,-300 584,-300 584,-52 336,-52"/>
<text text-anchor="start" x="453" y="-171.8" font-family="Times,serif" font-size="14.00" fill="#000000">01</text>
<text text-anchor="start" x="15.6434" y="-19.4" font-family="Times,serif" font-size="14.00" fill="#000000">Y↑,X→</text>
<text text-anchor="start" x="200.5" y="-19.4" font-family="Times,serif" font-size="14.00" fill="#000000">0</text>
<text text-anchor="start" x="456.5" y="-19.4" font-family="Times,serif" font-size="14.00" fill="#000000">1</text>
</g>
<!-- B1&#45;&gt;L1 -->
<g id="edge9" class="edge">
<title>B1&#45;&gt;L1</title>
<path fill="none" stroke="#000000" d="M695.8129,-768.6008C656.4662,-720.7557 594.4216,-645.31 530.7517,-567.8879"/>
<polygon fill="#000000" stroke="#000000" points="533.4385,-565.6448 524.3834,-560.1442 528.0319,-570.091 533.4385,-565.6448"/>
</g>
<!-- L20 -->
<!-- B2 -->
<g id="node5" class="node">
<title>B2</title>
<polygon fill="none" stroke="#000000" points="801,-801.9 801,-837.9 855,-837.9 855,-801.9 801,-801.9"/>
<text text-anchor="middle" x="828" y="-815.7" font-family="Times,serif" font-size="14.00" fill="#000000">0</text>
</g>
<!-- L20&#45;&gt;B2 -->
<!-- B3 -->
<g id="node6" class="node">
<title>B3</title>
<polygon fill="none" stroke="#000000" points="891,-801.9 891,-837.9 945,-837.9 945,-801.9 891,-801.9"/>
<text text-anchor="middle" x="918" y="-815.7" font-family="Times,serif" font-size="14.00" fill="#000000">0</text>
</g>
<!-- L20&#45;&gt;B3 -->
<!-- L2 -->
<g id="node11" class="node">
<title>L2</title>
<text text-anchor="start" x="658.5" y="-491.8" font-family="Times,serif" font-size="14.00" fill="#000000">3</text>
<polygon fill="none" stroke="#000000" points="700,-432 700,-560 828,-560 828,-432 700,-432"/>
<text text-anchor="start" x="750" y="-491.8" font-family="Times,serif" font-size="14.00" fill="#000000">1010</text>
<polygon fill="none" stroke="#000000" points="828,-432 828,-560 956,-560 956,-432 828,-432"/>
<text text-anchor="start" x="878" y="-491.8" font-family="Times,serif" font-size="14.00" fill="#000000">1011</text>
<polygon fill="none" stroke="#000000" points="956,-432 956,-560 1084,-560 1084,-432 956,-432"/>
<text text-anchor="start" x="1006" y="-491.8" font-family="Times,serif" font-size="14.00" fill="#000000">1110</text>
<polygon fill="none" stroke="#000000" points="1084,-432 1084,-560 1212,-560 1212,-432 1084,-432"/>
<text text-anchor="start" x="1134" y="-491.8" font-family="Times,serif" font-size="14.00" fill="#000000">1111</text>
<text text-anchor="start" x="658.5" y="-363.8" font-family="Times,serif" font-size="14.00" fill="#000000">2</text>
<polygon fill="none" stroke="#000000" points="700,-304 700,-432 828,-432 828,-304 700,-304"/>
<text text-anchor="start" x="750" y="-363.8" font-family="Times,serif" font-size="14.00" fill="#000000">1000</text>
<polygon fill="none" stroke="#000000" points="828,-304 828,-432 956,-432 956,-304 828,-304"/>
<text text-anchor="start" x="878" y="-363.8" font-family="Times,serif" font-size="14.00" fill="#000000">1001</text>
<polygon fill="none" stroke="#000000" points="956,-304 956,-432 1084,-432 1084,-304 956,-304"/>
<text text-anchor="start" x="1006" y="-363.8" font-family="Times,serif" font-size="14.00" fill="#000000">1100</text>
<polygon fill="none" stroke="#000000" points="1084,-304 1084,-432 1212,-432 1212,-304 1084,-304"/>
<text text-anchor="start" x="1134" y="-363.8" font-family="Times,serif" font-size="14.00" fill="#000000">1101</text>
<text text-anchor="start" x="658.5" y="-235.8" font-family="Times,serif" font-size="14.00" fill="#000000">1</text>
<polygon fill="none" stroke="#000000" points="700,-176 700,-304 828,-304 828,-176 700,-176"/>
<text text-anchor="start" x="750" y="-235.8" font-family="Times,serif" font-size="14.00" fill="#000000">0010</text>
<polygon fill="none" stroke="#000000" points="828,-176 828,-304 956,-304 956,-176 828,-176"/>
<text text-anchor="start" x="878" y="-235.8" font-family="Times,serif" font-size="14.00" fill="#000000">0011</text>
<polygon fill="none" stroke="#000000" points="956,-176 956,-304 1084,-304 1084,-176 956,-176"/>
<text text-anchor="start" x="1006" y="-235.8" font-family="Times,serif" font-size="14.00" fill="#000000">0110</text>
<polygon fill="none" stroke="#000000" points="1084,-176 1084,-304 1212,-304 1212,-176 1084,-176"/>
<text text-anchor="start" x="1134" y="-235.8" font-family="Times,serif" font-size="14.00" fill="#000000">0111</text>
<text text-anchor="start" x="658.5" y="-107.8" font-family="Times,serif" font-size="14.00" fill="#000000">0</text>
<polygon fill="none" stroke="#000000" points="700,-48 700,-176 828,-176 828,-48 700,-48"/>
<text text-anchor="start" x="750" y="-107.8" font-family="Times,serif" font-size="14.00" fill="#000000">0000</text>
<polygon fill="none" stroke="#000000" points="828,-48 828,-176 956,-176 956,-48 828,-48"/>
<text text-anchor="start" x="878" y="-107.8" font-family="Times,serif" font-size="14.00" fill="#000000">0001</text>
<polygon fill="none" stroke="#00ff00" stroke-width="4" points="958,-50 958,-174 1082,-174 1082,-50 958,-50"/>
<text text-anchor="start" x="1006" y="-107.8" font-family="Times,serif" font-size="14.00" fill="#000000">0100</text>
<polygon fill="none" stroke="#000000" points="1084,-48 1084,-176 1212,-176 1212,-48 1084,-48"/>
<text text-anchor="start" x="1134" y="-107.8" font-family="Times,serif" font-size="14.00" fill="#000000">0101</text>
<text text-anchor="start" x="639.6434" y="-19.4" font-family="Times,serif" font-size="14.00" fill="#000000">Y↑,X→</text>
<text text-anchor="start" x="760.5" y="-19.4" font-family="Times,serif" font-size="14.00" fill="#000000">0</text>
<text text-anchor="start" x="888.5" y="-19.4" font-family="Times,serif" font-size="14.00" fill="#000000">1</text>
<text text-anchor="start" x="1016.5" y="-19.4" font-family="Times,serif" font-size="14.00" fill="#000000">2</text>
<text text-anchor="start" x="1144.5" y="-19.4" font-family="Times,serif" font-size="14.00" fill="#000000">3</text>
</g>
<!-- B3&#45;&gt;L2 -->
<g id="edge10" class="edge">
<title>B3&#45;&gt;L2</title>
<path fill="none" stroke="#000000" d="M918,-735.803C918,-690.2363 918,-630.9405 918,-570.2682"/>
<polygon fill="#000000" stroke="#000000" points="921.5001,-570.1442 918,-560.1442 914.5001,-570.1442 921.5001,-570.1442"/>
</g>
<!-- L30 -->
<!-- B4 -->
<g id="node8" class="node">
<title>B4</title>
<polygon fill="none" stroke="#000000" points="981,-801.9 981,-837.9 1035,-837.9 1035,-801.9 981,-801.9"/>
<text text-anchor="middle" x="1008" y="-815.7" font-family="Times,serif" font-size="14.00" fill="#000000">1</text>
</g>
<!-- L30&#45;&gt;B4 -->
<!-- B5 -->
<g id="node9" class="node">
<title>B5</title>
<polygon fill="none" stroke="#000000" points="1071,-801.9 1071,-837.9 1125,-837.9 1125,-801.9 1071,-801.9"/>
<text text-anchor="middle" x="1098" y="-815.7" font-family="Times,serif" font-size="14.00" fill="#000000">1</text>
</g>
<!-- L30&#45;&gt;B5 -->
<!-- L3 -->
<g id="node12" class="node">
<title>L3</title>
<text text-anchor="start" x="1282.5" y="-523.8" font-family="Times,serif" font-size="14.00" fill="#000000">7</text>
<polygon fill="none" stroke="#000000" points="1324,-496 1324,-560 1388,-560 1388,-496 1324,-496"/>
<text text-anchor="start" x="1335" y="-523.8" font-family="Times,serif" font-size="14.00" fill="#000000">101010</text>
<polygon fill="none" stroke="#000000" points="1388,-496 1388,-560 1452,-560 1452,-496 1388,-496"/>
<text text-anchor="start" x="1399" y="-523.8" font-family="Times,serif" font-size="14.00" fill="#000000">101011</text>
<polygon fill="none" stroke="#000000" points="1452,-496 1452,-560 1516,-560 1516,-496 1452,-496"/>
<text text-anchor="start" x="1463" y="-523.8" font-family="Times,serif" font-size="14.00" fill="#000000">101110</text>
<polygon fill="none" stroke="#000000" points="1516,-496 1516,-560 1580,-560 1580,-496 1516,-496"/>
<text text-anchor="start" x="1527" y="-523.8" font-family="Times,serif" font-size="14.00" fill="#000000">101111</text>
<polygon fill="none" stroke="#000000" points="1580,-496 1580,-560 1644,-560 1644,-496 1580,-496"/>
<text text-anchor="start" x="1591" y="-523.8" font-family="Times,serif" font-size="14.00" fill="#000000">111010</text>
<polygon fill="none" stroke="#000000" points="1644,-496 1644,-560 1708,-560 1708,-496 1644,-496"/>
<text text-anchor="start" x="1655" y="-523.8" font-family="Times,serif" font-size="14.00" fill="#000000">111011</text>
<polygon fill="none" stroke="#000000" points="1708,-496 1708,-560 1772,-560 1772,-496 1708,-496"/>
<text text-anchor="start" x="1719" y="-523.8" font-family="Times,serif" font-size="14.00" fill="#000000">111110</text>
<polygon fill="none" stroke="#000000" points="1772,-496 1772,-560 1836,-560 1836,-496 1772,-496"/>
<text text-anchor="start" x="1783" y="-523.8" font-family="Times,serif" font-size="14.00" fill="#000000">111111</text>
<text text-anchor="start" x="1282.5" y="-459.8" font-family="Times,serif" font-size="14.00" fill="#000000">6</text>
<polygon fill="none" stroke="#000000" points="1324,-432 1324,-496 1388,-496 1388,-432 1324,-432"/>
<text text-anchor="start" x="1335" y="-459.8" font-family="Times,serif" font-size="14.00" fill="#000000">101000</text>
<polygon fill="none" stroke="#000000" points="1388,-432 1388,-496 1452,-496 1452,-432 1388,-432"/>
<text text-anchor="start" x="1399" y="-459.8" font-family="Times,serif" font-size="14.00" fill="#000000">101001</text>
<polygon fill="none" stroke="#000000" points="1452,-432 1452,-496 1516,-496 1516,-432 1452,-432"/>
<text text-anchor="start" x="1463" y="-459.8" font-family="Times,serif" font-size="14.00" fill="#000000">101100</text>
<polygon fill="none" stroke="#000000" points="1516,-432 1516,-496 1580,-496 1580,-432 1516,-432"/>
<text text-anchor="start" x="1527" y="-459.8" font-family="Times,serif" font-size="14.00" fill="#000000">101101</text>
<polygon fill="none" stroke="#000000" points="1580,-432 1580,-496 1644,-496 1644,-432 1580,-432"/>
<text text-anchor="start" x="1591" y="-459.8" font-family="Times,serif" font-size="14.00" fill="#000000">111000</text>
<polygon fill="none" stroke="#000000" points="1644,-432 1644,-496 1708,-496 1708,-432 1644,-432"/>
<text text-anchor="start" x="1655" y="-459.8" font-family="Times,serif" font-size="14.00" fill="#000000">111001</text>
<polygon fill="none" stroke="#000000" points="1708,-432 1708,-496 1772,-496 1772,-432 1708,-432"/>
<text text-anchor="start" x="1719" y="-459.8" font-family="Times,serif" font-size="14.00" fill="#000000">111100</text>
<polygon fill="none" stroke="#000000" points="1772,-432 1772,-496 1836,-496 1836,-432 1772,-432"/>
<text text-anchor="start" x="1783" y="-459.8" font-family="Times,serif" font-size="14.00" fill="#000000">111101</text>
<text text-anchor="start" x="1282.5" y="-395.8" font-family="Times,serif" font-size="14.00" fill="#000000">5</text>
<polygon fill="none" stroke="#000000" points="1324,-368 1324,-432 1388,-432 1388,-368 1324,-368"/>
<text text-anchor="start" x="1335" y="-395.8" font-family="Times,serif" font-size="14.00" fill="#000000">100010</text>
<polygon fill="none" stroke="#000000" points="1388,-368 1388,-432 1452,-432 1452,-368 1388,-368"/>
<text text-anchor="start" x="1399" y="-395.8" font-family="Times,serif" font-size="14.00" fill="#000000">100011</text>
<polygon fill="none" stroke="#000000" points="1452,-368 1452,-432 1516,-432 1516,-368 1452,-368"/>
<text text-anchor="start" x="1463" y="-395.8" font-family="Times,serif" font-size="14.00" fill="#000000">100110</text>
<polygon fill="none" stroke="#000000" points="1516,-368 1516,-432 1580,-432 1580,-368 1516,-368"/>
<text text-anchor="start" x="1527" y="-395.8" font-family="Times,serif" font-size="14.00" fill="#000000">100111</text>
<polygon fill="none" stroke="#000000" points="1580,-368 1580,-432 1644,-432 1644,-368 1580,-368"/>
<text text-anchor="start" x="1591" y="-395.8" font-family="Times,serif" font-size="14.00" fill="#000000">110010</text>
<polygon fill="none" stroke="#000000" points="1644,-368 1644,-432 1708,-432 1708,-368 1644,-368"/>
<text text-anchor="start" x="1655" y="-395.8" font-family="Times,serif" font-size="14.00" fill="#000000">110011</text>
<polygon fill="none" stroke="#000000" points="1708,-368 1708,-432 1772,-432 1772,-368 1708,-368"/>
<text text-anchor="start" x="1719" y="-395.8" font-family="Times,serif" font-size="14.00" fill="#000000">110110</text>
<polygon fill="none" stroke="#000000" points="1772,-368 1772,-432 1836,-432 1836,-368 1772,-368"/>
<text text-anchor="start" x="1783" y="-395.8" font-family="Times,serif" font-size="14.00" fill="#000000">110111</text>
<text text-anchor="start" x="1282.5" y="-331.8" font-family="Times,serif" font-size="14.00" fill="#000000">4</text>
<polygon fill="none" stroke="#000000" points="1324,-304 1324,-368 1388,-368 1388,-304 1324,-304"/>
<text text-anchor="start" x="1335" y="-331.8" font-family="Times,serif" font-size="14.00" fill="#000000">100000</text>
<polygon fill="none" stroke="#000000" points="1388,-304 1388,-368 1452,-368 1452,-304 1388,-304"/>
<text text-anchor="start" x="1399" y="-331.8" font-family="Times,serif" font-size="14.00" fill="#000000">100001</text>
<polygon fill="none" stroke="#000000" points="1452,-304 1452,-368 1516,-368 1516,-304 1452,-304"/>
<text text-anchor="start" x="1463" y="-331.8" font-family="Times,serif" font-size="14.00" fill="#000000">100100</text>
<polygon fill="none" stroke="#000000" points="1516,-304 1516,-368 1580,-368 1580,-304 1516,-304"/>
<text text-anchor="start" x="1527" y="-331.8" font-family="Times,serif" font-size="14.00" fill="#000000">100101</text>
<polygon fill="none" stroke="#000000" points="1580,-304 1580,-368 1644,-368 1644,-304 1580,-304"/>
<text text-anchor="start" x="1591" y="-331.8" font-family="Times,serif" font-size="14.00" fill="#000000">110000</text>
<polygon fill="none" stroke="#000000" points="1644,-304 1644,-368 1708,-368 1708,-304 1644,-304"/>
<text text-anchor="start" x="1655" y="-331.8" font-family="Times,serif" font-size="14.00" fill="#000000">110001</text>
<polygon fill="none" stroke="#000000" points="1708,-304 1708,-368 1772,-368 1772,-304 1708,-304"/>
<text text-anchor="start" x="1719" y="-331.8" font-family="Times,serif" font-size="14.00" fill="#000000">110100</text>
<polygon fill="none" stroke="#000000" points="1772,-304 1772,-368 1836,-368 1836,-304 1772,-304"/>
<text text-anchor="start" x="1783" y="-331.8" font-family="Times,serif" font-size="14.00" fill="#000000">110101</text>
<text text-anchor="start" x="1282.5" y="-267.8" font-family="Times,serif" font-size="14.00" fill="#000000">3</text>
<polygon fill="none" stroke="#000000" points="1324,-240 1324,-304 1388,-304 1388,-240 1324,-240"/>
<text text-anchor="start" x="1335" y="-267.8" font-family="Times,serif" font-size="14.00" fill="#000000">001010</text>
<polygon fill="none" stroke="#000000" points="1388,-240 1388,-304 1452,-304 1452,-240 1388,-240"/>
<text text-anchor="start" x="1399" y="-267.8" font-family="Times,serif" font-size="14.00" fill="#000000">001011</text>
<polygon fill="none" stroke="#000000" points="1452,-240 1452,-304 1516,-304 1516,-240 1452,-240"/>
<text text-anchor="start" x="1463" y="-267.8" font-family="Times,serif" font-size="14.00" fill="#000000">001110</text>
<polygon fill="none" stroke="#000000" points="1516,-240 1516,-304 1580,-304 1580,-240 1516,-240"/>
<text text-anchor="start" x="1527" y="-267.8" font-family="Times,serif" font-size="14.00" fill="#000000">001111</text>
<polygon fill="none" stroke="#000000" points="1580,-240 1580,-304 1644,-304 1644,-240 1580,-240"/>
<text text-anchor="start" x="1591" y="-267.8" font-family="Times,serif" font-size="14.00" fill="#000000">011010</text>
<polygon fill="none" stroke="#000000" points="1644,-240 1644,-304 1708,-304 1708,-240 1644,-240"/>
<text text-anchor="start" x="1655" y="-267.8" font-family="Times,serif" font-size="14.00" fill="#000000">011011</text>
<polygon fill="none" stroke="#000000" points="1708,-240 1708,-304 1772,-304 1772,-240 1708,-240"/>
<text text-anchor="start" x="1719" y="-267.8" font-family="Times,serif" font-size="14.00" fill="#000000">011110</text>
<polygon fill="none" stroke="#000000" points="1772,-240 1772,-304 1836,-304 1836,-240 1772,-240"/>
<text text-anchor="start" x="1783" y="-267.8" font-family="Times,serif" font-size="14.00" fill="#000000">011111</text>
<text text-anchor="start" x="1282.5" y="-203.8" font-family="Times,serif" font-size="14.00" fill="#000000">2</text>
<polygon fill="none" stroke="#000000" points="1324,-176 1324,-240 1388,-240 1388,-176 1324,-176"/>
<text text-anchor="start" x="1335" y="-203.8" font-family="Times,serif" font-size="14.00" fill="#000000">001000</text>
<polygon fill="none" stroke="#000000" points="1388,-176 1388,-240 1452,-240 1452,-176 1388,-176"/>
<text text-anchor="start" x="1399" y="-203.8" font-family="Times,serif" font-size="14.00" fill="#000000">001001</text>
<polygon fill="none" stroke="#000000" points="1452,-176 1452,-240 1516,-240 1516,-176 1452,-176"/>
<text text-anchor="start" x="1463" y="-203.8" font-family="Times,serif" font-size="14.00" fill="#000000">001100</text>
<polygon fill="none" stroke="#000000" points="1516,-176 1516,-240 1580,-240 1580,-176 1516,-176"/>
<text text-anchor="start" x="1527" y="-203.8" font-family="Times,serif" font-size="14.00" fill="#000000">001101</text>
<polygon fill="none" stroke="#000000" points="1580,-176 1580,-240 1644,-240 1644,-176 1580,-176"/>
<text text-anchor="start" x="1591" y="-203.8" font-family="Times,serif" font-size="14.00" fill="#000000">011000</text>
<polygon fill="none" stroke="#000000" points="1644,-176 1644,-240 1708,-240 1708,-176 1644,-176"/>
<text text-anchor="start" x="1655" y="-203.8" font-family="Times,serif" font-size="14.00" fill="#000000">011001</text>
<polygon fill="none" stroke="#000000" points="1708,-176 1708,-240 1772,-240 1772,-176 1708,-176"/>
<text text-anchor="start" x="1719" y="-203.8" font-family="Times,serif" font-size="14.00" fill="#000000">011100</text>
<polygon fill="none" stroke="#000000" points="1772,-176 1772,-240 1836,-240 1836,-176 1772,-176"/>
<text text-anchor="start" x="1783" y="-203.8" font-family="Times,serif" font-size="14.00" fill="#000000">011101</text>
<text text-anchor="start" x="1282.5" y="-139.8" font-family="Times,serif" font-size="14.00" fill="#000000">1</text>
<polygon fill="none" stroke="#000000" points="1324,-112 1324,-176 1388,-176 1388,-112 1324,-112"/>
<text text-anchor="start" x="1335" y="-139.8" font-family="Times,serif" font-size="14.00" fill="#000000">000010</text>
<polygon fill="none" stroke="#000000" points="1388,-112 1388,-176 1452,-176 1452,-112 1388,-112"/>
<text text-anchor="start" x="1399" y="-139.8" font-family="Times,serif" font-size="14.00" fill="#000000">000011</text>
<polygon fill="none" stroke="#000000" points="1452,-112 1452,-176 1516,-176 1516,-112 1452,-112"/>
<text text-anchor="start" x="1463" y="-139.8" font-family="Times,serif" font-size="14.00" fill="#000000">000110</text>
<polygon fill="none" stroke="#000000" points="1516,-112 1516,-176 1580,-176 1580,-112 1516,-112"/>
<text text-anchor="start" x="1527" y="-139.8" font-family="Times,serif" font-size="14.00" fill="#000000">000111</text>
<polygon fill="none" stroke="#000000" points="1580,-112 1580,-176 1644,-176 1644,-112 1580,-112"/>
<text text-anchor="start" x="1591" y="-139.8" font-family="Times,serif" font-size="14.00" fill="#000000">010010</text>
<polygon fill="#00ff00" stroke="transparent" points="1644,-112 1644,-176 1708,-176 1708,-112 1644,-112"/>
<polygon fill="none" stroke="#000000" points="1644,-112 1644,-176 1708,-176 1708,-112 1644,-112"/>
<text text-anchor="start" x="1655" y="-139.8" font-family="Times,serif" font-size="14.00" fill="#000000">010011</text>
<polygon fill="none" stroke="#000000" points="1708,-112 1708,-176 1772,-176 1772,-112 1708,-112"/>
<text text-anchor="start" x="1719" y="-139.8" font-family="Times,serif" font-size="14.00" fill="#000000">010110</text>
<polygon fill="none" stroke="#000000" points="1772,-112 1772,-176 1836,-176 1836,-112 1772,-112"/>
<text text-anchor="start" x="1783" y="-139.8" font-family="Times,serif" font-size="14.00" fill="#000000">010111</text>
<text text-anchor="start" x="1282.5" y="-75.8" font-family="Times,serif" font-size="14.00" fill="#000000">0</text>
<polygon fill="none" stroke="#000000" points="1324,-48 1324,-112 1388,-112 1388,-48 1324,-48"/>
<text text-anchor="start" x="1338.5" y="-75.8" font-family="Times,serif" font-size="14.00" fill="#000000">00000</text>
<polygon fill="none" stroke="#000000" points="1388,-48 1388,-112 1452,-112 1452,-48 1388,-48"/>
<text text-anchor="start" x="1399" y="-75.8" font-family="Times,serif" font-size="14.00" fill="#000000">000001</text>
<polygon fill="none" stroke="#000000" points="1452,-48 1452,-112 1516,-112 1516,-48 1452,-48"/>
<text text-anchor="start" x="1463" y="-75.8" font-family="Times,serif" font-size="14.00" fill="#000000">000100</text>
<polygon fill="none" stroke="#000000" points="1516,-48 1516,-112 1580,-112 1580,-48 1516,-48"/>
<text text-anchor="start" x="1527" y="-75.8" font-family="Times,serif" font-size="14.00" fill="#000000">000101</text>
<polygon fill="none" stroke="#000000" points="1580,-48 1580,-112 1644,-112 1644,-48 1580,-48"/>
<text text-anchor="start" x="1591" y="-75.8" font-family="Times,serif" font-size="14.00" fill="#000000">010000</text>
<polygon fill="none" stroke="#000000" points="1644,-48 1644,-112 1708,-112 1708,-48 1644,-48"/>
<text text-anchor="start" x="1655" y="-75.8" font-family="Times,serif" font-size="14.00" fill="#000000">010001</text>
<polygon fill="none" stroke="#000000" points="1708,-48 1708,-112 1772,-112 1772,-48 1708,-48"/>
<text text-anchor="start" x="1719" y="-75.8" font-family="Times,serif" font-size="14.00" fill="#000000">010100</text>
<polygon fill="none" stroke="#000000" points="1772,-48 1772,-112 1836,-112 1836,-48 1772,-48"/>
<text text-anchor="start" x="1783" y="-75.8" font-family="Times,serif" font-size="14.00" fill="#000000">010101</text>
<text text-anchor="start" x="1263.6434" y="-19.4" font-family="Times,serif" font-size="14.00" fill="#000000">Y↑,X→</text>
<text text-anchor="start" x="1352.5" y="-19.4" font-family="Times,serif" font-size="14.00" fill="#000000">0</text>
<text text-anchor="start" x="1416.5" y="-19.4" font-family="Times,serif" font-size="14.00" fill="#000000">1</text>
<text text-anchor="start" x="1480.5" y="-19.4" font-family="Times,serif" font-size="14.00" fill="#000000">2</text>
<text text-anchor="start" x="1544.5" y="-19.4" font-family="Times,serif" font-size="14.00" fill="#000000">3</text>
<text text-anchor="start" x="1608.5" y="-19.4" font-family="Times,serif" font-size="14.00" fill="#000000">4</text>
<text text-anchor="start" x="1672.5" y="-19.4" font-family="Times,serif" font-size="14.00" fill="#000000">5</text>
<text text-anchor="start" x="1736.5" y="-19.4" font-family="Times,serif" font-size="14.00" fill="#000000">6</text>
<text text-anchor="start" x="1800.5" y="-19.4" font-family="Times,serif" font-size="14.00" fill="#000000">7</text>
</g>
<!-- B5&#45;&gt;L3 -->
<g id="edge11" class="edge">
<title>B5&#45;&gt;L3</title>
<path fill="none" stroke="#000000" d="M1132.9976,-777.3432C1171.6902,-730.2933 1237.5506,-650.2078 1305.2483,-567.8879"/>
<polygon fill="#000000" stroke="#000000" points="1307.9681,-570.091 1311.6166,-560.1442 1302.5615,-565.6448 1307.9681,-570.091"/>
</g>
<!-- L1&#45;&gt;L2 -->
<!-- L2&#45;&gt;L3 -->
</g>
</svg>
