<?xml version="1.0" encoding="utf-8"?>
<!-- Generator: Adobe Illustrator 21.0.0, SVG Export Plug-In . SVG Version: 6.00 Build 0)  -->
<svg version="1.1" id="Layer_1" xmlns="http://www.w3.org/2000/svg" xmlns:xlink="http://www.w3.org/1999/xlink" x="0px" y="0px"
	 viewBox="0 0 622.5 177" style="enable-background:new 0 0 622.5 177;" xml:space="preserve">
<style type="text/css">
	.st0{fill:#7A9C49;}
	.st1{fill:#344D1B;}
	.st2{fill:#6DABE4;}
	.st3{fill:#31506B;}
</style>
<g>
	<g>
		<path d="M220.8,113.5c2.2,0,4-0.1,5.4-0.3c1.4-0.2,2.6-0.5,3.5-1c0.9-0.5,1.5-1.2,1.8-2.1c0.4-0.9,0.5-2.2,0.5-3.7
			c0-1.5-0.3-2.7-0.8-3.6c-0.5-0.9-1.4-1.5-2.7-2.1c-1.3-0.5-3-0.8-5.2-1c-2.2-0.1-5-0.2-8.4-0.2h-13c-5.8,0-10,0.5-12.7,1.6
			c-2.7,1.1-4.1,3.3-4.2,6.6h-16.9v-2.8c0-3.5,0.4-6.6,1.3-9.1c0.9-2.6,2.5-4.7,4.9-6.3c2.4-1.7,5.7-2.9,9.9-3.7
			c4.2-0.8,9.6-1.2,16.3-1.2h15.1c6.6,0,12,0.3,16.4,0.9c4.4,0.6,7.8,1.7,10.5,3.2c2.6,1.5,4.5,3.6,5.6,6.2c1.1,2.6,1.6,5.9,1.6,9.8
			c0,3.2-0.3,5.9-0.8,7.8c-0.5,2-1.3,3.5-2.4,4.7c-1.1,1.2-2.6,1.9-4.3,2.4c-1.8,0.4-3.9,0.7-6.3,0.9c2.2,0.2,4.1,0.6,5.8,1.1
			c1.7,0.5,3.1,1.4,4.3,2.6c1.2,1.2,2.1,2.9,2.8,5c0.6,2.1,1,4.9,1,8.3c0,4.5-0.4,8.1-1.2,11c-0.8,2.8-2.4,5.1-4.8,6.8
			c-2.3,1.7-5.6,2.8-9.9,3.4c-4.3,0.6-9.8,0.9-16.6,0.9h-16.4c-6.6,0-11.9-0.4-16.2-1.1c-4.2-0.7-7.5-1.9-10-3.5
			c-2.4-1.6-4.1-3.7-5.1-6.4c-0.9-2.6-1.4-5.8-1.4-9.6v-1.4h17.4c0,1.7,0.3,3.1,1,4c0.6,0.9,1.6,1.6,2.9,2.1
			c1.3,0.4,2.8,0.7,4.8,0.8c1.9,0.1,4.1,0.2,6.6,0.2h15.3c3.1,0,5.7-0.1,7.7-0.3c2.1-0.2,3.7-0.6,4.9-1.1c1.2-0.6,2-1.4,2.5-2.4
			c0.5-1,0.7-2.4,0.7-4.2s-0.2-3.2-0.7-4.3c-0.5-1.1-1.2-2-2.1-2.5c-0.9-0.6-2.1-1-3.4-1.2c-1.3-0.2-2.9-0.3-4.7-0.3h-21.9v-15
			H220.8z"/>
		<path d="M326.8,86.2c4,1,7.2,2.7,9.7,5c2.5,2.3,4.3,5.4,5.3,9.2c1.1,3.8,1.6,8.5,1.6,14V129c0,6-0.5,10.9-1.5,14.9
			c-1,4-2.6,7.1-4.9,9.5c-2.3,2.3-5.4,4-9.2,5c-3.9,1-8.6,1.5-14.3,1.5H259V84.7h53C317.9,84.7,322.8,85.2,326.8,86.2z M317.4,144
			c2.1-0.5,3.8-1.4,5-2.7c1.2-1.3,2.1-3,2.5-5.1c0.4-2.1,0.6-4.8,0.6-8v-12.5c0-2.9-0.2-5.3-0.7-7.4c-0.5-2.1-1.3-3.7-2.6-5
			c-1.3-1.3-2.9-2.2-5-2.8c-2.1-0.6-4.8-0.9-8-0.9H277v45.2h32.2C312.5,144.8,315.3,144.5,317.4,144z"/>
	</g>
	<g>
		<path d="M349.8,92.4v-7.8h61.9v7.8h-27.1v67.3h-7.8V92.4H349.8z"/>
		<path d="M423.1,92.4v-7.8h7.8v7.8H423.1z M423.1,159.8v-53.7h7.8v53.7H423.1z"/>
		<path d="M442.5,159.8V84.6h7.8v75.1H442.5z"/>
		<path d="M509.9,159.8h-26.2c-6.8,0-12.3-1.9-16.5-5.7c-4.2-3.8-6.3-8.4-6.3-13.9v-14.4c0-5,1.9-9.4,5.8-13.2
			c4.3-4.3,9.9-6.5,16.8-6.5h22.4c7.4,0,13.1,1.9,17.2,5.6c3.8,3.4,5.8,7.8,5.8,13.1v7.8c1.5,0-3.7,0-15.5,0c-11.9,0-21.5,0-29,0
			c-3.3,0-8.5,0-15.6,0v6.1c-0.1,4.6,1.4,8.2,4.3,10.8c2.7,2.4,6.2,3.6,10.4,3.6h25.4c4,0,7.1-1,9.2-2.9c1.9-1.7,2.9-3.8,2.9-6.5
			v-1.1h7.8v1.1c0,4.1-1.3,7.6-4,10.4C521.5,157.9,516.5,159.8,509.9,159.8z M521.2,126c0-4-1.3-7.2-3.9-9.7
			c-2.6-2.4-6.1-3.7-10.5-3.7h-24.5c-3.9,0-7.2,1.3-9.7,4c-2.6,2.6-3.8,5.8-3.8,9.4C503.7,126.4,521.2,126.4,521.2,126z"/>
		<path d="M586.6,159.7l-29.7,0.1c-12.4,0-18.6-4.4-18.6-13.3v-3.7h7.8v3c0,2.5,0.7,4.2,2.2,5.3c1.8,1.4,5.3,2.2,10.3,2.2h27.7
			c7.8,0,11.6-2.4,11.6-7.3v-2.3c0-5-3.4-7.6-10.2-7.6h-31.1c-12.2,0-18.2-4.6-18.2-13.8v-2.3c0-3.9,1.5-7.1,4.6-9.6
			c3.4-2.8,8.3-4.2,14.5-4.2h25.3c15.4,0,23.2,4.4,23.2,13.2v3.7h-7.8v-3.5c0-4.6-5.1-6.8-15.2-6.8h-26.6c-6.8,0-10.2,2.4-10.2,7.2
			v2.3c0,4.8,3.4,7.2,10.2,7.2h31.1c12.2,0,18.2,4.7,18.2,14.2v2.3c0,3.9-1.5,7.1-4.6,9.6C597.7,158.3,592.9,159.7,586.6,159.7z"/>
	</g>
	<g>
		<g>
			<path class="st0" d="M43.8,48.9c0.6,0,1.1,0.2,1.5,0.6l32.2,32.7c0.9,0.9,0.9,2.3,0,3.1l-32.7,33.2c-0.4,0.4-1,0.6-1.5,0.6
				c-0.6,0-1.1-0.2-1.5-0.6L9.5,85.9c-0.8-0.9-0.8-2.3,0-3.1l32.7-33.2C42.7,49.1,43.2,48.9,43.8,48.9z"/>
		</g>
		<path class="st1" d="M82,83.8c0-0.1,0-0.1,0-0.2c0,0,0-0.1,0-0.1c0,0,0-0.1,0-0.1c0,0,0,0,0-0.1c0,0,0-0.1,0-0.1
			c0-0.1-0.1-0.3-0.1-0.4c0,0,0-0.1-0.1-0.1c-0.1-0.2-0.2-0.3-0.3-0.4L49.2,49.5c0,0-0.1-0.1-0.1-0.1c-0.1,0-0.1-0.1-0.2-0.1
			c0,0,0,0-0.1,0c0,0,0,0,0,0c-0.1,0-0.1-0.1-0.2-0.1c0,0-0.1,0-0.1,0c0,0,0,0-0.1,0c0,0,0,0-0.1,0c-0.1,0-0.1,0-0.2-0.1
			c0,0,0,0-0.1,0c0,0,0,0-0.1,0c0,0-0.1,0-0.1,0c-0.1,0-0.2,0-0.2,0c0,0,0,0-0.1,0h-3.8c0.1,0,0.3,0,0.4,0c0,0,0,0,0.1,0
			c0.1,0,0.2,0.1,0.4,0.1c0,0,0,0,0.1,0c0.1,0,0.2,0.1,0.3,0.2c0,0,0,0,0.1,0c0.1,0.1,0.2,0.2,0.3,0.2l32.2,32.7
			c0.1,0.1,0.2,0.3,0.3,0.4c0,0,0,0.1,0.1,0.1c0.1,0.1,0.1,0.2,0.1,0.4c0,0.1,0,0.1,0,0.1c0,0,0,0.1,0,0.1c0,0.1,0,0.2,0,0.3
			c0,0,0,0,0,0.1c0,0.1,0,0.3,0,0.4c0,0,0,0,0,0.1c0,0.1-0.1,0.2-0.1,0.4c0,0,0,0,0,0.1c0,0.1-0.1,0.2-0.2,0.3c0,0,0,0.1-0.1,0.1
			c-0.1,0.1-0.1,0.2-0.2,0.3l-32.7,33.2c-0.4,0.4-1,0.6-1.5,0.6h3.8c0.6,0,1.1-0.2,1.5-0.6l32.7-33.2c0,0,0.1-0.1,0.1-0.2
			c0,0,0.1-0.1,0.1-0.1c0,0,0,0,0.1-0.1c0,0,0,0,0,0c0-0.1,0.1-0.1,0.1-0.2c0,0,0,0,0-0.1c0,0,0,0,0-0.1c0,0,0-0.1,0-0.1
			c0-0.1,0-0.1,0.1-0.2c0,0,0,0,0-0.1c0,0,0,0,0-0.1c0,0,0-0.1,0-0.1C82,84,82,83.9,82,83.8C82,83.8,82,83.8,82,83.8
			C82,83.8,82,83.8,82,83.8z"/>
		<g>
			<path class="st0" d="M83.2,88.9c0.6,0,1.1,0.2,1.5,0.6l32.2,32.7c0.8,0.9,0.8,2.3,0,3.1l-32.7,33.2c-0.4,0.4-1,0.6-1.5,0.6
				s-1.1-0.2-1.5-0.6L49,125.9c-0.8-0.9-0.8-2.3,0-3.1l32.7-33.2C82.1,89.1,82.6,88.9,83.2,88.9z"/>
		</g>
		<path class="st1" d="M121.4,123.8c0-0.1,0-0.1,0-0.2c0,0,0-0.1,0-0.1c0,0,0-0.1,0-0.1c0,0,0,0,0-0.1c0,0,0-0.1,0-0.1
			c0-0.1-0.1-0.3-0.1-0.4c0,0,0-0.1-0.1-0.1c-0.1-0.2-0.2-0.3-0.3-0.4L88.6,89.6c0,0-0.1-0.1-0.1-0.1c-0.1,0-0.1-0.1-0.2-0.1
			c0,0,0,0-0.1-0.1c0,0,0,0,0,0c-0.1,0-0.1-0.1-0.2-0.1c0,0-0.1,0-0.1,0c0,0,0,0-0.1,0c0,0,0,0-0.1,0c-0.1,0-0.1,0-0.2-0.1
			c0,0,0,0-0.1,0c0,0,0,0-0.1,0c0,0-0.1,0-0.1,0c-0.1,0-0.2,0-0.2,0c0,0,0,0-0.1,0h-3.8c0.1,0,0.3,0,0.4,0c0,0,0,0,0.1,0
			c0.1,0,0.2,0.1,0.4,0.1c0,0,0,0,0.1,0c0.1,0,0.2,0.1,0.3,0.2c0,0,0,0,0.1,0.1c0.1,0.1,0.2,0.2,0.3,0.2l32.2,32.7
			c0.1,0.1,0.2,0.3,0.3,0.4c0,0,0,0.1,0.1,0.1c0.1,0.1,0.1,0.2,0.1,0.4c0,0.1,0,0.1,0,0.2c0,0,0,0.1,0,0.1c0,0.1,0,0.2,0,0.3
			c0,0,0,0,0,0.1c0,0.1,0,0.2,0,0.4c0,0,0,0,0,0.1c0,0.1-0.1,0.2-0.1,0.4c0,0,0,0,0,0.1c0,0.1-0.1,0.2-0.2,0.3c0,0,0,0-0.1,0.1
			c-0.1,0.1-0.1,0.2-0.2,0.3l-32.7,33.2c-0.4,0.4-1,0.6-1.5,0.6h3.8c0.6,0,1.1-0.2,1.5-0.6l32.7-33.2c0,0,0.1-0.1,0.1-0.1
			c0,0,0.1-0.1,0.1-0.1c0,0,0,0,0.1-0.1c0,0,0,0,0,0c0-0.1,0.1-0.1,0.1-0.2c0,0,0-0.1,0-0.1c0,0,0,0,0-0.1c0,0,0-0.1,0-0.1
			c0-0.1,0-0.1,0.1-0.2c0,0,0,0,0-0.1c0,0,0,0,0-0.1c0,0,0-0.1,0-0.1C121.4,124.1,121.4,124,121.4,123.8
			C121.4,123.9,121.4,123.9,121.4,123.8C121.4,123.8,121.4,123.8,121.4,123.8z"/>
		<path class="st1" d="M121.7,43.5C121.7,43.5,121.7,43.4,121.7,43.5c0-0.1,0-0.2,0-0.2c0,0,0-0.1,0-0.1c0,0,0-0.1,0-0.1
			c0,0,0,0,0-0.1c0,0,0-0.1,0-0.1c0-0.1-0.1-0.3-0.1-0.4c0,0,0-0.1-0.1-0.1c-0.1-0.2-0.2-0.3-0.3-0.4L88.9,9.2c0,0-0.1-0.1-0.1-0.1
			c-0.1,0-0.1-0.1-0.2-0.1c0,0,0,0-0.1,0c0,0,0,0,0,0c-0.1,0-0.1-0.1-0.2-0.1c0,0-0.1,0-0.1,0c0,0,0,0-0.1,0c0,0,0,0-0.1,0
			c-0.1,0-0.1,0-0.2-0.1c0,0,0,0-0.1,0c0,0,0,0-0.1,0c0,0-0.1,0-0.1,0c-0.1,0-0.2,0-0.2,0c0,0,0,0-0.1,0h-3.8c0.1,0,0.3,0,0.4,0
			c0,0,0,0,0.1,0c0.1,0,0.2,0.1,0.3,0.1c0,0,0,0,0.1,0c0.1,0,0.2,0.1,0.3,0.2c0,0,0,0,0.1,0C84.8,9,85,9.1,85,9.2l32.2,32.7
			c0.1,0.1,0.2,0.3,0.3,0.4c0,0,0,0.1,0.1,0.1c0.1,0.1,0.1,0.2,0.1,0.4c0,0.1,0,0.1,0,0.2c0,0,0,0.1,0,0.1c0,0.1,0,0.2,0,0.3
			c0,0,0,0,0,0.1c0,0.1,0,0.3,0,0.4c0,0,0,0,0,0.1c0,0.1-0.1,0.2-0.1,0.4c0,0,0,0,0,0.1c0,0.1-0.1,0.2-0.2,0.3c0,0,0,0.1-0.1,0.1
			c-0.1,0.1-0.1,0.2-0.2,0.3L84.6,78.2c-0.4,0.4-1,0.6-1.5,0.6h3.8c0.6,0,1.1-0.2,1.5-0.6L121.1,45c0.1-0.1,0.1-0.1,0.1-0.2
			c0,0,0.1-0.1,0.1-0.1c0,0,0,0,0.1-0.1c0,0,0,0,0,0c0-0.1,0.1-0.1,0.1-0.2c0,0,0,0,0-0.1c0,0,0,0,0-0.1c0,0,0-0.1,0-0.1
			c0-0.1,0-0.1,0.1-0.2c0,0,0,0,0-0.1c0,0,0,0,0-0.1c0,0,0-0.1,0-0.1C121.7,43.7,121.7,43.6,121.7,43.5
			C121.7,43.5,121.7,43.5,121.7,43.5z"/>
		<g>
			<path class="st0" d="M83.5,8.5c0.6,0,1.1,0.2,1.5,0.6l32.2,32.7c0.9,0.9,0.9,2.3,0,3.1L84.6,78.2c-0.4,0.4-1,0.6-1.5,0.6
				c-0.6,0-1.1-0.2-1.5-0.6L49.3,45.5c-0.8-0.9-0.8-2.3,0-3.1L82,9.2C82.4,8.8,82.9,8.5,83.5,8.5z"/>
		</g>
		<g>
			<g>
				<path class="st2" d="M106.3,65.4c0.6,0,1.1,0.2,1.5,0.6l12.5,12.7c0.9,0.9,0.9,2.3,0,3.1l-16.1,16.3c-0.4,0.4-1,0.6-1.5,0.6
					s-1.1-0.2-1.5-0.6L88.7,85.6c-0.9-0.9-0.9-2.3,0-3.1l16.1-16.3C105.2,65.6,105.8,65.4,106.3,65.4z"/>
			</g>
			<g>
				<path class="st2" d="M113.1,98.7c0.6,0,1.1,0.2,1.5,0.6l12.5,12.7c0.8,0.9,0.8,2.3,0,3.1l-3.1,3.2c-0.4,0.4-1,0.6-1.5,0.6
					c-0.6,0-1.1-0.2-1.5-0.6l-12.5-12.7c-0.8-0.9-0.8-2.3,0-3.1l3.1-3.2C112,98.9,112.6,98.7,113.1,98.7z"/>
			</g>
			<g>
				<path class="st2" d="M122.9,48.6c0.6,0,1.1,0.2,1.5,0.6l12.5,12.7c0.8,0.9,0.8,2.3,0,3.1l-9.4,9.5c-0.4,0.4-1,0.6-1.5,0.6
					c-0.6,0-1.1-0.2-1.5-0.6L112,61.9c-0.8-0.9-0.8-2.3,0-3.1l9.4-9.5C121.8,48.8,122.4,48.6,122.9,48.6z"/>
			</g>
			<g>
				<path class="st3" d="M131.6,113.5c0-0.1,0-0.1,0-0.2c0,0,0-0.1,0-0.1c0,0,0-0.1,0-0.1c0,0,0,0,0-0.1c0,0,0-0.1,0-0.1
					c0-0.1-0.1-0.3-0.1-0.4c0,0,0-0.1-0.1-0.1c-0.1-0.2-0.2-0.3-0.3-0.4l-12.5-12.7c0,0-0.1-0.1-0.1-0.1c-0.1,0-0.1-0.1-0.2-0.1
					c0,0,0,0-0.1,0c0,0,0,0,0,0c-0.1,0-0.1-0.1-0.2-0.1c0,0-0.1,0-0.1,0c0,0,0,0-0.1,0c0,0,0,0-0.1,0c-0.1,0-0.1,0-0.2-0.1
					c0,0,0,0-0.1,0c0,0,0,0-0.1,0c0,0-0.1,0-0.1,0c-0.1,0-0.2,0-0.2,0c0,0,0,0-0.1,0h-3.8c0.1,0,0.3,0,0.4,0c0,0,0,0,0.1,0
					c0.1,0,0.2,0.1,0.4,0.1c0,0,0,0,0.1,0c0.1,0,0.2,0.1,0.3,0.2c0,0,0,0,0.1,0c0.1,0.1,0.2,0.2,0.3,0.2l12.5,12.7
					c0.1,0.1,0.2,0.3,0.3,0.4c0,0,0,0.1,0.1,0.1c0.1,0.1,0.1,0.2,0.1,0.4c0,0.1,0,0.1,0,0.2c0,0,0,0.1,0,0.1c0,0.1,0,0.2,0,0.3
					c0,0,0,0,0,0.1c0,0.1,0,0.2,0,0.4c0,0,0,0,0,0.1c0,0.1-0.1,0.2-0.1,0.4c0,0,0,0,0,0.1c0,0.1-0.1,0.2-0.2,0.3c0,0,0,0-0.1,0.1
					c-0.1,0.1-0.1,0.2-0.2,0.3l-3.1,3.2c-0.4,0.4-1,0.6-1.5,0.6h3.8c0.6,0,1.1-0.2,1.5-0.6l3.1-3.2c0,0,0.1-0.1,0.1-0.1
					c0,0,0.1-0.1,0.1-0.1c0,0,0,0,0.1-0.1c0,0,0,0,0,0c0-0.1,0.1-0.1,0.1-0.2c0,0,0-0.1,0-0.1c0,0,0,0,0-0.1c0,0,0-0.1,0-0.1
					c0-0.1,0-0.1,0.1-0.2c0,0,0,0,0-0.1c0,0,0,0,0-0.1c0,0,0-0.1,0-0.1C131.6,113.7,131.6,113.7,131.6,113.5
					C131.6,113.6,131.6,113.6,131.6,113.5C131.6,113.5,131.6,113.5,131.6,113.5z"/>
				<path class="st3" d="M124.3,81.7c0,0,0.1-0.1,0.1-0.1c0,0,0,0,0.1-0.1c0,0,0,0,0,0c0-0.1,0.1-0.1,0.1-0.2c0,0,0,0,0-0.1
					c0,0,0,0,0-0.1c0,0,0-0.1,0-0.1c0-0.1,0-0.1,0.1-0.2c0,0,0,0,0-0.1c0,0,0,0,0-0.1c0,0,0-0.1,0-0.1c0-0.1,0-0.2,0-0.2
					c0,0,0,0,0,0c0,0,0,0,0-0.1c0-0.1,0-0.1,0-0.2c0,0,0-0.1,0-0.1c0,0,0-0.1,0-0.1c0,0,0,0,0-0.1c0,0,0-0.1,0-0.1
					c0-0.1-0.1-0.3-0.1-0.4c0,0,0-0.1-0.1-0.1c-0.1-0.2-0.2-0.3-0.3-0.4l-12.5-12.7c0,0-0.1-0.1-0.1-0.1c-0.1,0-0.1-0.1-0.2-0.1
					c0,0,0,0-0.1,0c0,0,0,0,0,0c-0.1,0-0.1-0.1-0.2-0.1c0,0-0.1,0-0.1,0c0,0,0,0-0.1,0c0,0,0,0-0.1,0c-0.1,0-0.1,0-0.2-0.1
					c0,0,0,0-0.1,0c0,0,0,0-0.1,0c0,0-0.1,0-0.1,0c-0.1,0-0.2,0-0.2,0c0,0,0,0-0.1,0h-3.8c0.1,0,0.3,0,0.4,0c0,0,0,0,0.1,0
					c0.1,0,0.2,0.1,0.4,0.1c0,0,0,0,0.1,0c0.1,0,0.2,0.1,0.3,0.2c0,0,0,0,0.1,0c0.1,0.1,0.2,0.2,0.3,0.2l12.5,12.7
					c0.1,0.1,0.2,0.3,0.3,0.4c0,0,0,0.1,0.1,0.1c0.1,0.1,0.1,0.2,0.1,0.4c0,0.1,0,0.1,0,0.2c0,0,0,0.1,0,0.1c0,0.1,0,0.2,0,0.3
					c0,0,0,0,0,0.1c0,0.1,0,0.3,0,0.4c0,0,0,0,0,0.1c0,0.1-0.1,0.2-0.1,0.4c0,0,0,0,0,0.1c0,0.1-0.1,0.2-0.2,0.3c0,0,0,0-0.1,0.1
					c-0.1,0.1-0.1,0.2-0.2,0.3l-16.1,16.3c-0.4,0.4-1,0.6-1.5,0.6h3.8c0.6,0,1.1-0.2,1.5-0.6l16.1-16.3
					C124.2,81.8,124.3,81.8,124.3,81.7z"/>
				<path class="st3" d="M123.4,48.6c0.1,0,0.2,0.1,0.4,0.1c0,0,0,0,0.1,0c0.1,0,0.2,0.1,0.3,0.2c0,0,0,0,0.1,0
					c0.1,0.1,0.2,0.2,0.3,0.2l12.5,12.7c0.1,0.1,0.2,0.3,0.3,0.4c0,0,0,0.1,0.1,0.1c0.1,0.1,0.1,0.2,0.1,0.4c0,0.1,0,0.1,0,0.2
					c0,0,0,0.1,0,0.1c0,0.1,0,0.2,0,0.3c0,0,0,0,0,0.1c0,0.1,0,0.3,0,0.4c0,0,0,0,0,0.1c0,0.1-0.1,0.2-0.1,0.4c0,0,0,0,0,0.1
					c0,0.1-0.1,0.2-0.2,0.3c0,0,0,0,0,0.1c-0.1,0.1-0.1,0.2-0.2,0.3l-9.4,9.5c-0.4,0.4-1,0.6-1.5,0.6h3.8c0.6,0,1.1-0.2,1.5-0.6
					l9.4-9.5c0,0,0.1-0.1,0.1-0.1c0,0,0.1-0.1,0.1-0.2c0,0,0,0,0-0.1c0,0,0,0,0,0c0-0.1,0.1-0.1,0.1-0.2c0,0,0-0.1,0-0.1
					c0,0,0,0,0-0.1c0,0,0-0.1,0-0.1c0-0.1,0-0.1,0.1-0.2c0,0,0,0,0-0.1c0,0,0,0,0-0.1c0,0,0-0.1,0-0.1c0-0.1,0-0.2,0-0.2
					c0,0,0,0,0,0c0,0,0,0,0-0.1c0-0.1,0-0.1,0-0.2c0,0,0-0.1,0-0.1c0,0,0-0.1,0-0.1c0,0,0,0,0-0.1c0,0,0-0.1,0-0.1
					c0-0.1-0.1-0.3-0.1-0.4c0,0,0-0.1-0.1-0.1c-0.1-0.2-0.2-0.3-0.3-0.4l-12.5-12.7c0,0-0.1-0.1-0.1-0.1c-0.1,0-0.1-0.1-0.2-0.1
					c0,0,0,0-0.1,0c0,0,0,0,0,0c-0.1,0-0.1-0.1-0.2-0.1c0,0-0.1,0-0.1,0c0,0,0,0-0.1,0c0,0,0,0-0.1,0c-0.1,0-0.1,0-0.2-0.1
					c0,0,0,0-0.1,0c0,0,0,0-0.1,0c0,0-0.1,0-0.1,0c-0.1,0-0.2,0-0.2,0c0,0,0,0-0.1,0h-3.8C123.1,48.6,123.2,48.6,123.4,48.6
					C123.3,48.6,123.4,48.6,123.4,48.6z"/>
				<path class="st3" d="M161.2,83.5C161.2,83.5,161.2,83.5,161.2,83.5c0-0.1,0-0.2,0-0.2c0,0,0-0.1,0-0.1c0,0,0-0.1,0-0.1
					c0,0,0,0,0-0.1c0,0,0-0.1,0-0.1c0-0.1-0.1-0.3-0.1-0.4c0,0,0-0.1-0.1-0.1c-0.1-0.2-0.2-0.3-0.3-0.4l-12.5-12.7
					c0,0-0.1-0.1-0.1-0.1c-0.1,0-0.1-0.1-0.2-0.1c0,0,0,0-0.1,0c0,0,0,0,0,0c-0.1,0-0.1-0.1-0.2-0.1c0,0-0.1,0-0.1,0c0,0,0,0-0.1,0
					c0,0,0,0-0.1,0c-0.1,0-0.1,0-0.2-0.1c0,0,0,0-0.1,0c0,0,0,0-0.1,0c0,0-0.1,0-0.1,0c-0.1,0-0.2,0-0.2,0c0,0,0,0-0.1,0h-3.8
					c0.1,0,0.3,0,0.4,0c0,0,0,0,0.1,0c0.1,0,0.2,0.1,0.4,0.1c0,0,0,0,0.1,0c0.1,0,0.2,0.1,0.3,0.2c0,0,0,0,0.1,0
					c0.1,0.1,0.2,0.2,0.3,0.2l12.5,12.7c0.1,0.1,0.2,0.3,0.3,0.4c0,0,0,0.1,0.1,0.1c0.1,0.1,0.1,0.2,0.1,0.4c0,0.1,0,0.1,0,0.2
					c0,0,0,0.1,0,0.1c0,0.1,0,0.2,0,0.3c0,0,0,0,0,0.1c0,0.1,0,0.3,0,0.4c0,0,0,0,0,0.1c0,0.1-0.1,0.2-0.1,0.4c0,0,0,0,0,0.1
					c0,0.1-0.1,0.2-0.2,0.3c0,0,0,0,0,0.1c-0.1,0.1-0.1,0.2-0.2,0.3l-22.3,22.7c-0.4,0.4-1,0.6-1.5,0.6h3.8c0.6,0,1.1-0.2,1.5-0.6
					l22.3-22.7c0,0,0.1-0.1,0.1-0.1c0-0.1,0.1-0.1,0.1-0.2c0,0,0,0,0-0.1c0,0,0,0,0,0c0-0.1,0.1-0.1,0.1-0.2c0,0,0-0.1,0-0.1
					c0,0,0,0,0-0.1c0,0,0-0.1,0-0.1c0-0.1,0-0.1,0.1-0.2c0,0,0,0,0-0.1c0,0,0,0,0-0.1c0,0,0-0.1,0-0.1
					C161.2,83.7,161.2,83.6,161.2,83.5C161.2,83.5,161.2,83.5,161.2,83.5z"/>
			</g>
			<g>
				<path class="st2" d="M142.7,68.6c0.6,0,1.1,0.2,1.5,0.6l12.5,12.7c0.8,0.9,0.8,2.3,0,3.1l-22.3,22.7c-0.4,0.4-1,0.6-1.5,0.6
					c-0.6,0-1.1-0.2-1.5-0.6l-12.5-12.7c-0.9-0.9-0.9-2.3,0-3.1l22.3-22.7C141.6,68.9,142.1,68.6,142.7,68.6z"/>
			</g>
		</g>
	</g>
</g>
</svg>
