<?xml version="1.0" encoding="UTF-8" standalone="no"?>
<svg
   xmlns:dc="http://purl.org/dc/elements/1.1/"
   xmlns:cc="http://creativecommons.org/ns#"
   xmlns:rdf="http://www.w3.org/1999/02/22-rdf-syntax-ns#"
   xmlns:svg="http://www.w3.org/2000/svg"
   xmlns="http://www.w3.org/2000/svg"
   xmlns:sodipodi="http://sodipodi.sourceforge.net/DTD/sodipodi-0.dtd"
   xmlns:inkscape="http://www.inkscape.org/namespaces/inkscape"
   width="487.42188pt"
   height="104.16016pt"
   viewBox="0 0 487.42188 104.16016"
   version="1.1"
   id="svg4136"
   inkscape:version="0.92.2 (5c3e80d, 2017-08-06)"
   sodipodi:docname="cesium-light.svg"
   inkscape:export-filename="C:\Projects\agi-meta\Logos\Cesium\cesium.png"
   inkscape:export-xdpi="97.829803"
   inkscape:export-ydpi="97.829803">
  <metadata
     id="metadata4323">
    <rdf:RDF>
      <cc:Work
         rdf:about="">
        <dc:format>image/svg+xml</dc:format>
        <dc:type
           rdf:resource="http://purl.org/dc/dcmitype/StillImage" />
        <dc:title></dc:title>
      </cc:Work>
    </rdf:RDF>
  </metadata>
  <defs
     id="defs4321" />
  <sodipodi:namedview
     pagecolor="#ffffff"
     bordercolor="#666666"
     borderopacity="1"
     objecttolerance="10"
     gridtolerance="10"
     guidetolerance="10"
     inkscape:pageopacity="0"
     inkscape:pageshadow="2"
     inkscape:window-width="1536"
     inkscape:window-height="801"
     id="namedview4319"
     showgrid="false"
     inkscape:zoom="1"
     inkscape:cx="312.07116"
     inkscape:cy="-53.642363"
     inkscape:window-x="-8"
     inkscape:window-y="-8"
     inkscape:window-maximized="1"
     inkscape:current-layer="surface22972"
     showguides="false"
     inkscape:lockguides="true">
    <inkscape:grid
       type="xygrid"
       id="grid3896"
       originx="-177.4336"
       originy="-1692.2189" />
  </sodipodi:namedview>
  <g
     id="surface22972"
     transform="translate(-69.429688,-62.085938)">
    <path
       style="fill:#211e1e;fill-opacity:1;fill-rule:nonzero;stroke:none"
       d="m 195.45703,146.36719 c -3,-0.6211 -5.37109,-1.72266 -7.12109,-3.30469 -1.75,-1.58594 -2.98047,-3.73047 -3.69922,-6.43359 -0.72266,-2.71485 -1.08203,-6.13282 -1.08203,-10.25391 v -6.32812 c 0,-4.89063 0.37109,-8.82422 1.11328,-11.79297 0.74609,-2.97657 2.01172,-5.26172 3.8125,-6.8711 1.80078,-1.605466 4.21875,-2.687497 7.26562,-3.238279 3.04297,-0.546875 6.89063,-0.824218 11.54297,-0.824218 h 10.64453 c 4.88672,0 8.92188,0.222656 12.08203,0.679687 3.16797,0.457031 5.65625,1.3125 7.48047,2.55469 1.82032,1.24609 3.09375,2.97265 3.8125,5.17578 0.71875,2.20703 1.07422,5.0625 1.07422,8.5625 h -12.36719 c 0,-0.96094 -0.1289,-1.8125 -0.39843,-2.55469 -0.25782,-0.74609 -0.82813,-1.36719 -1.6875,-1.87109 -0.86328,-0.50391 -2.13282,-0.875 -3.8086,-1.11328 -1.67968,-0.23828 -3.93359,-0.35938 -6.76172,-0.35938 h -9.20703 c -2.68359,0 -4.85547,0.10547 -6.51172,0.32422 -1.65625,0.21484 -2.92187,0.71094 -3.80859,1.47266 -0.88672,0.76562 -1.47656,1.91797 -1.76172,3.44922 -0.28906,1.54296 -0.43359,3.625 -0.43359,6.26562 v 5.46094 c 0,2.44922 0.14453,4.39062 0.43359,5.82812 0.28516,1.4375 0.86328,2.55469 1.72656,3.33985 0.86329,0.79687 2.08204,1.30859 3.66407,1.54687 1.58593,0.24219 3.66797,0.36328 6.25781,0.36328 h 9.78516 c 2.63671,0 4.77734,-0.0742 6.43359,-0.21875 1.65234,-0.14453 2.93359,-0.45312 3.84766,-0.93359 0.91015,-0.47656 1.52734,-1.15235 1.83203,-2.01172 0.3164,-0.86719 0.47265,-1.99609 0.47265,-3.38281 h 12.36719 c 0,3.3125 -0.27344,6.07812 -0.82812,8.30859 -0.54688,2.22656 -1.69922,4.01563 -3.45313,5.35547 -1.74609,1.34375 -4.25391,2.30469 -7.51172,2.87891 -3.26172,0.57421 -7.55078,0.86328 -12.87109,0.86328 h -10.9336 c -4.60937,0 -8.40625,-0.3125 -11.40234,-0.9375"
       id="path4143"
       inkscape:connector-curvature="0" />
    <path
       style="fill:#211e1e;fill-opacity:1;fill-rule:nonzero;stroke:none"
       d="m 301.79297,97.320313 v 9.921877 h -39.125 v 9.20703 h 37.89844 v 10 h -37.89844 v 10.78515 h 39.125 v 9.9961 H 250.72656 V 97.320313 Z m 0,0"
       id="path4145"
       inkscape:connector-curvature="0" />
    <path
       style="fill:#211e1e;fill-opacity:1;fill-rule:nonzero;stroke:none"
       d="m 350.12109,97.320313 c 6.28516,0 10.9375,1.148437 13.95313,3.449217 3.01953,2.30469 4.53125,5.84766 4.53125,10.64844 h -12.8711 c 0,-0.76563 -0.082,-1.41797 -0.25,-1.94531 -0.17187,-0.52735 -0.47656,-0.95703 -0.93359,-1.29297 -0.45703,-0.33594 -1.08203,-0.57813 -1.875,-0.71875 -0.78906,-0.14453 -1.8125,-0.21875 -3.05469,-0.21875 h -20.0664 c -1.67578,0 -3.07032,0.30078 -4.16797,0.89844 -1.10938,0.60156 -1.65235,1.85937 -1.65235,3.77343 0,1.00782 0.14063,1.78907 0.42579,2.33985 0.28906,0.55468 0.68359,0.96093 1.18359,1.22265 0.50781,0.26953 1.12109,0.4336 1.83594,0.50782 0.71875,0.0703 1.50781,0.1289 2.375,0.17578 l 22.08203,0.86328 c 2.82812,0.0977 5.30859,0.32422 7.44531,0.68359 2.13281,0.36328 3.90625,1.05469 5.31641,2.08594 1.41406,1.03125 2.48828,2.50391 3.20312,4.42578 0.71875,1.91406 1.08203,4.52734 1.08203,7.83984 0,2.6875 -0.28515,4.96875 -0.86328,6.86328 -0.57812,1.89454 -1.52344,3.46485 -2.84765,4.71485 -1.3125,1.24609 -3.05079,2.15625 -5.21094,2.73047 -2.15625,0.57812 -4.79688,0.86328 -7.91016,0.86328 h -24.74219 c -3.16796,0 -5.82812,-0.28516 -7.98437,-0.86328 -2.15625,-0.57422 -3.89453,-1.44922 -5.21094,-2.6211 -1.32031,-1.17578 -2.2539,-2.64843 -2.8125,-4.42968 -0.54687,-1.76954 -0.82031,-3.85938 -0.82031,-6.25391 h 12.23047 c 0,1.24609 0.54687,2.25781 1.64844,3.01953 1.10156,0.76953 2.49218,1.15234 4.17187,1.15234 h 19.99609 c 2.63672,0 4.60547,-0.33203 5.89454,-1.00781 1.29687,-0.67187 1.9375,-2.01172 1.9375,-4.02734 0,-0.91406 -0.11329,-1.6875 -0.35547,-2.33985 -0.2461,-0.64453 -0.65235,-1.1914 -1.25391,-1.65234 -0.60547,-0.45312 -1.44141,-0.80078 -2.52344,-1.03906 -1.07422,-0.23828 -2.47656,-0.41016 -4.20703,-0.50781 l -19.13281,-0.78907 c -3.40234,-0.14453 -6.26563,-0.38281 -8.58594,-0.71875 -2.33203,-0.33593 -4.23437,-0.97265 -5.72656,-1.90625 -1.47656,-0.93359 -2.54688,-2.30078 -3.19531,-4.09765 -0.64453,-1.80078 -0.97266,-4.25391 -0.97266,-7.375 0,-2.63281 0.33594,-4.87891 1.00781,-6.72656 0.67188,-1.83985 1.72657,-3.34375 3.16016,-4.49219 1.44531,-1.152346 3.30078,-1.976565 5.57812,-2.480471 2.27735,-0.503906 5.02344,-0.753906 8.23438,-0.753906 z m 0,0"
       id="path4147"
       inkscape:connector-curvature="0" />
    <path
       style="fill:#211e1e;fill-opacity:1;fill-rule:nonzero;stroke:none"
       d="m 377.06641,97.320313 h 11.94531 v 49.910157 h -11.94531 z m 0,0"
       id="path4149"
       inkscape:connector-curvature="0" />
    <path
       style="fill:#211e1e;fill-opacity:1;fill-rule:nonzero;stroke:none"
       d="m 409.3125,128.24219 c 0,1.72656 0.19141,3.16406 0.57422,4.3164 0.3789,1.15235 0.99609,2.0586 1.83594,2.73438 0.83984,0.67187 1.95312,1.15234 3.34765,1.4375 1.38672,0.28906 3.08985,0.43359 5.10156,0.43359 H 433.125 c 1.91406,0 3.54297,-0.14453 4.89062,-0.43359 1.33594,-0.28516 2.41407,-0.77735 3.23438,-1.47266 0.80859,-0.69531 1.41406,-1.62109 1.79687,-2.76953 0.38672,-1.15234 0.57422,-2.58984 0.57422,-4.31641 V 97.246094 h 12.01563 v 32.148436 c 0,3.30859 -0.33985,6.08984 -1.01172,8.33984 -0.67188,2.25782 -1.79688,4.07813 -3.37891,5.46875 -1.58203,1.39454 -3.67968,2.39844 -6.29297,3.02344 -2.61718,0.6211 -5.83984,0.9336 -9.67578,0.9336 h -17.69531 c -3.69141,0 -6.80469,-0.32813 -9.34375,-0.96875 -2.54297,-0.65235 -4.63281,-1.69141 -6.25781,-3.13282 -1.63281,-1.43359 -2.8086,-3.28125 -3.52344,-5.53515 -0.72656,-2.25391 -1.08203,-4.96485 -1.08203,-8.12891 V 97.246094 h 11.9375 z m 0,0"
       id="path4151"
       inkscape:connector-curvature="0" />
    <path
       style="fill:#211e1e;fill-opacity:1;fill-rule:nonzero;stroke:none"
       d="m 482.50391,97.320313 20.5664,36.749997 21.28906,-36.749997 h 17.90625 v 49.910157 h -12.00781 v -36.68359 l -20.71094,36.68359 h -12.94531 l -20.64844,-36.68359 v 36.68359 H 464.01953 V 97.320313 Z m 0,0"
       id="path4153"
       inkscape:connector-curvature="0" />
    <path
       style="fill:#211e1e;fill-opacity:1;fill-rule:nonzero;stroke:none"
       d="m 195.56641,146.44531 c -2.9961,-0.62109 -5.36719,-1.72265 -7.11719,-3.30469 -1.7461,-1.58203 -2.98047,-3.72656 -3.69531,-6.42968 -0.72266,-2.71094 -1.08204,-6.125 -1.08204,-10.2461 v -6.32421 c 0,-4.88672 0.3711,-8.8125 1.11329,-11.78125 0.74218,-2.97266 2.01171,-5.25782 3.80859,-6.86719 1.80078,-1.605471 4.21484,-2.683596 7.25781,-3.234377 3.04297,-0.546875 6.89063,-0.824219 11.53516,-0.824219 h 10.63672 c 4.88672,0 8.91797,0.226562 12.07422,0.679687 3.16406,0.457032 5.65234,1.308594 7.47656,2.554689 1.82031,1.24609 3.08984,2.96484 3.80859,5.16797 0.71485,2.20703 1.07422,5.05859 1.07422,8.55469 h -12.35937 c 0,-0.95704 -0.12891,-1.8086 -0.39454,-2.55079 -0.26171,-0.74218 -0.83203,-1.36328 -1.6914,-1.86718 -0.85938,-0.50391 -2.13281,-0.875 -3.80469,-1.11328 C 222.52734,108.61719 220.27734,108.5 217.44922,108.5 H 208.25 c -2.67969,0 -4.85156,0.10547 -6.50781,0.32422 -1.65235,0.21484 -2.91797,0.70703 -3.80469,1.46875 -0.88672,0.76953 -1.47656,1.91797 -1.75781,3.44922 -0.28907,1.53906 -0.4336,3.62109 -0.4336,6.25781 v 5.45703 c 0,2.44922 0.14453,4.39063 0.4336,5.82422 0.28125,1.4375 0.85937,2.55469 1.72265,3.33984 0.85938,0.79297 2.08203,1.30469 3.66407,1.54688 1.58593,0.23828 3.66406,0.35937 6.2539,0.35937 h 9.77344 c 2.63672,0 4.77734,-0.0703 6.42969,-0.21484 1.65234,-0.14453 2.93359,-0.45703 3.84765,-0.93359 0.90625,-0.47657 1.51953,-1.15235 1.83203,-2.01172 0.3125,-0.86719 0.46485,-1.99219 0.46485,-3.38282 h 12.36328 c 0,3.3125 -0.27734,6.07422 -0.82813,8.30469 -0.54687,2.22656 -1.69921,4.01563 -3.44921,5.35156 -1.75,1.34375 -4.25391,2.30079 -7.51172,2.87891 -3.25391,0.57031 -7.54297,0.85938 -12.85938,0.85938 h -10.92187 c -4.60938,0 -8.40235,-0.3125 -11.39453,-0.9336"
       id="path4155"
       inkscape:connector-curvature="0" />
    <path
       style="fill:#211e1e;fill-opacity:1;fill-rule:nonzero;stroke:none"
       d="m 301.82031,97.433594 v 9.914066 h -39.09375 v 9.20312 h 37.86719 v 9.98828 h -37.86719 v 10.77735 h 39.09375 v 9.99218 H 250.79297 V 97.433594 Z m 0,0"
       id="path4157"
       inkscape:connector-curvature="0" />
    <path
       style="fill:#211e1e;fill-opacity:1;fill-rule:nonzero;stroke:none"
       d="m 350.10937,97.433594 c 6.28125,0 10.92969,1.148437 13.94532,3.445316 3.01562,2.30468 4.52734,5.84765 4.52734,10.64062 h -12.86328 c 0,-0.76562 -0.082,-1.41406 -0.25,-1.9414 -0.16797,-0.52735 -0.47656,-0.96094 -0.93359,-1.29297 -0.45313,-0.33594 -1.08204,-0.57813 -1.8711,-0.71875 -0.78906,-0.14453 -1.80859,-0.21875 -3.05078,-0.21875 h -20.05469 c -1.67578,0 -3.0664,0.30078 -4.16406,0.89843 -1.10547,0.60157 -1.65234,1.85938 -1.65234,3.77344 0,1.00781 0.14062,1.78516 0.42968,2.33594 0.28516,0.55078 0.67969,0.96094 1.17969,1.22266 0.51172,0.26562 1.1211,0.42968 1.83594,0.5039 0.71875,0.0703 1.50781,0.13281 2.37109,0.17969 l 22.06641,0.85937 c 2.82422,0.0977 5.30469,0.32813 7.4375,0.6836 2.13281,0.35937 3.90625,1.05469 5.31641,2.08594 1.41015,1.02734 2.48437,2.5 3.19921,4.41796 0.71875,1.91407 1.08204,4.52735 1.08204,7.83594 0,2.68359 -0.28516,4.96875 -0.86329,6.85938 -0.57812,1.89453 -1.52343,3.46093 -2.84375,4.70703 -1.3164,1.25 -3.05078,2.16015 -5.20703,2.73437 -2.15625,0.57813 -4.79687,0.86328 -7.90625,0.86328 h -24.72265 c -3.16016,0 -5.82422,-0.28515 -7.98047,-0.86328 -2.15235,-0.57422 -3.89063,-1.44922 -5.20703,-2.625 -1.31641,-1.17187 -2.25391,-2.64453 -2.8086,-4.42187 -0.54297,-1.76953 -0.82031,-3.85547 -0.82031,-6.25 h 12.21875 c 0,1.24609 0.54688,2.2539 1.65234,3.01953 1.09766,0.76562 2.48829,1.14844 4.16797,1.14844 h 19.97657 c 2.63281,0 4.60546,-0.33204 5.89453,-1.00391 1.29687,-0.67188 1.93359,-2.01172 1.93359,-4.02734 0,-0.91016 -0.11328,-1.6836 -0.35156,-2.33594 -0.2461,-0.64844 -0.66016,-1.19141 -1.25781,-1.65235 -0.60547,-0.45312 -1.4375,-0.80078 -2.51954,-1.03906 -1.07421,-0.23828 -2.47265,-0.41015 -4.20312,-0.50781 l -19.11719,-0.78516 c -3.40234,-0.14453 -6.26562,-0.38671 -8.58203,-0.71875 -2.32812,-0.33593 -4.23047,-0.97265 -5.71875,-1.90625 -1.48047,-0.93359 -2.54687,-2.30078 -3.19531,-4.09765 -0.64453,-1.79297 -0.97266,-4.25 -0.97266,-7.36719 0,-2.63281 0.33594,-4.875 1.00781,-6.71875 0.66797,-1.83984 1.72266,-3.34375 3.16016,-4.48828 1.44141,-1.152345 3.29297,-1.976564 5.57031,-2.48047 2.27735,-0.503906 5.01953,-0.753906 8.23047,-0.753906 z m 0,0"
       id="path4159"
       inkscape:connector-curvature="0" />
    <path
       style="fill:#211e1e;fill-opacity:1;fill-rule:nonzero;stroke:none"
       d="m 377.03516,97.433594 h 11.93359 v 49.874996 h -11.93359 z m 0,0"
       id="path4161"
       inkscape:connector-curvature="0" />
    <path
       style="fill:#211e1e;fill-opacity:1;fill-rule:nonzero;stroke:none"
       d="m 409.25781,128.32812 c 0,1.73047 0.1875,3.16797 0.57422,4.31641 0.37891,1.15234 0.99609,2.05859 1.83203,2.73438 0.83985,0.67187 1.95313,1.14843 3.34375,1.43359 1.38672,0.28906 3.08985,0.43359 5.10156,0.43359 h 12.9375 c 1.91407,0 3.54297,-0.14453 4.89063,-0.43359 1.33594,-0.28516 2.41406,-0.77734 3.23047,-1.47266 0.8125,-0.6914 1.41406,-1.61718 1.79687,-2.76562 0.38282,-1.15235 0.57422,-2.58985 0.57422,-4.3125 V 97.359375 h 12.00391 v 32.124995 c 0,3.30469 -0.33594,6.08594 -1.01172,8.33594 -0.66797,2.25391 -1.79297,4.07422 -3.375,5.46094 -1.57813,1.39453 -3.67578,2.39453 -6.28906,3.01953 -2.61328,0.62109 -5.83594,0.93359 -9.66407,0.93359 h -17.68359 c -3.6875,0 -6.80078,-0.32812 -9.33984,-0.96875 -2.53907,-0.64843 -4.625,-1.6875 -6.25,-3.1289 -1.63282,-1.4336 -2.8086,-3.27735 -3.52344,-5.53125 -0.72266,-2.25391 -1.07813,-4.96094 -1.07813,-8.1211 V 97.359375 h 11.92969 z m 0,0"
       id="path4163"
       inkscape:connector-curvature="0" />
    <path
       style="fill:#211e1e;fill-opacity:1;fill-rule:nonzero;stroke:none"
       d="m 482.39062,97.433594 20.55469,36.722656 21.26953,-36.722656 h 17.89453 v 49.874996 h -12 v -36.65625 l -20.69921,36.65625 h -12.9336 l -20.6289,-36.65625 v 36.65625 H 463.92187 V 97.433594 Z m 0,0"
       id="path4165"
       inkscape:connector-curvature="0" />
    <path
       style="fill:#211e1e;fill-opacity:1;fill-rule:nonzero;stroke:none"
       d="m 550.83203,102.30469 h 0.5625 c 0.65625,0 1.18359,-0.21875 1.18359,-0.75 0,-0.46485 -0.34375,-0.77735 -1.08984,-0.77735 -0.3125,0 -0.53125,0.0312 -0.65625,0.0625 z m -0.0312,2.89844 h -1.18359 v -5.11329 c 0.46875,-0.09375 1.12109,-0.15234 1.96093,-0.15234 0.96875,0 1.40625,0.15234 1.77735,0.37109 0.28125,0.21875 0.5,0.625 0.5,1.1211 0,0.5625 -0.4336,1 -1.0586,1.1875 v 0.0625 c 0.5,0.1875 0.77735,0.55859 0.9336,1.24609 0.15625,0.77735 0.25,1.08985 0.375,1.27735 h -1.27735 c -0.15625,-0.1875 -0.25,-0.65625 -0.40625,-1.2461 -0.0937,-0.5625 -0.40234,-0.8125 -1.05859,-0.8125 h -0.5625 z m -3.14844,-2.67969 c 0,2.27344 1.6836,4.08203 3.99219,4.08203 2.24219,0 3.89453,-1.80859 3.89453,-4.05078 0,-2.27735 -1.65234,-4.11719 -3.92969,-4.11719 -2.27343,0 -3.95703,1.83984 -3.95703,4.08594 m 9.19922,0 c 0,2.89844 -2.27734,5.17578 -5.24219,5.17578 -2.92578,0 -5.26562,-2.27734 -5.26562,-5.17578 0,-2.83594 2.33984,-5.113284 5.26562,-5.113284 2.96485,0 5.24219,2.277344 5.24219,5.113284"
       id="path4167"
       inkscape:connector-curvature="0" />
    <path
       style="fill:#ffffff;fill-opacity:1;fill-rule:nonzero;stroke:none"
       d="m 69.429688,114.16797 c 0,-28.76172 23.316406,-52.082032 52.082032,-52.082032 28.76172,0 52.07812,23.320312 52.07812,52.082032 0,28.76172 -23.3164,52.07812 -52.07812,52.07812 -28.765626,0 -52.082032,-23.3164 -52.082032,-52.07812"
       id="path4169"
       inkscape:connector-curvature="0" />
    <path
       style="fill:#709c49;fill-opacity:1;fill-rule:nonzero;stroke:none"
       d="m 163.625,107.35547 c -1.51172,0 -2.97266,0.83984 -4.12109,2.35547 l -14.41797,19.07031 c -2.38672,3.16016 -5.77735,4.96875 -9.30078,4.96875 h -0.0547 c -3.52735,0 -6.91797,-1.80859 -9.30078,-4.96875 l -14.41797,-19.07031 c -1.14453,-1.51563 -2.60547,-2.35547 -4.125,-2.35547 -1.50781,0 -2.97656,0.83984 -4.11719,2.35547 l -14.421874,19.07031 c -2.371093,3.13281 -5.726562,4.94141 -9.21875,4.96875 7.347657,15.49609 23.093754,26.24219 41.382814,26.24219 25.30469,0 45.82422,-20.51563 45.82422,-45.82031 0,-1.79688 -0.12891,-3.55469 -0.32813,-5.27735 -1.00781,-0.99219 -2.17578,-1.53906 -3.38281,-1.53906"
       id="path4171"
       inkscape:connector-curvature="0" />
    <path
       style="fill:#6dabe4;fill-opacity:1;fill-rule:nonzero;stroke:none"
       d="m 136.82031,97.4375 c -2.64844,0 -4.78906,-2.144531 -4.78906,-4.789062 0,-2.644532 2.14062,-4.789063 4.78906,-4.789063 2.64453,0 4.78906,2.144531 4.78906,4.789063 0,2.644531 -2.14453,4.789062 -4.78906,4.789062 M 121.51172,68.34375 c -25.308595,0 -45.828126,20.511719 -45.828126,45.82813 0,4.02343 0.574219,7.90625 1.550781,11.63281 0.867188,0.66797 1.828125,1.05469 2.8125,1.05469 1.519531,0 2.980469,-0.83594 4.128906,-2.34375 L 98.59375,105.4375 c 2.37891,-3.16406 5.77734,-4.97266 9.29297,-4.97266 3.52344,0 6.91016,1.8086 9.30078,4.97266 l 13.87109,18.34375 0.59766,0.73438 c 1.14453,1.5039 2.60156,2.33203 4.10156,2.34375 1.4961,-0.0117 2.95703,-0.83985 4.09375,-2.34375 l 0.60938,-0.73438 13.87109,-18.34375 c 2.38281,-3.16406 5.77344,-4.97266 9.29297,-4.97266 0.55859,0 1.12109,0.0625 1.66797,0.14844 -5.77735,-18.691405 -23.19141,-32.26953 -43.78125,-32.26953"
       id="path4173"
       inkscape:connector-curvature="0" />
    <text
       xml:space="preserve"
       style="font-style:normal;font-weight:normal;font-size:30px;line-height:1.25;font-family:sans-serif;letter-spacing:0px;word-spacing:0px;fill:#000000;fill-opacity:1;stroke:none;stroke-width:0.75"
       x="507.75"
       y="573.375"
       id="text4797"><tspan
         sodipodi:role="line"
         id="tspan4795"
         x="507.75"
         y="600.74493"
         style="stroke-width:0.75" /></text>
  </g>
</svg>
