<?xml version="1.0" encoding="utf-8"?>
<!-- Generator: Adobe Illustrator 25.4.1, SVG Export Plug-In . SVG Version: 6.00 Build 0)  -->
<svg version="1.1" id="Layer_1" xmlns="http://www.w3.org/2000/svg" xmlns:xlink="http://www.w3.org/1999/xlink" x="0px" y="0px"
	 viewBox="0 0 639.5 170.7" style="enable-background:new 0 0 639.5 170.7;" xml:space="preserve">
<style type="text/css">
	.st0{fill:#6DABE4;}
	.st1{fill:#0E1422;}
	.st2{fill:#344D1B;}
	.st3{fill:#709C49;}
	.st4{fill:#31506B;}
</style>
<g id="Bottom_Text">
	<path class="st0" d="M293.2,87c0-1.2-1-2.2-2.2-2.2h-17.8c-1.2,0-2.2,1-2.2,2.2l-0.1,53.5l-47.5-55c-0.4-0.5-1-0.8-1.7-0.8h-28.4
		c-1.2,0-2.2,1-2.2,2.2l0,81.6c0,1.2,1,2.2,2.2,2.2H211c1.2,0,2.2-1,2.2-2.2l0-59l53.6,60.4c0.4,0.5,1,0.8,1.7,0.8H291
		c1.2,0,2.2-1,2.2-2.2L293.2,87z"/>
	<path class="st0" d="M400.1,101.2V87c0-1.2-1-2.2-2.2-2.2h-84.2c-1.2,0-2.2,1-2.2,2.2v81.5c0,1.2,1,2.2,2.2,2.2h84.2
		c1.2,0,2.2-1,2.2-2.2v-14.4c0-1.2-1-2.2-2.2-2.2h-64.1v-16.1h62c1.2,0,2.2-1,2.2-2.2v-14.4c0-1.2-1-2.2-2.2-2.2h-62v-13.5h64.1
		C399.1,103.5,400.1,102.5,400.1,101.2z"/>
	<path class="st0" d="M486.1,125.3l35.7-36.8c1.4-1.4,0.4-3.8-1.6-3.8h-20.6c-0.6,0-1.2,0.2-1.6,0.6L469.8,113l-28.2-27.7
		c-0.4-0.4-1-0.6-1.6-0.6h-20.9c-2,0-3,2.4-1.6,3.8l35.9,36.8l-42,41.6c-1.4,1.4-0.4,3.8,1.6,3.8h22.3c0.6,0,1.1-0.2,1.6-0.6
		l33-32.1l32.9,32.1c0.4,0.4,1,0.6,1.6,0.6h22.1c2,0,3-2.4,1.6-3.8L486.1,125.3z"/>
	<path class="st0" d="M535.4,87v14.6c0,1.2,1,2.2,2.2,2.2H571v64.7c0,1.2,1,2.2,2.2,2.2H591c1.2,0,2.2-1,2.2-2.2v-64.7h33.4
		c1.2,0,2.2-1,2.2-2.2V87c0-1.2-1-2.2-2.2-2.2h-89C536.4,84.8,535.4,85.8,535.4,87z"/>
</g>
<g id="Top_Text">
	<path class="st1" d="M243.6,28.9c2.2,0,4-0.1,5.4-0.3c1.4-0.2,2.6-0.5,3.5-1s1.5-1.2,1.8-2.1c0.4-0.9,0.5-2.2,0.5-3.7
		s-0.3-2.7-0.8-3.6s-1.4-1.5-2.7-2.1c-1.3-0.5-3-0.8-5.2-1c-2.2-0.1-5-0.2-8.4-0.2h-13c-5.8,0-10,0.5-12.7,1.6s-4.1,3.3-4.2,6.6
		h-16.9v-2.8c0-3.5,0.4-6.6,1.3-9.1c0.9-2.6,2.5-4.7,4.9-6.3c2.4-1.7,5.7-2.9,9.9-3.7S216.6,0,223.3,0h15.1c6.6,0,12,0.3,16.4,0.9
		s7.8,1.7,10.5,3.2c2.6,1.5,4.5,3.6,5.6,6.2s1.6,5.9,1.6,9.8c0,3.2-0.3,5.9-0.8,7.8c-0.5,2-1.3,3.5-2.4,4.7s-2.6,1.9-4.3,2.4
		c-1.8,0.4-3.9,0.7-6.3,0.9c2.2,0.2,4.1,0.6,5.8,1.1c1.7,0.5,3.1,1.4,4.3,2.6c1.2,1.2,2.1,2.9,2.8,5c0.6,2.1,1,4.9,1,8.3
		c0,4.5-0.4,8.1-1.2,11c-0.8,2.8-2.4,5.1-4.8,6.8c-2.3,1.7-5.6,2.8-9.9,3.4c-4.3,0.6-9.8,0.9-16.6,0.9h-16.4
		c-6.6,0-11.9-0.4-16.2-1.1c-4.2-0.7-7.5-1.9-10-3.5c-2.4-1.6-4.1-3.7-5.1-6.4c-0.9-2.6-1.4-5.8-1.4-9.6V53h17.4c0,1.7,0.3,3.1,1,4
		c0.6,0.9,1.6,1.6,2.9,2.1c1.3,0.4,2.8,0.7,4.8,0.8c1.9,0.1,4.1,0.2,6.6,0.2H239c3.1,0,5.7-0.1,7.7-0.3c2.1-0.2,3.7-0.6,4.9-1.1
		c1.2-0.6,2-1.4,2.5-2.4s0.7-2.4,0.7-4.2s-0.2-3.2-0.7-4.3s-1.2-2-2.1-2.5c-0.9-0.6-2.1-1-3.4-1.2c-1.3-0.2-2.9-0.3-4.7-0.3H222v-15
		L243.6,28.9L243.6,28.9L243.6,28.9z"/>
	<path class="st1" d="M349.6,1.6c4,1,7.2,2.7,9.7,5s4.3,5.4,5.3,9.2c1.1,3.8,1.6,8.5,1.6,14v14.6c0,6-0.5,10.9-1.5,14.9
		s-2.6,7.1-4.9,9.5c-2.3,2.3-5.4,4-9.2,5c-3.9,1-8.6,1.5-14.3,1.5h-54.5V0.1h53C340.7,0.1,345.6,0.6,349.6,1.6z M340.2,59.4
		c2.1-0.5,3.8-1.4,5-2.7s2.1-3,2.5-5.1s0.6-4.8,0.6-8V31.1c0-2.9-0.2-5.3-0.7-7.4s-1.3-3.7-2.6-5c-1.3-1.3-2.9-2.2-5-2.8
		c-2.1-0.6-4.8-0.9-8-0.9h-32.2v45.2H332C335.3,60.2,338.1,59.9,340.2,59.4z"/>
	<polygon class="st1" points="372.6,7.8 372.6,0 434.5,0 434.5,7.8 407.4,7.8 407.4,75.1 399.6,75.1 399.6,7.8 	"/>
	<path class="st1" d="M445.9,7.8V0h7.8v7.8H445.9z M445.9,75.2V21.5h7.8v53.7H445.9z"/>
	<polygon class="st1" points="465.3,75.2 465.3,0 473.1,0 473.1,75.1 465.3,75.1 	"/>
	<path class="st1" d="M532.7,75.2h-26.2c-6.8,0-12.3-1.9-16.5-5.7s-6.3-8.4-6.3-13.9V41.2c0-5,1.9-9.4,5.8-13.2
		c4.3-4.3,9.9-6.5,16.8-6.5h22.4c7.4,0,13.1,1.9,17.2,5.6c3.8,3.4,5.8,7.8,5.8,13.1V48c1.5,0-3.7,0-15.5,0c-11.9,0-21.5,0-29,0
		c-3.3,0-8.5,0-15.6,0v6.1c-0.1,4.6,1.4,8.2,4.3,10.8c2.7,2.4,6.2,3.6,10.4,3.6h25.4c4,0,7.1-1,9.2-2.9c1.9-1.7,2.9-3.8,2.9-6.5V58
		h7.8v1.1c0,4.1-1.3,7.6-4,10.4C544.3,73.3,539.3,75.2,532.7,75.2z M544,41.4c0-4-1.3-7.2-3.9-9.7c-2.6-2.4-6.1-3.7-10.5-3.7h-24.5
		c-3.9,0-7.2,1.3-9.7,4c-2.6,2.6-3.8,5.8-3.8,9.4C526.5,41.8,544,41.8,544,41.4z"/>
	<path class="st1" d="M609.4,75.1l-29.7,0.1c-12.4,0-18.6-4.4-18.6-13.3v-3.7h7.8v3c0,2.5,0.7,4.2,2.2,5.3c1.8,1.4,5.3,2.2,10.3,2.2
		h27.7c7.8,0,11.6-2.4,11.6-7.3v-2.3c0-5-3.4-7.6-10.2-7.6h-31.1c-12.2,0-18.2-4.6-18.2-13.8v-2.3c0-3.9,1.5-7.1,4.6-9.6
		c3.4-2.8,8.3-4.2,14.5-4.2h25.3c15.4,0,23.2,4.4,23.2,13.2v3.7H621V35c0-4.6-5.1-6.8-15.2-6.8h-26.6c-6.8,0-10.2,2.4-10.2,7.2v2.3
		c0,4.8,3.4,7.2,10.2,7.2h31.1c12.2,0,18.2,4.7,18.2,14.2v2.3c0,3.9-1.5,7.1-4.6,9.6C620.5,73.7,615.7,75.1,609.4,75.1z"/>
	<polygon class="st1" points="629.7,75.2 629.7,70.1 627.9,70.1 627.9,69 632.8,69 632.8,70.1 631,70.1 631,75.2 	"/>
	<path class="st1" d="M633.6,75.2V69h1.8l1.1,4.1l1.1-4.1c0,0,1.3,0,1.9,0v6.2h-1.2v-4.9l-1.2,4.9h-1.3l-1.2-4.9v4.9H633.6z"/>
</g>
<g id="Logo">
	<g>
		<path class="st2" d="M38.1,46.4c0.5-0.5,1-0.7,1.6-0.7h5c0.6,0,1.2,0.2,1.6,0.7l37.4,37.4c0.9,0.9,0.9,2.4,0,3.2l-37.4,37.4
			c-0.4,0.4-1,0.7-1.6,0.7h-5c-0.6,0-1.2-0.2-1.6-0.7L0.7,87c-0.9-0.9-0.9-2.4,0-3.2L38.1,46.4z"/>
		<path class="st3" d="M0.7,83.8l37.4-37.4c0.9-0.9,2.4-0.9,3.2,0l37.4,37.4c0.9,0.9,0.9,2.4,0,3.2l-37.4,37.4
			c-0.9,0.9-2.4,0.9-3.2,0L0.7,87C-0.2,86.1-0.2,84.7,0.7,83.8z"/>
		<path class="st2" d="M83.6,91.9c0.5-0.5,1-0.7,1.6-0.7h5c0.6,0,1.2,0.2,1.6,0.7l37.4,37.4c0.9,0.9,0.9,2.4,0,3.2L91.7,170
			c-0.4,0.4-1,0.7-1.6,0.7h-5c-0.6,0-1.2-0.2-1.6-0.7l-37.4-37.4c-0.9-0.9-0.9-2.4,0-3.2L83.6,91.9z"/>
		<path class="st3" d="M46.3,129.3l37.4-37.4c0.9-0.9,2.4-0.9,3.2,0l37.4,37.4c0.9,0.9,0.9,2.4,0,3.2L86.9,170
			c-0.9,0.9-2.4,0.9-3.2,0l-37.4-37.4C45.3,131.7,45.3,130.2,46.3,129.3z"/>
		<path class="st2" d="M83.6,0.8c0.5-0.5,1-0.7,1.6-0.7h5c0.6,0,1.2,0.2,1.6,0.7l37.4,37.4c0.9,0.9,0.9,2.4,0,3.2L91.7,78.9
			c-0.4,0.4-1,0.7-1.6,0.7h-5c-0.6,0-1.2-0.2-1.6-0.7L46.3,41.5c-0.9-0.9-0.9-2.4,0-3.2L83.6,0.8z"/>
		<path class="st3" d="M46.3,38.2L83.6,0.8c0.9-0.9,2.4-0.9,3.2,0l37.4,37.4c0.9,0.9,0.9,2.4,0,3.2L86.9,78.9
			c-0.9,0.9-2.4,0.9-3.2,0L46.3,41.5C45.3,40.6,45.3,39.1,46.3,38.2z"/>
		<path class="st4" d="M110.4,65.1c0.5-0.5,1-0.7,1.6-0.7h5c0.6,0,1.2,0.2,1.6,0.7l14.7,14.6c0.9,0.9,0.9,2.4,0,3.2l-18.7,18.7
			c-0.4,0.4-1,0.7-1.6,0.7h-5c-0.6,0-1.2-0.2-1.6-0.7L91.7,87c-0.9-0.9-0.9-2.4,0-3.2L110.4,65.1z"/>
		<path class="st0" d="M91.7,83.8l18.7-18.7c0.9-0.9,2.4-0.9,3.2,0l14.7,14.6c0.9,0.9,0.9,2.4,0,3.2l-18.7,18.7
			c-0.9,0.9-2.4,0.9-3.2,0L91.7,87C90.8,86.1,90.8,84.7,91.7,83.8z"/>
		<path class="st4" d="M129.2,46.4c0.5-0.5,1-0.7,1.6-0.7h5c0.6,0,1.2,0.2,1.6,0.7L151.9,61c0.9,0.9,0.9,2.4,0,3.2l-10.6,10.6
			c-0.4,0.4-1,0.7-1.6,0.7h-5c-0.6,0-1.2-0.2-1.6-0.7l-14.6-14.7c-0.9-0.9-0.9-2.4,0-3.2L129.2,46.4z"/>
		<path class="st0" d="M118.6,56.9l10.6-10.6c0.9-0.9,2.4-0.9,3.2,0L147,61c0.9,0.9,0.9,2.4,0,3.2l-10.6,10.6
			c-0.9,0.9-2.4,0.9-3.2,0l-14.6-14.6C117.7,59.3,117.7,57.8,118.6,56.9z"/>
		<path class="st4" d="M118.6,102.5c0.5-0.5,1-0.7,1.6-0.7h5c0.6,0,1.2,0.2,1.6,0.7l14.6,14.6c0.9,0.9,0.9,2.4,0,3.2l-4,4
			c-0.4,0.4-1,0.7-1.6,0.7h-5c-0.6,0-1.2-0.2-1.6-0.7l-14.6-14.6c-0.9-0.9-0.9-2.4,0-3.2L118.6,102.5z"/>
		<path class="st0" d="M114.6,106.5l4-4c0.9-0.9,2.4-0.9,3.2,0l14.6,14.6c0.9,0.9,0.9,2.4,0,3.2l-4,4c-0.9,0.9-2.4,0.9-3.2,0
			l-14.6-14.6C113.7,108.9,113.7,107.4,114.6,106.5z"/>
		<path class="st4" d="M151.9,69.1c0.5-0.5,1-0.7,1.6-0.7h5c0.6,0,1.2,0.2,1.6,0.7l14.6,14.6c0.9,0.9,0.9,2.4,0,3.2l-25.2,25.2
			c-0.4,0.4-1,0.7-1.6,0.7h-5c-0.6,0-1.2-0.2-1.6-0.7l-14.6-14.6c-0.9-0.9-0.9-2.4,0-3.2L151.9,69.1z"/>
		<path class="st0" d="M126.7,94.4l25.2-25.3c0.9-0.9,2.4-0.9,3.2,0l14.6,14.6c0.9,0.9,0.9,2.4,0,3.2l-25.2,25.2
			c-0.9,0.9-2.4,0.9-3.2,0l-14.6-14.6C125.8,96.7,125.8,95.2,126.7,94.4z"/>
	</g>
</g>
</svg>
